<?xml version="1.0" encoding="UTF-8" standalone="no"?>
<svg
   width="88.854706"
   height="205.75433"
   version="1.0"
   id="svg115"
   sodipodi:docname="Fascist_symbol.svg"
   inkscape:version="1.3 (0e150ed6c4, 2023-07-21)"
   xmlns:inkscape="http://www.inkscape.org/namespaces/inkscape"
   xmlns:sodipodi="http://sodipodi.sourceforge.net/DTD/sodipodi-0.dtd"
   xmlns:xlink="http://www.w3.org/1999/xlink"
   xmlns="http://www.w3.org/2000/svg"
   xmlns:svg="http://www.w3.org/2000/svg">
  <sodipodi:namedview
     id="namedview115"
     pagecolor="#ffffff"
     bordercolor="#000000"
     borderopacity="0.25"
     inkscape:showpageshadow="2"
     inkscape:pageopacity="0.0"
     inkscape:pagecheckerboard="0"
     inkscape:deskcolor="#d1d1d1"
     inkscape:zoom="3.9285714"
     inkscape:cx="19.345455"
     inkscape:cy="103.21818"
     inkscape:window-width="1920"
     inkscape:window-height="1007"
     inkscape:window-x="-9"
     inkscape:window-y="-9"
     inkscape:window-maximized="1"
     inkscape:current-layer="svg115" />
  <defs
     id="defs52">
    <linearGradient
       id="z">
      <stop
         offset="0"
         id="stop1" />
      <stop
         offset="1"
         stop-opacity="0"
         id="stop2" />
    </linearGradient>
    <linearGradient
       id="y">
      <stop
         offset="0"
         id="stop3" />
      <stop
         offset="1"
         stop-opacity="0"
         id="stop4" />
    </linearGradient>
    <linearGradient
       id="x">
      <stop
         offset="0"
         id="stop5" />
      <stop
         offset="1"
         stop-opacity="0"
         id="stop6" />
    </linearGradient>
    <linearGradient
       id="w">
      <stop
         offset="0"
         id="stop7" />
      <stop
         offset="1"
         stop-opacity="0"
         id="stop8" />
    </linearGradient>
    <linearGradient
       id="v">
      <stop
         offset="0"
         id="stop9" />
      <stop
         offset="1"
         stop-opacity="0"
         id="stop10" />
    </linearGradient>
    <linearGradient
       id="u">
      <stop
         offset="0"
         id="stop11" />
      <stop
         offset="1"
         stop-opacity="0"
         id="stop12" />
    </linearGradient>
    <linearGradient
       id="t">
      <stop
         offset="0"
         id="stop13" />
      <stop
         offset="1"
         stop-opacity="0"
         id="stop14" />
    </linearGradient>
    <linearGradient
       id="s">
      <stop
         offset="0"
         id="stop15" />
      <stop
         offset="1"
         stop-opacity="0"
         id="stop16" />
    </linearGradient>
    <linearGradient
       id="r">
      <stop
         offset="0"
         id="stop17" />
      <stop
         offset="1"
         stop-opacity="0"
         id="stop18" />
    </linearGradient>
    <linearGradient
       id="q">
      <stop
         offset="0"
         id="stop19" />
      <stop
         offset="1"
         stop-opacity="0"
         id="stop20" />
    </linearGradient>
    <linearGradient
       id="p">
      <stop
         offset="0"
         id="stop21" />
      <stop
         offset="1"
         stop-opacity="0"
         id="stop22" />
    </linearGradient>
    <linearGradient
       id="o">
      <stop
         offset="0"
         id="stop23" />
      <stop
         offset="1"
         stop-opacity="0"
         id="stop24" />
    </linearGradient>
    <linearGradient
       id="n">
      <stop
         offset="0"
         id="stop25" />
      <stop
         offset="1"
         stop-opacity="0"
         id="stop26" />
    </linearGradient>
    <linearGradient
       id="l">
      <stop
         offset="0"
         id="stop27" />
      <stop
         offset="1"
         stop-opacity="0"
         id="stop28" />
    </linearGradient>
    <linearGradient
       id="k">
      <stop
         offset="0"
         id="stop29" />
      <stop
         offset="1"
         stop-opacity="0"
         id="stop30" />
    </linearGradient>
    <linearGradient
       id="j">
      <stop
         offset="0"
         id="stop31" />
      <stop
         offset="1"
         stop-opacity="0"
         id="stop32" />
    </linearGradient>
    <linearGradient
       id="h">
      <stop
         offset="0"
         id="stop33" />
      <stop
         offset="1"
         stop-opacity="0"
         id="stop34" />
    </linearGradient>
    <linearGradient
       id="f">
      <stop
         offset="0"
         id="stop35" />
      <stop
         offset="1"
         stop-opacity="0"
         id="stop36" />
    </linearGradient>
    <linearGradient
       id="e">
      <stop
         offset="0"
         id="stop37" />
      <stop
         offset="1"
         stop-opacity="0"
         id="stop38" />
    </linearGradient>
    <linearGradient
       id="d">
      <stop
         offset="0"
         id="stop39" />
      <stop
         offset="1"
         stop-opacity="0"
         id="stop40" />
    </linearGradient>
    <linearGradient
       id="c">
      <stop
         offset="0"
         id="stop41" />
      <stop
         offset="1"
         stop-opacity="0"
         id="stop42" />
    </linearGradient>
    <linearGradient
       id="b">
      <stop
         offset="0"
         id="stop43" />
      <stop
         offset="1"
         stop-opacity="0"
         id="stop44" />
    </linearGradient>
    <linearGradient
       id="a">
      <stop
         offset="0"
         id="stop45" />
      <stop
         offset="1"
         stop-opacity="0"
         id="stop46" />
    </linearGradient>
    <linearGradient
       xlink:href="#a"
       id="A"
       x1="143.09314"
       x2="156.26776"
       y1="184.3766"
       y2="184.27306"
       gradientTransform="matrix(1,0,0,0.70386,-173.74181,-17.527485)"
       gradientUnits="userSpaceOnUse" />
    <linearGradient
       xlink:href="#b"
       id="V"
       x1="139.90099"
       x2="131.10765"
       y1="56.837204"
       y2="56.800591"
       gradientTransform="matrix(1,0,0,0.70386,-173.74181,-17.527485)"
       gradientUnits="userSpaceOnUse" />
    <linearGradient
       xlink:href="#c"
       id="U"
       x1="142.54472"
       x2="135.27144"
       y1="165.39365"
       y2="165.35704"
       gradientTransform="matrix(1,0,0,0.70386,-173.74181,-17.527485)"
       gradientUnits="userSpaceOnUse" />
    <linearGradient
       xlink:href="#d"
       id="W"
       x1="138.15358"
       x2="150.14407"
       y1="146.92897"
       y2="146.79953"
       gradientTransform="matrix(1,0,0,0.70386,-173.74181,-17.527485)"
       gradientUnits="userSpaceOnUse" />
    <linearGradient
       xlink:href="#e"
       id="B"
       x1="-138.45709"
       x2="-115.20281"
       y1="138.74507"
       y2="138.39153"
       gradientTransform="matrix(1,0,0,0.70386,173.74181,-17.527485)"
       gradientUnits="userSpaceOnUse" />
    <linearGradient
       xlink:href="#f"
       id="Z"
       x1="149.19954"
       x2="156.97772"
       y1="169.0538"
       y2="169.05379"
       gradientTransform="matrix(1,0,0,0.70386,-173.74181,-17.527485)"
       gradientUnits="userSpaceOnUse" />
    <linearGradient
       id="g">
      <stop
         offset="0"
         id="stop47" />
      <stop
         offset="1"
         stop-opacity="0"
         id="stop48" />
    </linearGradient>
    <linearGradient
       xlink:href="#g"
       id="aa"
       x1="149.5531"
       x2="157.33128"
       y1="170.82156"
       y2="170.82155"
       gradientTransform="matrix(1,0,0,0.70386,-180.03382,-17.527485)"
       gradientUnits="userSpaceOnUse" />
    <linearGradient
       xlink:href="#h"
       id="ad"
       x1="-128.33989"
       x2="-148.6692"
       y1="73.771149"
       y2="73.594376"
       gradientTransform="matrix(1,0,0,0.70386,173.74181,-17.527485)"
       gradientUnits="userSpaceOnUse" />
    <linearGradient
       id="i">
      <stop
         offset="0"
         id="stop49" />
      <stop
         offset="1"
         stop-opacity="0"
         id="stop50" />
    </linearGradient>
    <linearGradient
       xlink:href="#i"
       id="ae"
       x1="-128.33989"
       x2="-148.6692"
       y1="73.771149"
       y2="73.594376"
       gradientTransform="matrix(1,0,0,0.70386,173.74181,4.995946)"
       gradientUnits="userSpaceOnUse" />
    <linearGradient
       xlink:href="#j"
       id="ah"
       x1="-130.375"
       x2="-147.5"
       y1="88.412964"
       y2="89.037964"
       gradientTransform="matrix(1,0,0,0.70386,173.74181,-17.527485)"
       gradientUnits="userSpaceOnUse" />
    <linearGradient
       xlink:href="#k"
       id="af"
       x1="-181.72644"
       x2="-164.04878"
       y1="72.356941"
       y2="72.180161"
       gradientTransform="matrix(1,0,0,0.70386,173.74181,-17.527485)"
       gradientUnits="userSpaceOnUse" />
    <linearGradient
       xlink:href="#l"
       id="ai"
       x1="-180.13545"
       x2="-166.34688"
       y1="97.105675"
       y2="96.575348"
       gradientTransform="matrix(1,0,0,0.70386,173.74181,-17.527485)"
       gradientUnits="userSpaceOnUse" />
    <linearGradient
       id="m">
      <stop
         offset="0"
         id="stop51" />
      <stop
         offset="1"
         stop-opacity="0"
         id="stop52" />
    </linearGradient>
    <linearGradient
       xlink:href="#m"
       id="ag"
       x1="-181.72644"
       x2="-164.04878"
       y1="72.356941"
       y2="72.180161"
       gradientTransform="matrix(1,0,0,0.70386,173.74181,4.995946)"
       gradientUnits="userSpaceOnUse" />
    <linearGradient
       xlink:href="#n"
       id="aj"
       x1="-129.08578"
       x2="-149.78554"
       y1="136.30573"
       y2="136.80573"
       gradientTransform="matrix(1,0,0,0.70386,173.74181,-17.527485)"
       gradientUnits="userSpaceOnUse" />
    <linearGradient
       xlink:href="#o"
       id="ak"
       x1="-191.97949"
       x2="-156.97771"
       y1="195.03996"
       y2="195.03996"
       gradientTransform="matrix(1,0,0,0.70386,173.74181,-17.527485)"
       gradientUnits="userSpaceOnUse" />
    <linearGradient
       xlink:href="#p"
       id="ac"
       x1="-133.375"
       x2="-147.25"
       y1="234.03796"
       y2="234.03796"
       gradientTransform="matrix(1,0,0,0.70386,173.74181,-17.527485)"
       gradientUnits="userSpaceOnUse" />
    <linearGradient
       xlink:href="#q"
       id="al"
       x1="-181.45343"
       x2="-162.625"
       y1="233.08086"
       y2="234.03796"
       gradientTransform="matrix(1,0,0,0.70386,173.74181,-17.527485)"
       gradientUnits="userSpaceOnUse" />
    <linearGradient
       xlink:href="#r"
       id="ao"
       x1="-130.4612"
       x2="-144.78011"
       y1="236.40572"
       y2="236.40572"
       gradientTransform="matrix(1,0,0,0.70386,173.74181,-17.527485)"
       gradientUnits="userSpaceOnUse" />
    <linearGradient
       xlink:href="#s"
       id="ap"
       x1="-177.5"
       x2="-164.375"
       y1="263.41296"
       y2="263.41296"
       gradientTransform="matrix(1,0,0,0.70386,173.74181,-17.527485)"
       gradientUnits="userSpaceOnUse" />
    <linearGradient
       xlink:href="#t"
       id="am"
       x1="-129.40054"
       x2="-144.95689"
       y1="269.28616"
       y2="269.28616"
       gradientTransform="matrix(1,0,0,0.70386,173.74181,-17.527485)"
       gradientUnits="userSpaceOnUse" />
    <linearGradient
       xlink:href="#u"
       id="an"
       x1="-182.43355"
       x2="-161.22034"
       y1="269.63971"
       y2="269.99329"
       gradientTransform="matrix(1,0,0,0.70386,173.74181,-17.527485)"
       gradientUnits="userSpaceOnUse" />
    <linearGradient
       xlink:href="#v"
       id="D"
       x1="-128.0721"
       x2="-132.93239"
       y1="133.64667"
       y2="133.64668"
       gradientTransform="matrix(1,0,0,0.70386,173.74181,-17.527485)"
       gradientUnits="userSpaceOnUse" />
    <linearGradient
       xlink:href="#w"
       id="E"
       x1="1147.3185"
       x2="1068.4814"
       y1="548.26862"
       y2="552.36456"
       gradientUnits="userSpaceOnUse" />
    <linearGradient
       xlink:href="#x"
       id="X"
       x1="-157.75"
       x2="-163"
       y1="69.912964"
       y2="69.912964"
       gradientTransform="matrix(1,0,0,0.70386,173.74181,-17.527485)"
       gradientUnits="userSpaceOnUse" />
    <linearGradient
       xlink:href="#y"
       id="Y"
       x1="-164.8772"
       x2="-168.23596"
       y1="52.646339"
       y2="52.646339"
       gradientTransform="matrix(1,0,0,0.70386,173.74181,-17.527485)"
       gradientUnits="userSpaceOnUse" />
    <linearGradient
       xlink:href="#z"
       id="C"
       x1="-127.89793"
       x2="-132.05219"
       y1="228.8927"
       y2="228.8927"
       gradientTransform="matrix(1,0,0,0.70386,173.74181,-17.527485)"
       gradientUnits="userSpaceOnUse" />
    <linearGradient
       xlink:href="#y"
       id="ab"
       x1="-168.37979"
       x2="-172.71083"
       y1="63.07616"
       y2="63.07616"
       gradientTransform="matrix(1,0,0,0.70386,173.74181,-17.527485)"
       gradientUnits="userSpaceOnUse" />
    <linearGradient
       xlink:href="#w"
       id="F"
       x1="1147.3185"
       x2="1068.4814"
       y1="548.26862"
       y2="552.36456"
       gradientUnits="userSpaceOnUse" />
    <linearGradient
       xlink:href="#w"
       id="G"
       x1="1147.3185"
       x2="1068.4814"
       y1="548.26862"
       y2="552.36456"
       gradientUnits="userSpaceOnUse" />
    <linearGradient
       xlink:href="#w"
       id="H"
       x1="1147.3185"
       x2="1068.4814"
       y1="548.26862"
       y2="552.36456"
       gradientUnits="userSpaceOnUse" />
    <linearGradient
       xlink:href="#w"
       id="I"
       x1="1147.3185"
       x2="1068.4814"
       y1="548.26862"
       y2="552.36456"
       gradientUnits="userSpaceOnUse" />
    <linearGradient
       xlink:href="#w"
       id="J"
       x1="1147.3185"
       x2="1068.4814"
       y1="548.26862"
       y2="552.36456"
       gradientUnits="userSpaceOnUse" />
    <linearGradient
       xlink:href="#w"
       id="K"
       x1="1147.3185"
       x2="1068.4814"
       y1="548.26862"
       y2="552.36456"
       gradientUnits="userSpaceOnUse" />
    <linearGradient
       xlink:href="#w"
       id="L"
       x1="1147.3185"
       x2="1068.4814"
       y1="548.26862"
       y2="552.36456"
       gradientUnits="userSpaceOnUse" />
    <linearGradient
       xlink:href="#w"
       id="M"
       x1="1147.3185"
       x2="1068.4814"
       y1="548.26862"
       y2="552.36456"
       gradientUnits="userSpaceOnUse" />
    <linearGradient
       xlink:href="#w"
       id="N"
       x1="1147.3185"
       x2="1068.4814"
       y1="548.26862"
       y2="552.36456"
       gradientUnits="userSpaceOnUse" />
    <linearGradient
       xlink:href="#w"
       id="O"
       x1="1147.3185"
       x2="1068.4814"
       y1="548.26862"
       y2="552.36456"
       gradientUnits="userSpaceOnUse" />
    <linearGradient
       xlink:href="#w"
       id="P"
       x1="1147.3185"
       x2="1068.4814"
       y1="548.26862"
       y2="552.36456"
       gradientUnits="userSpaceOnUse" />
    <linearGradient
       xlink:href="#w"
       id="Q"
       x1="1147.3185"
       x2="1068.4814"
       y1="548.26862"
       y2="552.36456"
       gradientUnits="userSpaceOnUse" />
    <linearGradient
       xlink:href="#w"
       id="R"
       x1="1147.3185"
       x2="1068.4814"
       y1="548.26862"
       y2="552.36456"
       gradientUnits="userSpaceOnUse" />
    <linearGradient
       xlink:href="#w"
       id="S"
       x1="1147.3185"
       x2="1068.4814"
       y1="548.26862"
       y2="552.36456"
       gradientUnits="userSpaceOnUse" />
    <linearGradient
       xlink:href="#w"
       id="T"
       x1="1147.3185"
       x2="1068.4814"
       y1="548.26862"
       y2="552.36456"
       gradientUnits="userSpaceOnUse" />
  </defs>
  <rect
     width="6.2919998"
     height="204.73276"
     x="-23.618172"
     y="0.51078731"
     fill="#ffffff"
     fill-rule="evenodd"
     stroke="#000000"
     stroke-width="1.02157"
     color="#000000"
     overflow="visible"
     ry="1.3980726"
     style="marker:none"
     transform="scale(-1,1)"
     id="rect52" />
  <rect
     width="6.2919998"
     height="204.73276"
     x="-23.618172"
     y="0.51078731"
     fill="url(#A)"
     fill-rule="evenodd"
     stroke="#000000"
     stroke-width="1.02157"
     color="#000000"
     overflow="visible"
     ry="1.3980726"
     style="fill:url(#A);marker:none"
     transform="scale(-1,1)"
     id="rect53" />
  <path
     fill="#ffffff"
     fill-rule="evenodd"
     stroke="#000000"
     stroke-width="0.975713"
     d="m 38.491802,67.001371 v 21.88557 l 49.875006,0.49771 c 0.0217,-12.75119 -9.46437,-33.87601 -17.68366,-41.83208 -7.75663,-0.41354 -14.28341,-0.26441 -12.73392,3.57967 15.45126,11.77494 -8.494076,19.13253 -19.457426,15.86913 z"
     color="#000000"
     overflow="visible"
     style="marker:none"
     id="path53" />
  <rect
     width="6.4581122"
     height="94.46209"
     x="38.037148"
     y="64.043594"
     fill="#ffffff"
     fill-rule="evenodd"
     stroke="#000000"
     stroke-width="0.975713"
     color="#000000"
     overflow="visible"
     ry="2.272795"
     style="marker:none"
     id="rect54" />
  <path
     fill="url(#B)"
     fill-rule="evenodd"
     stroke="#000000"
     stroke-width="0.975713"
     d="m 38.491802,67.001371 v 21.88557 l 49.875006,0.49771 c 0.0217,-12.75119 -9.46437,-33.87601 -17.68366,-41.83208 -7.75663,-0.41354 -14.28341,-0.26441 -12.73392,3.57967 15.45126,11.77494 -8.494076,19.13253 -19.457426,15.86913 z"
     color="#000000"
     overflow="visible"
     style="fill:url(#B);marker:none"
     id="path54" />
  <rect
     width="9.2916241"
     height="102.50189"
     x="36.700172"
     y="56.08316"
     fill="#ffffff"
     fill-rule="evenodd"
     stroke="#000000"
     stroke-width="0.975713"
     color="#000000"
     overflow="visible"
     ry="3.0211711"
     style="marker:none"
     id="rect55" />
  <rect
     width="9.2916241"
     height="102.50189"
     x="36.700172"
     y="56.08316"
     fill="url(#C)"
     fill-rule="evenodd"
     stroke="#000000"
     stroke-width="0.975713"
     color="#000000"
     overflow="visible"
     ry="3.0211711"
     style="fill:url(#C);marker:none"
     id="rect56" />
  <rect
     width="9.2916241"
     height="39.033234"
     x="36.700172"
     y="56.08316"
     fill="#ffffff"
     fill-rule="evenodd"
     stroke="#000000"
     stroke-width="1.08922"
     color="#000000"
     overflow="visible"
     ry="2.1928782"
     style="marker:none"
     id="rect57" />
  <rect
     width="9.2916241"
     height="39.033234"
     x="36.700172"
     y="56.08316"
     fill="url(#D)"
     fill-rule="evenodd"
     stroke="#000000"
     stroke-width="1.08922"
     color="#000000"
     overflow="visible"
     ry="2.1928782"
     style="fill:url(#D);marker:none"
     id="rect58" />
  <g
     fill="#ffffff"
     fill-rule="evenodd"
     stroke="#000000"
     stroke-linecap="round"
     stroke-linejoin="round"
     stroke-width="6.1627"
     transform="matrix(-0.2063,0,0,0.12151,266.88216,-12.191744)"
     id="g64">
    <path
       d="m 1060.7314,558.38857 c -1.1333,0.0758 -3.6181,1.12909 -3.3728,2.75185 -1.5145,-1.53866 -2.5079,-3.07733 -3.1953,-4.616 z m -0.2662,6.21385 c -0.6053,1.42837 -0.8182,3.09723 -0.7988,4.79354 l 3.8166,2.13047 c -0.1455,-2.77739 -1.1186,-5.94662 -3.0178,-6.92401 z"
       overflow="visible"
       style="marker:none"
       id="path58" />
    <path
       d="m 1066.6339,565.8008 c -0.869,2.83523 -4.628,2.68315 -6.9675,1.90854 l -0.2934,1.625 3.7003,3.70083 5.3802,-3.10659 v -4.08339 l -1.8196,-0.0444 z"
       overflow="visible"
       style="marker:none"
       id="path59" />
    <path
       d="m 1092.4459,514.77807 c 2.0233,-0.0262 3.8178,0.17189 5.7017,0.28512 2.2188,1.39914 4.4645,3.16252 6.9197,4.61369 1.0072,1.1534 1.6992,2.46991 1.7623,4.09531 2.5731,1.96059 3.575,4.31052 4.2763,6.73911 l -0.6739,23.76831 c 1.3451,2.90649 1.9559,5.88967 -0.2333,9.14963 l -0.2332,7.56853 c 2.9433,7.29466 -4.0736,10.36637 -8.6302,8.96821 2.3764,-1.90038 3.3443,-3.65646 3.3691,-5.31354 l -2.488,-0.20735 c -0.5222,1.58012 -1.5924,3.10288 -4.2503,4.45818 1.2225,-1.54316 1.8509,-3.09643 1.9178,-4.63961 l -0.8552,-0.0518 c -0.8261,1.73975 -2.3507,3.4701 -4.354,5.20985 1.1835,-1.79867 1.9157,-3.59263 2.2289,-5.39129 l -0.3629,-0.0259 -0.2332,0.0518 c -1.0548,2.00693 -2.5394,4.11398 -5.2611,5.62456 -1.5075,0.83667 -3.4795,0.86594 -4.976,-0.15551 -0.7478,0.91453 -1.6983,1.6226 -3.8097,2.20318 -1.8567,0.51053 -3.4729,0.36286 -3.4729,0.36286 1.2201,-2.01697 3.0518,-3.50025 5.1315,-4.7433 l -4.2503,1.11455 -4.95,6.37623 c 0,0 -2.913,0.93442 -3.2137,-1.24414 -0.5492,-3.97883 1.0359,-7.55646 3.4469,-11.0936 -0.6005,0.07 -1.1752,0.24219 -1.4772,0.54432 -2.888,2.88837 -4.9547,6.73909 -11.0146,6.73909 -1.5224,10e-6 -4.4673,-1.74299 -4.8723,-3.55098 -0.3586,-1.60136 0.4028,-3.21071 1.1403,-4.17307 -0.6767,-1.04078 -1.1485,-2.0209 -1.0625,-2.92891 0.096,-1.01036 0.8486,-1.57164 1.9437,-1.50335 0.9702,1.1188 2.1263,2.23472 3.9134,2.20317 1.6405,-0.0289 4.1124,-1.23092 3.8097,-2.20317 -0.5726,-1.83954 -1.938,-3.53052 -3.4469,-5.33944 -2.2032,-2.64141 -5.091,-3.84083 -7.9823,-4.17306 -1.6829,-0.19337 -4.6026,-2.23532 -5.7016,-3.36956 -1.5845,-1.63527 -2.1333,-5.04973 -2.6435,-7.72405 -0.3987,-2.09021 -0.622,-4.06938 -0.622,-4.06938 0.104,-1.12434 0.6092,-2.49232 2.2029,-3.2918 2.6198,-1.31416 5.3977,-2.36417 7.2826,-3.65467 l 4.6131,-1.39966 c -0.073,-0.5541 0.048,-1.02093 0.4406,-1.34783 1.6954,-1.41104 3.06,-2.8305 4.2762,-4.25081 2.2518,-0.76933 4.4618,-1.53751 6.4792,-2.30684 l 2.177,-1.68479 c 0.7765,-3.15256 2.3214,-5.92535 4.9241,-8.16468 2.9378,-1.01653 6.1771,-1.89043 10.9887,-1.9699 0.7381,-0.0724 1.4507,-0.095 2.1251,-0.10368 z"
       overflow="visible"
       style="marker:none"
       id="path60" />
    <path
       d="m 1111.1021,530.51502 c -0.7013,-2.42856 -1.6875,-4.78587 -4.2605,-6.74646 -0.063,-1.6254 -0.768,-2.93 -1.7752,-4.08339 -2.4553,-1.45116 -4.7044,-3.21687 -6.9231,-4.61601 -2.5118,-0.15099 -4.8583,-0.4673 -7.8108,-0.17753 -4.8116,0.0795 -8.0684,0.9364 -11.0061,1.95292 -2.6535,2.28303 -4.2093,5.11497 -4.9705,8.34431 7.2728,-1.388 11.4338,-1.21993 15.9766,-1.24276 -3.7683,1.18358 -6.7554,2.27599 -9.0533,3.55076 -1.9094,1.05916 -3.0642,2.577 -3.5504,4.26092 -0.9912,3.43282 1.8708,7.17837 4.7929,10.20848 0.6815,5.08876 2.3412,8.90394 4.4379,13.04908 -1.1942,2.93204 -2.4479,5.49899 -3.3728,9.32077 -1.3701,0.16834 -1.8839,0.57172 -3.0177,0.97647 -4.9672,6.09548 -9.9721,11.63084 -9.0535,18.28645 0.3007,2.17855 3.1953,1.24279 3.1953,1.24279 l 4.9706,-6.39139 16.8641,-4.43847 13.3139,1.06523 z"
       overflow="visible"
       style="marker:none"
       id="path61" />
    <path
       d="m 1107.1079,547.9138 c 2.7021,5.94952 8.6295,11.5765 0.1776,18.64155 8.3177,10.46147 -0.554,15.05895 -5.9469,13.40416 4.4259,-3.53933 4.0076,-6.57748 1.5977,-9.40954 -0.5157,2.90156 -0.166,5.89424 -4.9705,8.34431 1.7579,-2.21924 2.2952,-4.43846 1.6863,-6.6577 -0.395,2.39676 -2.2106,4.79353 -4.9704,7.19031 1.5186,-2.30801 2.2979,-4.616 2.3964,-6.924 -1.1013,2.39677 -2.5955,5.28103 -6.0355,7.1903 -1.5075,0.83668 -3.4741,0.84393 -4.9705,-0.17752 -0.7479,0.91454 -1.7052,1.63864 -3.8167,2.21922 -1.8567,0.51054 -3.4615,0.35508 -3.4615,0.35508 2.7661,-4.5733 8.6212,-6.36608 13.58,-8.9657 -2.9698,1.20052 -5.1227,2.89127 -9.1421,3.462 3.0005,-1.60565 4.2867,-3.49708 5.9468,-5.32615 -2.1586,1.69688 -4.5992,3.29974 -8.1658,4.52723 1.9919,-3.01815 4.4784,-6.03632 5.148,-9.05447"
       overflow="visible"
       style="marker:none"
       id="path62" />
    <path
       d="m 1092.4463,514.7773 c -0.6744,0.009 -1.3989,0.0463 -2.137,0.11873 -4.8116,0.0795 -8.0442,0.94241 -10.982,1.95894 -2.6027,2.23933 -4.1505,5.0097 -4.927,8.16226 l -2.1667,1.69182 c -2.0174,0.76933 -4.2187,1.5161 -6.4705,2.28543 -1.2162,1.42031 -2.5786,2.86301 -4.274,4.27406 -0.3927,0.3269 -0.5178,0.78153 -0.4452,1.33564 l -4.6303,1.39501 c -1.8848,1.2905 -4.652,2.3366 -7.2718,3.65075 -1.5937,0.79948 -2.0924,2.17025 -2.1964,3.29459 0,0 0.2246,1.97607 0.6233,4.06629 0.5102,2.67432 1.0572,6.11146 2.6416,7.74673 1.099,1.13424 4.0158,3.16059 5.6987,3.35395 2.8913,0.33224 5.7809,1.54361 7.9842,4.18501 1.5089,1.80892 2.8704,3.50304 3.443,5.34258 0.3027,0.97225 -2.1586,2.16745 -3.7991,2.19639 -1.7872,0.0315 -2.9477,-1.0776 -3.9179,-2.19639 -1.0951,-0.0683 -1.8634,0.47368 -1.959,1.48404 -0.086,0.90801 0.3918,1.89765 1.0685,2.93842 -0.7375,0.96235 -1.4864,2.58365 -1.1278,4.18501 0.405,1.808 3.3452,3.53204 4.8676,3.53204 6.06,0 8.1237,-3.8492 11.0117,-6.73758 0.302,-0.30213 0.8836,-0.46424 1.484,-0.53426 -2.411,3.53714 -4.0218,7.12186 -3.4727,11.10068 0.3007,2.17855 3.2353,1.21693 3.2353,1.21692 l 0.059,-0.089 c 0.6301,2.02928 2.8485,4.20741 6.144,1.2466 -1.303,0.0475 -2.4635,-0.26236 -3.2946,-1.39501 1.9882,0.59317 3.4373,0.58757 4.0069,-0.35617 -0.8525,-0.59868 -1.2026,-1.41342 -1.3059,-2.16671 0.5653,-0.0474 1.2138,-0.12976 1.9292,-0.32649 2.1115,-0.58058 3.0513,-1.31156 3.7992,-2.22607 1.4964,1.02144 3.4789,1.01475 4.9864,0.17808 2.7217,-1.51058 4.1988,-3.63245 5.2535,-5.63938 l 0.2375,-0.0594 0.3561,0.0297 c -0.3131,1.79867 -1.0426,3.60326 -2.226,5.40194 2.0032,-1.73975 3.537,-3.48411 4.3631,-5.22385 l 0.8607,0.0594 c -0.067,1.54318 -0.7068,3.11675 -1.9292,4.65991 2.6578,-1.3553 3.7221,-2.90171 4.2443,-4.48183 l 2.4932,0.20777 c -0.025,1.65708 -1.0071,3.4125 -3.3836,5.31289 4.5567,1.39816 11.5805,-1.669 8.6372,-8.96365 l 0.2374,-7.56864 c 2.1892,-3.25997 1.5826,-6.23525 0.2375,-9.14173 l 0.6826,-23.77445 c -0.7013,-2.42859 -1.701,-4.77698 -4.274,-6.73758 -0.063,-1.62539 -0.7737,-2.94256 -1.7809,-4.09597 -2.4551,-1.45118 -4.6969,-3.2014 -6.9157,-4.60055 -1.8838,-0.11323 -3.6755,-0.32301 -5.6987,-0.29681 z m -8.5184,62.56746 c -1.207,0.72141 -2.3258,1.55259 -3.2946,2.4932 0.1921,-0.60675 0.3867,-1.20699 0.6233,-1.78086 z"
       overflow="visible"
       style="marker:none"
       id="path63" />
    <path
       d="m 1065.4801,537.17272 c 0,0 0.7281,2.66413 1.7751,3.24008 0.8876,0.48823 1.9527,0.0666 2.6184,-0.66578 0.7972,-0.8771 1.4645,-2.75184 1.4978,-2.79623 -2.3741,-0.68212 -3.6691,0.4154 -5.5363,0.3107 -1.9378,-0.10868 -2.3965,-1.15401 -2.3965,-1.15401 v -0.0888 m -16.0209,8.78819 c 1.139,0.51649 2.9438,0.61452 3.6834,0.0888 0.2201,1.47829 -1.2238,2.48328 -2.6628,2.21923 m 9.586,9.23197 c 5.0974,0.42602 8.2294,3.7112 10.7398,7.90048 m -3.9941,-32.31202 c 0,0 0.5769,0.53261 1.1538,0.35508 0.7498,-0.23075 1.6541,-0.97812 1.6541,-0.97812 3.8642,0 6.8777,2.74232 9.2633,5.15028 m -2.7515,2.97377 c 0,0 2.6516,-1.49799 2.5295,-0.48823 -0.122,1.00974 -2.1015,1.58607 -3.0177,4.52722 -0.6879,2.20814 -2.0234,4.12218 -3.8166,5.72562 -2.7837,2.48886 -5.6806,2.6187 -9.1422,3.15131 m -6.9676,-12.42769 c 0,0 0.111,2.08607 1.7752,2.66308 1.6642,0.57699 3.861,-1.04304 4.8817,-0.35508 1.0207,0.68796 -2.1335,1.96942 -0.7988,3.10691 2.5518,2.17485 7.8108,-2.92938 7.8108,-2.92938 m 24.4087,10.82985 c 0,0 1.3535,2.44116 0.2662,6.21385 -1.0873,3.7727 -2.3521,5.03766 -4.6155,8.87693 -2.2633,3.83927 -3.7278,5.59246 -4.4379,6.48016 -0.6677,0.83469 -1.8253,3.16175 -2.4852,5.41492 -0.2242,0.76553 -0.5513,2.79724 1.1538,3.99462 -0.5696,0.94374 -2.006,0.94824 -3.9941,0.35507 0.831,1.13264 1.981,1.46786 3.284,1.42032 -4.1771,3.75299 -6.6302,-0.77154 -6.3018,-2.75186 1.1385,-6.86532 6.1801,-12.47319 9.2309,-18.81908 l 1.6864,-3.55076 m -17.4854,-1.59785 c 0,0 7.5466,5.48576 7.8995,2.66307 0.5001,-4.00031 -13.1807,-8.38869 -13.1807,-8.38869"
       overflow="visible"
       style="marker:none"
       id="path64" />
  </g>
  <g
     fill="url(#E)"
     fill-rule="evenodd"
     stroke="#000000"
     stroke-linecap="round"
     stroke-linejoin="round"
     stroke-width="6.1627"
     transform="matrix(-0.2063,0,0,0.12151,266.88216,-12.191744)"
     id="g79"
     style="fill:url(#E)">
    <path
       fill="url(#F)"
       d="m 1060.7314,558.38857 c -1.1333,0.0758 -3.6181,1.12909 -3.3728,2.75185 -1.5145,-1.53866 -2.5079,-3.07733 -3.1953,-4.616 z"
       overflow="visible"
       style="fill:url(#F);marker:none"
       id="path65" />
    <path
       fill="url(#G)"
       d="m 1060.4652,564.60242 c -0.6053,1.42837 -0.8182,3.09723 -0.7988,4.79354 l 3.8166,2.13047 c -0.1455,-2.77739 -1.1186,-5.94662 -3.0178,-6.92401 z"
       overflow="visible"
       style="fill:url(#G);marker:none"
       id="path66" />
    <path
       fill="url(#H)"
       d="m 1066.6339,565.8008 c -0.869,2.83523 -4.628,2.68315 -6.9675,1.90854 l -0.2934,1.625 3.7003,3.70083 5.3802,-3.10659 v -4.08339 l -1.8196,-0.0444 z"
       overflow="visible"
       style="fill:url(#H);marker:none"
       id="path67" />
    <path
       fill="url(#I)"
       d="m 1092.4459,514.77807 c 2.0233,-0.0262 3.8178,0.17189 5.7017,0.28512 2.2188,1.39914 4.4645,3.16252 6.9197,4.61369 1.0072,1.1534 1.6992,2.46991 1.7623,4.09531 2.5731,1.96059 3.575,4.31052 4.2763,6.73911 l -0.6739,23.76831 c 1.3451,2.90649 1.9559,5.88967 -0.2333,9.14963 l -0.2332,7.56853 c 2.9433,7.29466 -4.0736,10.36637 -8.6302,8.96821 2.3764,-1.90038 3.3443,-3.65646 3.3691,-5.31354 l -2.488,-0.20735 c -0.5222,1.58012 -1.5924,3.10288 -4.2503,4.45818 1.2225,-1.54316 1.8509,-3.09643 1.9178,-4.63961 l -0.8552,-0.0518 c -0.8261,1.73975 -2.3507,3.4701 -4.354,5.20985 1.1835,-1.79867 1.9157,-3.59263 2.2289,-5.39129 l -0.3629,-0.0259 -0.2332,0.0518 c -1.0548,2.00693 -2.5394,4.11398 -5.2611,5.62456 -1.5075,0.83667 -3.4795,0.86594 -4.976,-0.15551 -0.7478,0.91453 -1.6983,1.6226 -3.8097,2.20318 -1.8567,0.51053 -3.4729,0.36286 -3.4729,0.36286 1.2201,-2.01697 3.0518,-3.50025 5.1315,-4.7433 l -4.2503,1.11455 -4.95,6.37623 c 0,0 -2.913,0.93442 -3.2137,-1.24414 -0.5492,-3.97883 1.0359,-7.55646 3.4469,-11.0936 -0.6005,0.07 -1.1752,0.24219 -1.4772,0.54432 -2.888,2.88837 -4.9547,6.73909 -11.0146,6.73909 -1.5224,10e-6 -4.4673,-1.74299 -4.8723,-3.55098 -0.3586,-1.60136 0.4028,-3.21071 1.1403,-4.17307 -0.6767,-1.04078 -1.1485,-2.0209 -1.0625,-2.92891 0.096,-1.01036 0.8486,-1.57164 1.9437,-1.50335 0.9702,1.1188 2.1263,2.23472 3.9134,2.20317 1.6405,-0.0289 4.1124,-1.23092 3.8097,-2.20317 -0.5726,-1.83954 -1.938,-3.53052 -3.4469,-5.33944 -2.2032,-2.64141 -5.091,-3.84083 -7.9823,-4.17306 -1.6829,-0.19337 -4.6026,-2.23532 -5.7016,-3.36956 -1.5845,-1.63527 -2.1333,-5.04973 -2.6435,-7.72405 -0.3987,-2.09021 -0.622,-4.06938 -0.622,-4.06938 0.104,-1.12434 0.6092,-2.49232 2.2029,-3.2918 2.6198,-1.31416 5.3977,-2.36417 7.2826,-3.65467 l 4.6131,-1.39966 c -0.073,-0.5541 0.048,-1.02093 0.4406,-1.34783 1.6954,-1.41104 3.06,-2.8305 4.2762,-4.25081 2.2518,-0.76933 4.4618,-1.53751 6.4792,-2.30684 l 2.177,-1.68479 c 0.7765,-3.15256 2.3214,-5.92535 4.9241,-8.16468 2.9378,-1.01653 6.1771,-1.89043 10.9887,-1.9699 0.7381,-0.0724 1.4507,-0.095 2.1251,-0.10368 z"
       overflow="visible"
       style="fill:url(#I);marker:none"
       id="path68" />
    <path
       fill="url(#J)"
       d="m 1111.1021,530.51502 c -0.7013,-2.42856 -1.6875,-4.78587 -4.2605,-6.74646 -0.063,-1.6254 -0.768,-2.93 -1.7752,-4.08339 -2.4553,-1.45116 -4.7044,-3.21687 -6.9231,-4.61601 -2.5118,-0.15099 -4.8583,-0.4673 -7.8108,-0.17753 -4.8116,0.0795 -8.0684,0.9364 -11.0061,1.95292 -2.6535,2.28303 -4.2093,5.11497 -4.9705,8.34431 7.2728,-1.388 11.4338,-1.21993 15.9766,-1.24276 -3.7683,1.18358 -6.7554,2.27599 -9.0533,3.55076 -1.9094,1.05916 -3.0642,2.577 -3.5504,4.26092 -0.9912,3.43282 1.8708,7.17837 4.7929,10.20848 0.6815,5.08876 2.3412,8.90394 4.4379,13.04908 -1.1942,2.93204 -2.4479,5.49899 -3.3728,9.32077 -1.3701,0.16834 -1.8839,0.57172 -3.0177,0.97647 -4.9672,6.09548 -9.9721,11.63084 -9.0535,18.28645 0.3007,2.17855 3.1953,1.24279 3.1953,1.24279 l 4.9706,-6.39139 16.8641,-4.43847 13.3139,1.06523 z"
       overflow="visible"
       style="fill:url(#J);marker:none"
       id="path69" />
    <path
       fill="url(#K)"
       d="m 1107.1079,547.9138 c 2.7021,5.94952 8.6295,11.5765 0.1776,18.64155 8.3177,10.46147 -0.554,15.05895 -5.9469,13.40416 4.4259,-3.53933 4.0076,-6.57748 1.5977,-9.40954 -0.5157,2.90156 -0.166,5.89424 -4.9705,8.34431 1.7579,-2.21924 2.2952,-4.43846 1.6863,-6.6577 -0.395,2.39676 -2.2106,4.79353 -4.9704,7.19031 1.5186,-2.30801 2.2979,-4.616 2.3964,-6.924 -1.1013,2.39677 -2.5955,5.28103 -6.0355,7.1903 -1.5075,0.83668 -3.4741,0.84393 -4.9705,-0.17752 -0.7479,0.91454 -1.7052,1.63864 -3.8167,2.21922 -1.8567,0.51054 -3.4615,0.35508 -3.4615,0.35508 2.7661,-4.5733 8.6212,-6.36608 13.58,-8.9657 -2.9698,1.20052 -5.1227,2.89127 -9.1421,3.462 3.0005,-1.60565 4.2867,-3.49708 5.9468,-5.32615 -2.1586,1.69688 -4.5992,3.29974 -8.1658,4.52723 1.9919,-3.01815 4.4784,-6.03632 5.148,-9.05447"
       overflow="visible"
       style="fill:url(#K);marker:none"
       id="path70" />
    <path
       fill="url(#L)"
       d="m 1092.4463,514.7773 c -0.6744,0.009 -1.3989,0.0463 -2.137,0.11873 -4.8116,0.0795 -8.0442,0.94241 -10.982,1.95894 -2.6027,2.23933 -4.1505,5.0097 -4.927,8.16226 l -2.1667,1.69182 c -2.0174,0.76933 -4.2187,1.5161 -6.4705,2.28543 -1.2162,1.42031 -2.5786,2.86301 -4.274,4.27406 -0.3927,0.3269 -0.5178,0.78153 -0.4452,1.33564 l -4.6303,1.39501 c -1.8848,1.2905 -4.652,2.3366 -7.2718,3.65075 -1.5937,0.79948 -2.0924,2.17025 -2.1964,3.29459 0,0 0.2246,1.97607 0.6233,4.06629 0.5102,2.67432 1.0572,6.11146 2.6416,7.74673 1.099,1.13424 4.0158,3.16059 5.6987,3.35395 2.8913,0.33224 5.7809,1.54361 7.9842,4.18501 1.5089,1.80892 2.8704,3.50304 3.443,5.34258 0.3027,0.97225 -2.1586,2.16745 -3.7991,2.19639 -1.7872,0.0315 -2.9477,-1.0776 -3.9179,-2.19639 -1.0951,-0.0683 -1.8634,0.47368 -1.959,1.48404 -0.086,0.90801 0.3918,1.89765 1.0685,2.93842 -0.7375,0.96235 -1.4864,2.58365 -1.1278,4.18501 0.405,1.808 3.3452,3.53204 4.8676,3.53204 6.06,0 8.1237,-3.8492 11.0117,-6.73758 0.302,-0.30213 0.8836,-0.46424 1.484,-0.53426 -2.411,3.53714 -4.0218,7.12186 -3.4727,11.10068 0.3007,2.17855 3.2353,1.21693 3.2353,1.21692 l 0.059,-0.089 c 0.6301,2.02928 2.8485,4.20741 6.144,1.2466 -1.303,0.0475 -2.4635,-0.26236 -3.2946,-1.39501 1.9882,0.59317 3.4373,0.58757 4.0069,-0.35617 -0.8525,-0.59868 -1.2026,-1.41342 -1.3059,-2.16671 0.5653,-0.0474 1.2138,-0.12976 1.9292,-0.32649 2.1115,-0.58058 3.0513,-1.31156 3.7992,-2.22607 1.4964,1.02144 3.4789,1.01475 4.9864,0.17808 2.7217,-1.51058 4.1988,-3.63245 5.2535,-5.63938 l 0.2375,-0.0594 0.3561,0.0297 c -0.3131,1.79867 -1.0426,3.60326 -2.226,5.40194 2.0032,-1.73975 3.537,-3.48411 4.3631,-5.22385 l 0.8607,0.0594 c -0.067,1.54318 -0.7068,3.11675 -1.9292,4.65991 2.6578,-1.3553 3.7221,-2.90171 4.2443,-4.48183 l 2.4932,0.20777 c -0.025,1.65708 -1.0071,3.4125 -3.3836,5.31289 4.5567,1.39816 11.5805,-1.669 8.6372,-8.96365 l 0.2374,-7.56864 c 2.1892,-3.25997 1.5826,-6.23525 0.2375,-9.14173 l 0.6826,-23.77445 c -0.7013,-2.42859 -1.701,-4.77698 -4.274,-6.73758 -0.063,-1.62539 -0.7737,-2.94256 -1.7809,-4.09597 -2.4551,-1.45118 -4.6969,-3.2014 -6.9157,-4.60055 -1.8838,-0.11323 -3.6755,-0.32301 -5.6987,-0.29681 z m -8.5184,62.56746 c -1.207,0.72141 -2.3258,1.55259 -3.2946,2.4932 0.1921,-0.60675 0.3867,-1.20699 0.6233,-1.78086 z"
       overflow="visible"
       style="fill:url(#L);marker:none"
       id="path71" />
    <path
       fill="url(#M)"
       d="m 1065.4801,537.17272 c 0,0 0.7281,2.66413 1.7751,3.24008 0.8876,0.48823 1.9527,0.0666 2.6184,-0.66578 0.7972,-0.8771 1.4645,-2.75184 1.4978,-2.79623 -2.3741,-0.68212 -3.6691,0.4154 -5.5363,0.3107 -1.9378,-0.10868 -2.3965,-1.15401 -2.3965,-1.15401 v -0.0888"
       overflow="visible"
       style="fill:url(#M);marker:none"
       id="path72" />
    <path
       fill="url(#N)"
       d="m 1047.4177,544.80687 c 1.139,0.51649 2.9438,0.61452 3.6834,0.0888 0.2201,1.47829 -1.2238,2.48328 -2.6628,2.21923"
       overflow="visible"
       style="fill:url(#N);marker:none"
       id="path73" />
    <path
       fill="url(#O)"
       d="m 1058.0243,556.34687 c 5.0974,0.42602 8.2294,3.7112 10.7398,7.90048"
       overflow="visible"
       style="fill:url(#O);marker:none"
       id="path74" />
    <path
       fill="url(#P)"
       d="m 1064.77,531.93533 c 0,0 0.5769,0.53261 1.1538,0.35508 0.7498,-0.23075 1.6541,-0.97812 1.6541,-0.97812 3.8642,0 6.8777,2.74232 9.2633,5.15028"
       overflow="visible"
       style="fill:url(#P);marker:none"
       id="path75" />
    <path
       fill="url(#Q)"
       d="m 1074.0897,539.43634 c 0,0 2.6516,-1.49799 2.5295,-0.48823 -0.122,1.00974 -2.1015,1.58607 -3.0177,4.52722 -0.6879,2.20814 -2.0234,4.12218 -3.8166,5.72562 -2.7837,2.48886 -5.6806,2.6187 -9.1422,3.15131"
       overflow="visible"
       style="fill:url(#Q);marker:none"
       id="path76" />
    <path
       fill="url(#R)"
       d="m 1053.6751,539.92457 c 0,0 0.111,2.08607 1.7752,2.66308 1.6642,0.57699 3.861,-1.04304 4.8817,-0.35508 1.0207,0.68796 -2.1335,1.96942 -0.7988,3.10691 2.5518,2.17485 7.8108,-2.92938 7.8108,-2.92938"
       overflow="visible"
       style="fill:url(#R);marker:none"
       id="path77" />
    <path
       fill="url(#S)"
       d="m 1091.7527,553.23995 c 0,0 1.3535,2.44116 0.2662,6.21385 -1.0873,3.7727 -2.3521,5.03766 -4.6155,8.87693 -2.2633,3.83927 -3.7278,5.59246 -4.4379,6.48016 -0.6677,0.83469 -1.8253,3.16175 -2.4852,5.41492 -0.2242,0.76553 -0.5513,2.79724 1.1538,3.99462 -0.5696,0.94374 -2.006,0.94824 -3.9941,0.35507 0.831,1.13264 1.981,1.46786 3.284,1.42032 -4.1771,3.75299 -6.6302,-0.77154 -6.3018,-2.75186 1.1385,-6.86532 6.1801,-12.47319 9.2309,-18.81908 l 1.6864,-3.55076"
       overflow="visible"
       style="fill:url(#S);marker:none"
       id="path78" />
    <path
       fill="url(#T)"
       d="m 1068.0541,559.27627 c 0,0 7.5466,5.48576 7.8995,2.66307 0.5001,-4.00031 -13.1807,-8.38869 -13.1807,-8.38869"
       overflow="visible"
       style="fill:url(#T);marker:none"
       id="path79" />
  </g>
  <path
     fill="#cccccc"
     fill-rule="evenodd"
     stroke="#000000"
     stroke-width="0.975713"
     d="M 0.78455217,12.012527 V 194.23777 l 19.26562983,1.40771 19.26562,-1.40771 V 12.012527 l -19.26562,-1.407714 z"
     color="#000000"
     overflow="visible"
     style="marker:none"
     id="path80" />
  <rect
     width="5.75"
     height="186.38989"
     x="8.0537987"
     y="9.9301834"
     fill="#ffffff"
     fill-rule="evenodd"
     stroke="#000000"
     stroke-width="0.975713"
     color="#000000"
     overflow="visible"
     ry="1.3997878"
     style="marker:none"
     id="rect80" />
  <rect
     width="3.75"
     height="186.0477"
     x="4.3037992"
     y="10.101273"
     fill="#ffffff"
     fill-rule="evenodd"
     stroke="#000000"
     stroke-width="0.975713"
     color="#000000"
     overflow="visible"
     ry="0.96429831"
     style="marker:none"
     id="rect81" />
  <rect
     width="3.75"
     height="184.67903"
     x="0.55379897"
     y="10.785606"
     fill="#ffffff"
     fill-rule="evenodd"
     stroke="#000000"
     stroke-width="0.975713"
     color="#000000"
     overflow="visible"
     ry="0.93084002"
     style="marker:none"
     id="rect82" />
  <rect
     width="6.2919998"
     height="186.76292"
     x="-26.387794"
     y="9.7437973"
     fill="#ffffff"
     fill-rule="evenodd"
     stroke="#000000"
     stroke-width="0.975713"
     color="#000000"
     overflow="visible"
     ry="1.2753607"
     style="marker:none"
     transform="scale(-1,1)"
     id="rect83" />
  <rect
     width="5.75"
     height="186.38989"
     x="-32.053795"
     y="9.9301834"
     fill="#ffffff"
     fill-rule="evenodd"
     stroke="#000000"
     stroke-width="0.975713"
     color="#000000"
     overflow="visible"
     ry="1.3997878"
     style="marker:none"
     transform="scale(-1,1)"
     id="rect84" />
  <rect
     width="3.75"
     height="186.0477"
     x="-35.803795"
     y="10.101273"
     fill="#ffffff"
     fill-rule="evenodd"
     stroke="#000000"
     stroke-width="0.975713"
     color="#000000"
     overflow="visible"
     ry="0.96429831"
     style="marker:none"
     transform="scale(-1,1)"
     id="rect85" />
  <rect
     width="3.75"
     height="184.67903"
     x="-39.553795"
     y="10.785606"
     fill="#ffffff"
     fill-rule="evenodd"
     stroke="#000000"
     stroke-width="0.975713"
     color="#000000"
     overflow="visible"
     ry="0.93084002"
     style="marker:none"
     transform="scale(-1,1)"
     id="rect86" />
  <rect
     width="6.2919998"
     height="186.76317"
     x="-20.095787"
     y="9.7435455"
     fill="#ffffff"
     fill-rule="evenodd"
     stroke="#000000"
     stroke-width="0.975713"
     color="#000000"
     overflow="visible"
     ry="1.2753621"
     style="marker:none"
     transform="scale(-1,1)"
     id="rect87" />
  <rect
     width="3.75"
     height="186.0477"
     x="-35.803795"
     y="10.101273"
     fill="url(#U)"
     fill-rule="evenodd"
     stroke="#000000"
     stroke-width="0.975713"
     color="#000000"
     overflow="visible"
     ry="0.96429831"
     style="fill:url(#U);marker:none"
     transform="scale(-1,1)"
     id="rect88" />
  <rect
     width="3.75"
     height="184.67903"
     x="-39.553795"
     y="10.785606"
     fill="url(#V)"
     fill-rule="evenodd"
     stroke="#000000"
     stroke-width="0.975713"
     color="#000000"
     overflow="visible"
     ry="0.93084002"
     style="fill:url(#V);marker:none"
     transform="scale(-1,1)"
     id="rect89" />
  <rect
     width="5.75"
     height="186.38989"
     x="-32.053795"
     y="9.9301834"
     fill="url(#W)"
     fill-rule="evenodd"
     stroke="#000000"
     stroke-width="0.975713"
     color="#000000"
     overflow="visible"
     ry="1.3997878"
     style="fill:url(#W);marker:none"
     transform="scale(-1,1)"
     id="rect90" />
  <rect
     width="5.75"
     height="186.38989"
     x="8.0537987"
     y="9.9301834"
     fill="url(#X)"
     fill-rule="evenodd"
     stroke="#000000"
     stroke-width="0.975713"
     color="#000000"
     overflow="visible"
     ry="1.3997878"
     style="fill:url(#X);marker:none"
     id="rect91" />
  <rect
     width="3.75"
     height="186.0477"
     x="4.3037992"
     y="10.101273"
     fill="url(#Y)"
     fill-rule="evenodd"
     stroke="#000000"
     stroke-width="0.975713"
     color="#000000"
     overflow="visible"
     ry="0.96429831"
     style="fill:url(#Y);marker:none"
     id="rect92" />
  <rect
     width="6.2919998"
     height="186.76317"
     x="-20.095787"
     y="9.7435455"
     fill="url(#Z)"
     fill-rule="evenodd"
     stroke="#000000"
     stroke-width="0.975713"
     color="#000000"
     overflow="visible"
     ry="1.2753621"
     style="fill:url(#Z);marker:none"
     transform="scale(-1,1)"
     id="rect93" />
  <rect
     width="6.2919998"
     height="186.76317"
     x="-26.387794"
     y="9.7435455"
     fill="url(#aa)"
     fill-rule="evenodd"
     stroke="#000000"
     stroke-width="0.975713"
     color="#000000"
     overflow="visible"
     ry="1.2753621"
     style="fill:url(#aa);marker:none"
     transform="scale(-1,1)"
     id="rect94" />
  <rect
     width="3.75"
     height="184.67903"
     x="0.55379897"
     y="10.785606"
     fill="url(#ab)"
     fill-rule="evenodd"
     stroke="#000000"
     stroke-width="0.975713"
     color="#000000"
     overflow="visible"
     ry="0.93084002"
     style="fill:url(#ab);marker:none"
     id="rect95" />
  <path
     fill="#ffffff"
     fill-rule="evenodd"
     stroke="#000000"
     stroke-width="0.968466"
     d="m 39.287302,56.285771 c -12.54483,24.75644 -17.87448,29.19903 -38.79549983,77.538059 l 0.0828,12.73144 C 12.862722,119.76775 25.697412,94.519041 39.398072,71.708421 Z"
     color="#000000"
     overflow="visible"
     style="marker:none"
     id="path95" />
  <path
     fill="#ffffff"
     fill-rule="evenodd"
     stroke="#000000"
     stroke-width="0.975713"
     d="m 0.58555217,32.006461 2.5e-4,3.87119 c 13.20224983,-1.90898 26.15499983,-1.7849 38.90599983,0 v -3.87119 c -13.02928,-1.95087 -25.74498,-1.83223 -38.90624983,0 z m 0,22.52344 2.5e-4,3.87119 c 13.20224983,-1.90898 26.15499983,-1.7849 38.90599983,0 v -3.87119 c -13.02928,-1.95087 -25.74498,-1.83224 -38.90624983,0 z"
     color="#000000"
     overflow="visible"
     style="marker:none"
     id="path96" />
  <path
     fill="#ffffff"
     fill-rule="evenodd"
     stroke="#000000"
     stroke-width="0.967735"
     d="m 0.58555217,148.48353 2.5e-4,-3.87119 c 13.32368983,0.6268 25.82726983,0.64128 38.90599983,0 v 3.87119 c -13.26834,0.83369 -25.97732,0.79331 -38.90624983,0 z"
     color="#000000"
     overflow="visible"
     style="marker:none"
     id="path97" />
  <path
     fill="url(#ac)"
     fill-rule="evenodd"
     stroke="#000000"
     stroke-width="0.967735"
     d="m 0.58555217,148.48353 2.5e-4,-3.87119 c 13.32368983,0.6268 25.82726983,0.64128 38.90599983,0 v 3.87119 c -13.26834,0.83369 -25.97732,0.79331 -38.90624983,0 z"
     color="#000000"
     overflow="visible"
     style="fill:url(#ac);marker:none"
     id="path98" />
  <path
     fill="#ffffff"
     fill-rule="evenodd"
     stroke="#000000"
     stroke-width="0.967735"
     d="m 0.58555217,173.82239 2.5e-4,-3.87118 c 13.32368983,0.62679 25.82726983,0.64128 38.90599983,0 v 3.87118 c -13.26834,0.83369 -25.97732,0.79331 -38.90624983,0 z"
     color="#000000"
     overflow="visible"
     style="marker:none"
     id="path99" />
  <path
     fill="url(#ad)"
     fill-rule="evenodd"
     stroke="#000000"
     stroke-width="0.975713"
     d="m 0.58555217,32.006461 2.5e-4,3.87119 c 13.20224983,-1.90898 26.15499983,-1.7849 38.90599983,0 v -3.87119 c -13.02928,-1.95087 -25.74498,-1.83223 -38.90624983,0 z"
     color="#000000"
     overflow="visible"
     style="fill:url(#ad);marker:none"
     id="path100" />
  <path
     fill="url(#ae)"
     fill-rule="evenodd"
     stroke="#000000"
     stroke-width="0.975713"
     d="m 0.58555217,54.529901 2.5e-4,3.87119 c 13.20224983,-1.90898 26.15499983,-1.7849 38.90599983,0 v -3.87119 c -13.02928,-1.95087 -25.74498,-1.83224 -38.90624983,0 z"
     color="#000000"
     overflow="visible"
     style="fill:url(#ae);marker:none"
     id="path101" />
  <path
     fill="url(#af)"
     fill-rule="evenodd"
     stroke="#000000"
     stroke-width="0.975713"
     d="m 0.58555217,32.006461 2.5e-4,3.87119 c 13.20224983,-1.90898 26.15499983,-1.7849 38.90599983,0 v -3.87119 c -13.02928,-1.95087 -25.74498,-1.83223 -38.90624983,0 z"
     color="#000000"
     overflow="visible"
     style="fill:url(#af);marker:none"
     id="path102" />
  <path
     fill="url(#ag)"
     fill-rule="evenodd"
     stroke="#000000"
     stroke-width="0.975713"
     d="m 0.58555217,54.529901 2.5e-4,3.87119 c 13.20224983,-1.90898 26.15499983,-1.7849 38.90599983,0 v -3.87119 c -13.02928,-1.95087 -25.74498,-1.83224 -38.90624983,0 z"
     color="#000000"
     overflow="visible"
     style="fill:url(#ag);marker:none"
     id="path103" />
  <path
     fill="#ffffff"
     fill-rule="evenodd"
     stroke="#000000"
     stroke-width="0.975713"
     d="m 39.287302,32.354611 c -8.71289,4.27203 -26.10578,10.47283 -38.79549983,18.41405 l 0.0828,5.69287 C 13.754372,47.706131 32.523352,41.453161 39.398072,37.923261 Z"
     color="#000000"
     overflow="visible"
     style="marker:none"
     id="path104" />
  <path
     fill="url(#ah)"
     fill-rule="evenodd"
     stroke="#000000"
     stroke-width="0.975713"
     d="m 39.287302,32.354611 c -8.71289,4.27203 -26.10578,10.47283 -38.79549983,18.41405 l 0.0828,5.69287 C 13.754372,47.706131 32.523352,41.453161 39.398072,37.923251 Z"
     color="#000000"
     overflow="visible"
     style="fill:url(#ah);marker:none"
     id="path105" />
  <path
     fill="url(#ai)"
     fill-rule="evenodd"
     stroke="#000000"
     stroke-width="0.975713"
     d="m 39.287302,32.354611 c -8.71289,4.27203 -26.10578,10.47283 -38.79549983,18.41405 l 0.0828,5.69287 C 13.754372,47.706131 32.523352,41.453161 39.398072,37.923251 Z"
     color="#000000"
     overflow="visible"
     style="fill:url(#ai);marker:none"
     id="path106" />
  <path
     fill="url(#aj)"
     fill-rule="evenodd"
     stroke="#000000"
     stroke-width="0.968466"
     d="m 39.287302,56.285771 c -12.54483,24.75644 -17.87448,29.19903 -38.79549983,77.538059 l 0.0828,12.73143 C 12.862722,119.76775 25.697412,94.519031 39.398072,71.708411 Z"
     color="#000000"
     overflow="visible"
     style="fill:url(#aj);marker:none"
     id="path107" />
  <path
     fill="url(#ak)"
     fill-rule="evenodd"
     stroke="#000000"
     stroke-width="0.968466"
     d="m 39.287302,56.285771 c -12.54483,24.75644 -17.87448,29.19903 -38.79549983,77.538059 l 0.0828,12.73143 C 12.862722,119.76775 25.697412,94.519031 39.398072,71.708411 Z"
     color="#000000"
     overflow="visible"
     style="fill:url(#ak);marker:none"
     id="path108" />
  <path
     fill="url(#al)"
     fill-rule="evenodd"
     stroke="#000000"
     stroke-width="0.967735"
     d="m 0.58555217,148.48353 2.5e-4,-3.87119 c 13.32368983,0.6268 25.82726983,0.64128 38.90599983,0 v 3.87119 c -13.26834,0.83369 -25.97732,0.79331 -38.90624983,0 z"
     color="#000000"
     overflow="visible"
     style="fill:url(#al);marker:none"
     id="path109" />
  <path
     fill="url(#am)"
     fill-rule="evenodd"
     stroke="#000000"
     stroke-width="0.967735"
     d="m 0.58555217,173.82239 2.5e-4,-3.87118 c 13.32368983,0.62679 25.82726983,0.64128 38.90599983,0 v 3.87118 c -13.26834,0.83369 -25.97732,0.79331 -38.90624983,0 z"
     color="#000000"
     overflow="visible"
     style="fill:url(#am);marker:none"
     id="path110" />
  <path
     fill="url(#an)"
     fill-rule="evenodd"
     stroke="#000000"
     stroke-width="0.967735"
     d="m 0.58555217,173.82239 2.5e-4,-3.87118 c 13.32368983,0.62679 25.82726983,0.64128 38.90599983,0 v 3.87118 c -13.26834,0.83369 -25.97732,0.79331 -38.90624983,0 z"
     color="#000000"
     overflow="visible"
     style="fill:url(#an);marker:none"
     id="path111" />
  <path
     fill="#ffffff"
     fill-rule="evenodd"
     stroke="#000000"
     stroke-width="0.968466"
     d="m 39.287302,144.9718 c -8.60499,5.72956 -29.8297298,16.26592 -38.79549983,22.63718 l 0.0828,5.69288 C 10.210692,166.16088 32.149862,156.29346 39.398072,150.54044 Z"
     color="#000000"
     overflow="visible"
     style="marker:none"
     id="path112" />
  <path
     fill="url(#ao)"
     fill-rule="evenodd"
     stroke="#000000"
     stroke-width="0.968466"
     d="m 39.287302,144.9718 c -8.60499,5.72956 -29.8297298,16.26592 -38.79549983,22.63718 l 0.0828,5.69288 C 10.210692,166.16088 32.149862,156.29346 39.398072,150.54044 Z"
     color="#000000"
     overflow="visible"
     style="fill:url(#ao);marker:none"
     id="path113" />
  <path
     fill="url(#ap)"
     fill-rule="evenodd"
     stroke="#000000"
     stroke-width="0.968466"
     d="m 39.287302,144.9718 c -8.60499,5.72956 -29.8297298,16.26592 -38.79549983,22.63718 l 0.0828,5.69288 C 10.210692,166.16088 32.149862,156.29346 39.398072,150.54044 Z"
     color="#000000"
     overflow="visible"
     style="fill:url(#ap);marker:none"
     id="path114" />
  <path
     fill="none"
     stroke="#000000"
     stroke-width="0.975713"
     d="m 46.491802,88.781681 -6.75,0.088 m 6.75,-21.73162 -6,0.17596"
     id="path115" />
</svg>
