<?xml version="1.0" encoding="utf-8"?>
<!-- Generator: Adobe Illustrator 15.0.3, SVG Export Plug-In . SVG Version: 6.00 Build 0)  -->
<!DOCTYPE svg PUBLIC "-//W3C//DTD SVG 1.1//EN" "http://www.w3.org/Graphics/SVG/1.1/DTD/svg11.dtd">
<svg version="1.1"
	 id="Ebene_1" xmlns:ns="http://ns.adobe.com/SaveForWeb/1.0/" xmlns:rdf="http://www.w3.org/1999/02/22-rdf-syntax-ns#" xmlns:svg="http://www.w3.org/2000/svg" xmlns:cc="http://creativecommons.org/ns#" xmlns:dc="http://purl.org/dc/elements/1.1/"
	 xmlns="http://www.w3.org/2000/svg" xmlns:xlink="http://www.w3.org/1999/xlink" x="0px" y="0px" width="340px" height="330px"
	 viewBox="0 0 340 330" enable-background="new 0 0 340 330" xml:space="preserve">
<g id="g130">
	<path id="path132" d="M331.869,18.669c-1.396-1.208-3.146-2.118-5.248-2.721c-2.107-0.602-4.439-0.907-7.014-0.907
		c-12.836,0-25.035,3.752-36.59,11.25c-11.551,7.493-20.955,17.647-28.195,30.468c-1.164-4.601-1.75-10.042-1.75-16.328
		c0-4.352,0.762-9.008,2.279-13.96c1.527-4.958,3.684-9.977,6.475-15.05c-1.623-0.484-3.324-0.91-5.074-1.274
		c-1.75-0.368-3.553-0.542-5.43-0.542c-9.805,1.692-19.262,5.868-28.365,12.516c-9.109,6.652-17.158,15.177-24.162,25.578
		c-8.877-19.832-17.043-34.344-24.51-43.535c-13.783,20.312-23.707,37.241-29.77,50.789c-7.467-13.542-16.875-24.184-28.197-31.922
		c-11.322-7.742-22.938-11.613-34.842-11.613c-1.402,0-2.684,0.184-3.854,0.542c-1.164,0.361-2.217,0.785-3.154,1.27
		c4.439,5.562,7.881,11.004,10.336,16.324c2.453,5.319,3.676,10.156,3.676,14.512c0,2.662-0.584,6.292-1.75,10.878
		c-8.404-12.574-18.5-22.372-30.289-29.38c-11.795-7.014-23.877-10.521-36.248-10.521c-2.566,0-4.902,0.3-7.004,0.901
		c-2.102,0.61-3.854,1.519-5.252,2.723c6.773,8.464,11.959,18.262,15.582,29.38c3.619,11.128,5.428,23.102,5.428,35.918
		c0,21.765,4.027,40.81,12.084,57.132c8.047,16.322,18.615,26.898,31.691,31.744c-6.541,3.873-11.672,8.217-15.408,13.053
		c-3.736,4.84-5.604,9.553-5.604,14.146c0,0.723,0.178,1.57,0.525,2.543c0.355,0.957,0.762,1.934,1.229,2.902
		c1.631-1.211,3.328-2.123,5.078-2.729c1.746-0.604,3.557-0.9,5.426-0.9c3.268,0,6.885,0.787,10.855,2.359
		c3.969,1.57,7.941,3.809,11.906,6.715c4.896,3.623,10.041,6.344,15.406,8.148c5.373,1.812,10.742,2.717,16.109,2.717
		c2.57,0,5.027-0.295,7.363-0.904c2.336-0.604,4.545-1.518,6.65-2.711c0.703,0.723,6.537,4.352,17.508,10.875
		c4.441,3.139,7.877,7.922,10.328,14.322c2.457,6.414,3.684,13.73,3.684,21.959c0,8.953-1.227,17.352-3.684,25.207
		c-2.455,7.865-5.885,14.57-10.328,20.131c0,0-0.303,0.146-0.795,0.35c-1.674,0.676-4.754,0.877-4.838,0.889
		c-0.84,0.123-10.924,1.537-13.232,0.686c-0.588-0.215-17.117,0.102-17.682,0.707c-1.312,1.395-1.969,2.943-1.969,4.629
		c0,1.387,1.219,2.535,3.656,3.434c0.543,0.201,27.293,1,32.027-1.016c1.125-0.48,2.209-1.018,3.254-1.607
		c4.299-2.453,7.896-5.871,10.793-10.246c6.541-9.91,9.809-25.518,9.809-46.795v-12.691c1.396,0,2.623,0.355,3.68,1.086
		c1.041,0.723,1.572,1.572,1.572,2.539c0,14.996-1.053,27.703-3.152,38.1c-1.424,7.045-5.564,16.818-5.564,16.818
		s-3.072,4.41-3.539,4.947c-0.209,2.484,2.562,4.832,4.201,6.531c1.639,1.691,19.494,1.602,21.139,0.365
		c1.193-0.891,24.189,2.08,27.496-1.221c0.189-0.186,1.662-1.713,0.947-3c-0.041-0.072-0.207-0.432-0.258-0.529
		c-0.857-1.711-5.727-1.293-7.375-1.324c-3.936-0.082-18.398,0.762-20.67,0.693c-4.984-0.154-12.768-0.172-14.805-0.125
		c-2.973,0.07-1.922-1.385-1.922-1.385c3.961-4.84,7.004-12.705,9.105-23.582c2.102-10.879,3.152-24.184,3.152-39.898
		c0-7.02,2.449-13.238,7.355-18.678c4.9-5.451,11.209-8.893,18.91-10.342c2.098,1.207,4.725,2.109,7.875,2.713
		c3.148,0.607,6.947,0.906,11.377,0.906c5.373,0,10.797-1.09,16.285-3.266c5.486-2.182,10.561-5.324,15.229-9.432
		c3.969-3.631,7.941-6.357,11.906-8.168c3.971-1.811,7.59-2.713,10.854-2.713c2.117,0,5.611,1.809,10.512,5.447
		c1.176-3.387,1.75-5.805,1.75-7.258c0-4.357-1.396-8.768-4.203-13.244c-2.801-4.467-6.654-8.531-11.559-12.15
		c10.508-9.193,18.689-20.131,24.527-32.83c5.83-12.699,8.748-25.941,8.748-39.721c0-4.357-0.293-10.707-0.877-19.041
		c-0.58-8.349-0.875-14.696-0.875-19.045c0-7.493,1.697-15.052,5.072-22.672C321.071,31.904,325.801,24.954,331.869,18.669z
		 M174.295,22.293c13.072,19.35,23.043,38.456,29.943,57.313c6.885,18.87,10.328,36.645,10.328,53.332
		c0,14.027-3.912,25.996-11.73,35.91c-7.82,9.922-17.338,14.875-28.541,14.875c-12.139,0-22.471-5.137-30.992-15.422
		c-8.521-10.279-12.783-22.672-12.783-37.186c0-14.273,3.729-30.712,11.209-49.336C149.201,63.158,160.053,43.333,174.295,22.293
		L174.295,22.293z M113.887,34.627c8.518,7.976,16.396,18.378,23.631,31.195c-5.133,11.61-9.045,22.435-11.73,32.469
		c-2.688,10.04-4.035,19.167-4.035,27.388c0,10.154,1.348,19.59,4.035,28.291c2.686,8.709,6.596,16.209,11.73,22.492
		c-14.014-3.873-25.385-12.875-34.135-27.029c-8.758-14.148-13.135-30.541-13.135-49.154c0-14.034,1.168-24.306,3.502-30.836
		c2.332-8.956,3.504-16.208,3.504-21.771c0-5.801-0.76-11.062-2.277-15.782c-1.52-4.714-3.68-8.524-6.48-11.426
		C96.899,21.927,105.367,26.643,113.887,34.627z M55.934,145.091c-10.975-14.875-16.461-31.023-16.461-48.437
		c0-15.958-1.516-29.985-4.551-42.082c-3.031-12.088-7.357-21.642-12.957-28.653c11.205,0,22.182,3.386,32.92,10.155
		c10.738,6.774,20.193,16.082,28.363,27.935c-2.332,13.792-3.5,24.063-3.5,30.836c0,14.992,1.986,28.658,5.959,40.992
		c3.961,12.336,9.564,22.25,16.799,29.75c-3.27,1.207-6.771,1.805-10.506,1.805C78.924,167.392,66.905,159.966,55.934,145.091
		L55.934,145.091z M128.764,191.349c-1.172,2.172-1.746,3.867-1.746,5.066c0,6.291,0.574,11.123,1.746,14.52
		c-3.271,1.207-6.775,1.809-10.508,1.809c-4.434,0-8.928-0.791-13.473-2.369c-4.549-1.557-8.812-3.795-12.789-6.707
		c-4.898-4.357-9.863-7.316-14.875-8.887c-5.02-1.568-9.396-1.631-13.133-0.18c0.932-3.143,3.039-6.291,6.303-9.438
		c3.27-3.139,7.588-6.043,12.955-8.709c6.543,1.211,9.459,1.82,8.756,1.82c3.271,0,6.48-0.297,9.629-0.906
		c3.145-0.609,6.363-1.516,9.623-2.723c7.941,4.6,15.535,7.623,22.77,9.066C131.682,186.63,129.932,189.169,128.764,191.349
		L128.764,191.349z M207.213,210.028c-2.566,3.02-5.959,5.133-10.156,6.344c-3.732,1.705-6.834,3.697-9.287,5.988
		c-2.453,2.293-4.033,4.541-4.721,6.709c-1.162,2.66-2.566,4.84-4.209,6.531c-1.623,1.691-3.139,2.541-4.541,2.541
		c-2.1,0-4.088-0.658-5.959-1.99c-1.865-1.328-3.377-3.086-4.541-5.264c-2.336-4.109-8.174-8.949-17.508-14.516
		c-2.805-1.934-4.963-4.168-6.482-6.707c-1.514-2.543-2.273-5.133-2.273-7.797c0-3.377,0.631-6.406,1.922-9.066
		c1.287-2.66,2.969-4.473,5.084-5.445c9.559,3.625,20.068,5.445,31.514,5.445c9.104,0,18.443-1.816,28.014-5.445
		c2.1,0.961,3.791,2.609,5.076,4.895c1.289,2.291,1.928,4.898,1.928,7.795C211.059,203.681,209.774,207.005,207.213,210.028z
		 M207.555,180.095c5.605-8.457,9.93-16.564,12.957-24.297c3.043-7.742,2.742-47.586-0.875-60.768
		c-3.619-13.182-8.807-25.943-15.58-38.275c5.602-9.918,12.434-17.958,20.484-24.124c8.051-6.17,16.396-9.62,25.037-10.342
		c-1.623,3.14-2.916,6.531-3.85,10.157c-0.934,3.624-1.4,7.494-1.4,11.61c0,6.042,2.334,18.134,7.004,36.28
		c3.502,9.918,5.252,23.816,5.252,41.711c0,15.236-4.717,28.418-14.184,39.543C232.944,172.724,221.334,178.892,207.555,180.095
		L207.555,180.095z M284.594,192.798c-3.961-0.727-8.391-0.125-13.295,1.812c-4.904,1.93-9.807,4.959-14.711,9.07
		c-3.957,3.625-8.043,6.348-12.256,8.156c-4.195,1.809-8.287,2.723-12.254,2.723c-3.732,0-6.883-0.193-9.453-0.543
		c-2.574-0.371-4.672-0.791-6.305-1.277c1.172-1.697,2.041-3.75,2.623-6.164c0.588-2.418,0.877-5.209,0.877-8.348
		c0-2.182-0.293-4.182-0.877-5.988c-0.586-1.811-1.457-3.451-2.623-4.891c2.1-1.207,4.316-2.125,6.654-2.715
		c2.328-0.609,4.785-0.906,7.354-0.906c3.27,1.205,8.521,1.805,15.756,1.805c3.275,0,11.443-1.805,24.512-5.445
		c2.803,0,5.49,1.152,8.057,3.457C281.215,185.841,283.201,188.927,284.594,192.798L284.594,192.798z M306.133,42.427
		c-2.686,6.888-4.033,14.086-4.033,21.582c0,4.357,0.293,10.708,0.877,19.044c0.586,8.34,0.875,14.688,0.875,19.042
		c0,17.891-5.301,34.457-15.934,49.703c-10.623,15.236-22.232,22.855-34.846,22.855c-1.865,0-3.674-0.18-5.428-0.543
		c-1.748-0.367-3.449-0.785-5.08-1.27c7.24-6.293,12.842-14.324,16.811-24.125c3.961-9.795,5.951-20.5,5.951-32.109
		c0-13.301-2.33-29.02-7.004-47.158c6.307-13.788,14.822-24.792,25.566-33.014c10.736-8.222,22.053-12.332,33.959-12.332
		C312.725,29.423,308.817,35.532,306.133,42.427L306.133,42.427z"/>
</g>
</svg>
