<?xml version="1.0" encoding="UTF-8" standalone="no"?>
<svg
   xmlns:dc="http://purl.org/dc/elements/1.1/"
   xmlns:cc="http://creativecommons.org/ns#"
   xmlns:rdf="http://www.w3.org/1999/02/22-rdf-syntax-ns#"
   xmlns:svg="http://www.w3.org/2000/svg"
   xmlns="http://www.w3.org/2000/svg"
   xmlns:xlink="http://www.w3.org/1999/xlink"
   xmlns:sodipodi="http://sodipodi.sourceforge.net/DTD/sodipodi-0.dtd"
   xmlns:inkscape="http://www.inkscape.org/namespaces/inkscape"
   sodipodi:docname="WikiProject Lebanon.svg"
   inkscape:version="1.0 (4035a4fb49, 2020-05-01)"
   id="svg8"
   version="1.1"
   viewBox="0 0 176.94521 264.01331"
   height="264.01331mm"
   width="176.94521mm">
  <defs
     id="defs2">
    <rect
       x="-105.08803"
       y="566.05927"
       width="83.933289"
       height="14.861968"
       id="rect1591" />
    <rect
       id="rect214"
       height="32.212322"
       width="183.61024"
       y="284.57571"
       x="-207.37794" />
    <rect
       id="rect208"
       height="63.780403"
       width="170.72533"
       y="258.80585"
       x="-218.33012" />
    <rect
       id="rect202"
       height="48.318485"
       width="172.65807"
       y="286.50845"
       x="-79.817139" />
    <filter
       id="Adobe_OpacityMaskFilter"
       filterUnits="userSpaceOnUse"
       x="28.434"
       y="140.918"
       width="100.467"
       height="18.497999">
      <feColorMatrix
         type="matrix"
         values="1 0 0 0 0  0 1 0 0 0  0 0 1 0 0  0 0 0 1 0"
         id="feColorMatrix60" />
    </filter>
    <filter
       id="Adobe_OpacityMaskFilter_1_"
       filterUnits="userSpaceOnUse"
       x="3.503"
       y="3.483"
       width="150.327"
       height="150.327">
      <feColorMatrix
         type="matrix"
         values="1 0 0 0 0  0 1 0 0 0  0 0 1 0 0  0 0 0 1 0"
         id="feColorMatrix107" />
    </filter>
    <filter
       id="Adobe_OpacityMaskFilter_2_"
       filterUnits="userSpaceOnUse"
       x="6.875"
       y="6.855"
       width="143.58299"
       height="143.58299">
      <feColorMatrix
         type="matrix"
         values="1 0 0 0 0  0 1 0 0 0  0 0 1 0 0  0 0 0 1 0"
         id="feColorMatrix124" />
    </filter>
    <clipPath
       clipPathUnits="userSpaceOnUse"
       id="clipPath929">
      <circle
         id="circle931"
         cx="500.16663"
         cy="230.57529"
         r="297.41876"
         style="opacity:0.1;fill:#000000;fill-opacity:1;stroke-width:0.824781"
         transform="rotate(8.6500019)" />
    </clipPath>
    <filter
       height="18.5"
       width="100.467"
       y="140.91701"
       x="28.433001"
       filterUnits="userSpaceOnUse"
       id="Adobe_OpacityMaskFilter-8">
      <feColorMatrix
         id="feColorMatrix1054"
         values="1 0 0 0 0  0 1 0 0 0  0 0 1 0 0  0 0 0 1 0"
         type="matrix" />
    </filter>
    <filter
       height="143.58299"
       width="143.584"
       y="6.8540001"
       x="6.875"
       filterUnits="userSpaceOnUse"
       id="Adobe_OpacityMaskFilter_1_-3">
      <feColorMatrix
         id="feColorMatrix1085"
         values="1 0 0 0 0  0 1 0 0 0  0 0 1 0 0  0 0 0 1 0"
         type="matrix" />
    </filter>
    <radialGradient
       gradientUnits="userSpaceOnUse"
       r="105.3331"
       cy="64.3955"
       cx="55.167"
       id="circle129_4_"
       gradientTransform="translate(-3.75,-3.7290039)">
      <stop
         id="stop41"
         style="stop-color:#FFFFFF;stop-opacity:0.51"
         offset="0" />
      <stop
         id="stop43"
         style="stop-color:#FFFFFF;stop-opacity:0"
         offset="0.7152" />
    </radialGradient>
    <mask
       id="XMLID_2_"
       height="143.583"
       width="143.584"
       y="6.854"
       x="6.875"
       maskUnits="userSpaceOnUse">
      <g
         style="filter:url(#Adobe_OpacityMaskFilter_1_-6)"
         filter="url(#Adobe_OpacityMaskFilter_1_)"
         id="g118">
        <linearGradient
           gradientTransform="matrix(1,0,0,-1,-41.6602,65.04)"
           y2="-88.0681"
           x2="119.7705"
           y1="59.4468"
           x1="119.7705"
           gradientUnits="userSpaceOnUse"
           id="rect125_1_">
          <stop
             id="stop52"
             style="stop-color:#FFFFFF"
             offset="0" />
          <stop
             id="stop54"
             style="stop-color:#000000"
             offset="1" />
        </linearGradient>
        <rect
           height="155.254"
           width="207.005"
           stroke-width="2"
           stroke="#ffffff"
           fill="url(#rect125_1_)"
           y="-1.179"
           x="-25.392"
           id="rect125" />
      </g>
    </mask>
    <filter
       height="143.58299"
       width="143.584"
       y="6.8540001"
       x="6.875"
       filterUnits="userSpaceOnUse"
       id="Adobe_OpacityMaskFilter_1_-6">
      <feColorMatrix
         id="feColorMatrix47"
         values="1 0 0 0 0  0 1 0 0 0  0 0 1 0 0  0 0 0 1 0"
         type="matrix" />
    </filter>
    <linearGradient
       gradientTransform="matrix(1,0,0,-1,-41.6602,65.04)"
       y2="-88.0681"
       x2="119.7705"
       y1="59.4468"
       x1="119.7705"
       gradientUnits="userSpaceOnUse"
       id="linearGradient99">
      <stop
         id="stop95"
         style="stop-color:#FFFFFF"
         offset="0" />
      <stop
         id="stop97"
         style="stop-color:#000000"
         offset="1" />
    </linearGradient>
    <radialGradient
       gradientUnits="userSpaceOnUse"
       r="105.3331"
       cy="64.3955"
       cx="55.167"
       id="circle129_4_-8"
       gradientTransform="matrix(1.1758215,0,0,1.1758215,-117.21585,321.80424)">
      <stop
         id="stop41-4"
         style="stop-color:#FFFFFF;stop-opacity:0.51"
         offset="0" />
      <stop
         id="stop43-0"
         style="stop-color:#FFFFFF;stop-opacity:0"
         offset="0.7152" />
    </radialGradient>
    <radialGradient
       gradientUnits="userSpaceOnUse"
       r="74.917"
       cy="80.3955"
       cx="78.167"
       id="circle129_3_"
       gradientTransform="translate(-2.973,-3.7290039)">
      <stop
         id="stop35"
         style="stop-color:#000000;stop-opacity:0"
         offset="0.802" />
      <stop
         id="stop37"
         style="stop-color:#000000;stop-opacity:0.65"
         offset="1" />
    </radialGradient>
    <mask
       id="XMLID_13_"
       height="18.5"
       width="100.467"
       y="140.917"
       x="28.433"
       maskUnits="userSpaceOnUse">
      <g
         style="filter:url(#Adobe_OpacityMaskFilter-4)"
         filter="url(#Adobe_OpacityMaskFilter)"
         id="g52">
        <radialGradient
           gradientUnits="userSpaceOnUse"
           gradientTransform="matrix(2.0644,0,0,-0.3801,5.6478,35.9605)"
           r="24.3347"
           cy="-300.4639"
           cx="35.370098"
           id="ellipse59_1_">
          <stop
             id="stop21"
             style="stop-color:#FFFFFF"
             offset="0" />
          <stop
             id="stop23"
             style="stop-color:#000000"
             offset="1" />
        </radialGradient>
        <ellipse
           ry="9.25"
           rx="50.233002"
           cy="150.16701"
           cx="78.667"
           fill="url(#ellipse59_1_)"
           id="ellipse59" />
      </g>
    </mask>
    <filter
       height="18.5"
       width="100.467"
       y="140.91701"
       x="28.433001"
       filterUnits="userSpaceOnUse"
       id="Adobe_OpacityMaskFilter-4">
      <feColorMatrix
         id="feColorMatrix16"
         values="1 0 0 0 0  0 1 0 0 0  0 0 1 0 0  0 0 0 1 0"
         type="matrix" />
    </filter>
    <radialGradient
       gradientUnits="userSpaceOnUse"
       gradientTransform="matrix(2.0644,0,0,-0.3801,5.6478,35.9605)"
       r="24.3347"
       cy="-300.4639"
       cx="35.370098"
       id="radialGradient119">
      <stop
         id="stop115"
         style="stop-color:#FFFFFF"
         offset="0" />
      <stop
         id="stop117"
         style="stop-color:#000000"
         offset="1" />
    </radialGradient>
    <radialGradient
       inkscape:collect="always"
       xlink:href="#circle129_3_"
       id="radialGradient1388"
       gradientUnits="userSpaceOnUse"
       gradientTransform="matrix(1.1758215,0,0,1.1758215,-117.21585,321.80424)"
       cx="78.167"
       cy="80.3955"
       r="74.917" />
  </defs>
  <sodipodi:namedview
     fit-margin-bottom="0"
     fit-margin-right="0"
     fit-margin-left="0"
     fit-margin-top="0"
     inkscape:window-maximized="1"
     inkscape:window-y="-4"
     inkscape:window-x="-4"
     inkscape:window-height="977"
     inkscape:window-width="1280"
     inkscape:snap-text-baseline="false"
     showgrid="false"
     inkscape:document-rotation="0"
     inkscape:current-layer="g1414"
     inkscape:document-units="mm"
     inkscape:cy="630.60772"
     inkscape:cx="-23.336634"
     inkscape:zoom="0.36929362"
     inkscape:pageshadow="2"
     inkscape:pageopacity="0.0"
     borderopacity="1.0"
     bordercolor="#666666"
     pagecolor="#ffffff"
     id="base" />
  <metadata
     id="metadata5">
    <rdf:RDF>
      <cc:Work
         rdf:about="">
        <dc:format>image/svg+xml</dc:format>
        <dc:type
           rdf:resource="http://purl.org/dc/dcmitype/StillImage" />
        <dc:title></dc:title>
      </cc:Work>
    </rdf:RDF>
  </metadata>
  <text
     id="text203"
     y="344.95865"
     x="-38.945831"
     style="font-style:normal;font-weight:normal;font-size:32.7998px;line-height:0;font-family:sans-serif;letter-spacing:-2.50186px;display:none;fill:#000000;fill-opacity:1;stroke:none;stroke-width:0.170832"
     xml:space="preserve"
     transform="scale(0.932541,1.0723389)"
     inkscape:label="WPLEB text"><tspan
       style="font-style:normal;font-variant:normal;font-weight:normal;font-stretch:normal;font-size:32.7998px;line-height:1;font-family:'Linux Libertine';-inkscape-font-specification:'Linux Libertine';font-variant-ligatures:normal;font-variant-caps:all-small-caps;font-variant-numeric:normal;font-variant-east-asian:normal;text-align:center;letter-spacing:0px;text-anchor:middle;stroke-width:0.170832"
       y="-19.635994"
       x="-17.096977"
       id="tspan199"
       sodipodi:role="line"><tspan
         style="font-style:normal;font-variant:normal;font-weight:normal;font-stretch:normal;font-size:30.792px;line-height:1;font-family:'Linux Libertine';-inkscape-font-specification:'Linux Libertine';font-variant-ligatures:normal;font-variant-caps:normal;font-variant-numeric:normal;font-variant-east-asian:normal;text-align:center;letter-spacing:0px;text-anchor:middle;stroke-width:0.170832"
         id="tspan191">W</tspan><tspan
         id="tspan193"
         style="font-style:normal;font-variant:normal;font-weight:normal;font-stretch:normal;font-size:35.582px;line-height:1;font-family:'Linux Libertine';-inkscape-font-specification:'Linux Libertine';font-variant-ligatures:normal;font-variant-caps:all-small-caps;font-variant-numeric:normal;font-variant-east-asian:normal;letter-spacing:0px;stroke-width:0.170832">iki</tspan><tspan
         style="font-style:normal;font-variant:normal;font-weight:normal;font-stretch:normal;font-size:30.792px;line-height:1;font-family:'Linux Libertine';-inkscape-font-specification:'Linux Libertine';font-variant-ligatures:normal;font-variant-caps:normal;font-variant-numeric:normal;font-variant-east-asian:normal;text-align:center;letter-spacing:0px;text-anchor:middle;stroke-width:0.170832"
         id="tspan195">P</tspan><tspan
         id="tspan197"
         style="font-style:normal;font-variant:normal;font-weight:normal;font-stretch:normal;font-size:35.582px;line-height:1;font-family:'Linux Libertine';-inkscape-font-specification:'Linux Libertine';font-variant-ligatures:normal;font-variant-caps:all-small-caps;font-variant-numeric:normal;font-variant-east-asian:normal;letter-spacing:0px;stroke-width:0.170832">roject</tspan></tspan><tspan
       style="font-style:normal;font-variant:normal;font-weight:600;font-stretch:normal;font-size:40.5694px;line-height:1;font-family:'Linux Libertine';-inkscape-font-specification:'Linux Libertine Semi-Bold';font-variant-ligatures:normal;font-variant-caps:normal;font-variant-numeric:normal;font-variant-east-asian:normal;text-align:center;letter-spacing:0.926042px;text-anchor:middle;stroke-width:0.170832"
       y="-19.635994"
       x="-17.096977"
       sodipodi:role="line"
       id="tspan201">LEBANON</tspan></text>
  <g
     transform="translate(-15.943633,-21.056441)"
     id="layer1"
     inkscape:label="Layer 1"
     style="display:inline">
    <g
       id="g1414"
       inkscape:label="Lebanon"
       transform="translate(128.75479,-304.97815)">
      <line
         id="line42-5"
         fill="none"
         stroke="#000000"
         stroke-width="2.35164"
         x1="-112.81116"
         y1="588.87207"
         x2="63.562038"
         y2="588.87207"
         style="display:inline" />
      <line
         id="line44-1"
         fill="none"
         stroke="#000000"
         stroke-width="2.35164"
         x1="-112.81116"
         y1="515.97125"
         x2="63.562038"
         y2="515.97125"
         style="display:inline" />
      <ellipse
         transform="matrix(1.1758216,0,0,1.1758216,-117.21585,321.80428)"
         id="ellipse61-3"
         opacity="0.82"
         mask="url(#XMLID_13_)"
         enable-background="new    "
         cx="78.667"
         cy="150.16701"
         rx="50.233002"
         ry="9.25"
         style="display:inline" />
      <g
         inkscape:label="LEB"
         style="display:inline;opacity:1"
         clip-path="url(#clipPath929)"
         id="g1530"
         transform="matrix(0.29280948,-0.04454468,0.04454468,0.29280948,-172.75721,345.83218)">
        <path
           id="path1524"
           d="M 0,0 H 900 V 600 H 0 Z"
           fill="#ed1c24" />
        <path
           id="path1526"
           d="M 0,150 H 900 V 450 H 0 Z"
           fill="#ffffff" />
        <path
           id="path1528"
           fill="#00a651"
           d="m 445.907,150 c -6.44,13.56 -18.566,23.037 -30.157,32.006 -1.907,1.665 -6.648,4.89 -3.209,7.345 2.947,-3.293 11.034,1.068 6.334,4.61 -4.21,3.94 -10.007,5.383 -14.682,8.635 -4.14,2.25 -8.34,4.598 -11.623,8.041 -0.223,5.38 6.674,2.402 9.473,4.643 3.645,3.896 -1.545,10.466 -6.329,8.963 -6.116,0.188 -10.34,5.57 -12.654,10.704 -4.784,7.398 -13.85,9.59 -21.069,13.8 -4.13,2.407 -8.137,5.071 -11.981,7.88 -4.957,3.39 -0.645,10.1 4.63,8.453 5.693,-0.568 10.815,-5.041 16.71,-3.752 5.345,1.878 6.845,8.864 5.024,13.742 -1.35,3.905 -4.62,6.656 -7.239,9.706 -4.253,4.309 -9.815,7.106 -15.68,8.44 -5.667,1.903 -10.762,5.375 -14.48,10.063 -4.314,4.344 -8.612,8.758 -13.572,12.38 -1.567,3.998 2.855,7.403 6.54,7.297 7.768,-0.49 13.15,-6.846 19.765,-10.113 5.49,-2.467 11.95,3.45 10.607,9.168 -0.425,5.564 -5.634,8.387 -10.265,10.099 -13.615,6.844 -25.437,16.77 -35.933,27.72 -2.171,4.429 -8.14,3.125 -11.353,6.212 -2.093,3.906 3.16,5.966 6.295,5.565 13.47,-1.62 26.04,-7.314 37.947,-13.578 4.428,-2.117 8.586,-4.903 13.19,-6.59 4.324,-1.069 10.354,0.81 11.127,5.732 -0.006,5.196 -5.153,8.073 -9.229,10.103 -12.57,6.604 -26.365,10.255 -39.8,14.621 -5.03,-1.406 -8.82,7.543 -3.302,9.152 5.834,2 12.037,0.396 18.005,0.134 18.455,-2.827 34.595,-12.813 51.845,-19.268 7.172,-2.338 15.637,0.924 19.176,7.644 3.556,5.99 3.23,13.867 -0.52,19.687 -5.928,12.682 -14.94,24.338 -27.038,31.63 -7.594,3.76 -16.458,5.198 -22.967,10.954 -6.02,1.984 3.018,10.118 4.324,3.662 3.617,-4.933 9.997,-6.408 15.783,-6.612 8.697,-0.946 17.933,-2.55 24.69,-8.57 6.058,-4.705 12.028,-11.195 20.254,-11.296 4.546,0.539 9.043,4.192 13.66,1.963 4.04,-1.85 10.377,-0.766 11.432,4.201 1.929,5.811 7.918,8.455 12.668,11.564 1.719,2.414 7.431,8.64 8.748,3.151 -1.063,-3.915 0.456,-9.906 5.592,-8.598 4.486,0.2 8.761,1.855 13.239,2.126 5.962,1.235 10.936,5.317 14.322,10.246 2.329,3.217 7.431,8.743 11.222,4.478 2.352,-4.411 -2.138,-8.09 -5.794,-9.665 -5.33,-3.303 -9.887,-7.702 -14.548,-11.867 -6.87,-6.416 -12.802,-14.576 -13.893,-24.16 -1.478,-9.555 -0.7,-19.302 0.547,-28.832 1.57,-6.135 9.416,-9.485 14.902,-6.225 7.719,3.522 15.385,8.562 24.235,8.016 12.788,0.275 25.929,-2.173 38.426,1.532 12.162,3.831 20.857,14.094 32.703,18.535 2.652,1.612 6.045,0.078 7.017,-2.755 1.174,-2.545 0.345,-5.801 -2.107,-7.252 -13.73,-13.859 -32.493,-20.591 -48.379,-31.42 -5.001,-1.27 -5.912,-9.317 -1.288,-11.64 6.078,-4.417 14.679,-2.36 20.071,2.194 4.554,2.667 9.685,4.666 15.028,4.67 5.473,-1.713 2.82,-9.632 -2.08,-10.228 -8.88,-5.013 -15.239,-13.24 -22.931,-19.76 -4.43,-3.75 -9.277,-7.547 -15.23,-8.274 -3.253,-0.593 -6.58,-0.722 -9.877,-0.501 -3.092,-3.36 1.028,-8.505 5.026,-8.084 4.102,0.276 8.18,0.581 12.277,0.01 4.579,-0.335 9.153,-0.809 13.747,-0.84 3.709,2.525 11.12,-1.837 7.773,-6.192 -3.657,-3.204 -8.944,-2.926 -13.313,-4.57 a 205.294,205.294 0 0 0 -23.398,-6.15 c -5.533,-0.33 -4.85,-7.612 0.013,-8.416 3.183,-1.187 5.95,1.258 9.005,1.637 5.218,1.122 10.605,1.107 15.82,2.244 4.423,-2.183 1.004,-8.643 -2.996,-9.02 -9.438,-3.375 -17.595,-9.466 -25.57,-15.392 -8.804,-6.621 -16.791,-14.278 -25.703,-20.747 -3.234,-2.003 -8.534,-2.58 -9.384,-7.021 -0.3,-4.086 4.508,-5.946 7.917,-4.991 4.837,1.428 9.343,3.915 14.273,5.136 3.867,0.658 7.855,1.802 11.582,1.315 4.732,-2.974 -2.03,-4.874 -4.477,-5.905 -6.308,-3.403 -11.914,-7.936 -17.592,-12.26 -4.798,-4.095 4.07,-5.904 7.12,-4.327 5.1,2.133 5.681,-5.298 1.869,-7.168 -4.492,-1.91 -8.354,-5.08 -12.427,-7.846 -7.36,-5.238 -15.694,-9.385 -24.74,-10.537 -10.143,-1.019 -19.61,-6.851 -24.991,-15.525 -3.337,-4.943 -5.786,-10.41 -8.153,-15.862 z M 412.6,206.901 c 5.227,0.155 4.423,9.577 -0.723,8.948 -4.998,-0.322 -4.692,-9.96 0.723,-8.948 z m 49.308,5.074 c 5.087,-0.91 6.164,8.372 1.082,8.808 -5.296,0.948 -7.258,-9.396 -1.082,-8.808 z m -14.442,1.21 c 5.157,1.014 4.24,9.998 -0.965,10.076 -3.808,0.848 -7.912,3.447 -11.764,1.5 -3.133,-3.314 1.395,-8.213 4.892,-9.29 2.682,-0.541 5.15,-1.759 7.837,-2.286 z m 33.238,0.039 c 4.97,1.812 3.217,10.585 -2.025,10.473 -4.957,0.665 -7.266,-7.605 -2.643,-9.566 1.496,-0.53 3.064,-0.977 4.668,-0.907 z m -56.07,9.951 c 3.655,3.478 1.496,10.19 -3.01,11.794 -3.247,1.806 -7.675,6.08 -11.212,2.563 -1.92,-4.295 2.898,-7.529 5.732,-9.913 2.529,-1.966 5.32,-3.751 8.49,-4.444 z m 41.734,19.397 c 5.232,2.47 2.576,11.899 -3.166,11.313 -4.716,-1.195 -4.1,-9.284 0.65,-9.929 0.898,-0.344 1.721,-0.85 2.516,-1.384 z m -16.601,0.936 c 4.893,2.291 1.157,10.457 -3.772,9.28 -5.11,-0.6 -5.016,-9.584 0.62,-8.773 1.062,-0.052 2.158,-0.08 3.152,-0.507 z m 35.786,4.684 c 5.363,-1.664 11.82,3.86 10.08,9.464 -2.39,4.344 -8.3,4.893 -12.535,3.27 -4.861,-0.24 -8.131,-7.549 -3.8,-10.644 1.792,-1.353 4.051,-1.91 6.255,-2.09 z m -79.219,1.405 c 4.435,-2.413 9.143,4.838 5.372,8.036 -2.498,3.673 -8.913,5.173 -11.741,1.09 -2.35,-3.99 1.45,-10.691 6.37,-9.126 z m -20.46,3.434 c 5.03,0.688 8.308,5.257 10.168,9.608 0.453,5.301 -7.37,8.21 -10.782,4.353 -3.838,-2.407 -7.197,-7.358 -5.185,-11.953 1.24,-1.825 3.709,-2.578 5.8,-2.008 z m 122.404,19.162 c 5.46,-1.438 9.423,7.286 4.735,10.442 -4.286,3.893 -12.62,-1.264 -10.384,-6.819 1.11,-2.06 3.333,-3.428 5.65,-3.623 z m -69.485,9.952 c 4.578,0.583 3.095,8.517 -1.138,8.25 -4.542,-0.842 -3.502,-8.697 1.138,-8.25 z m -23.22,4.215 c 3.733,-2.642 8.549,3.806 5.443,6.81 -3.722,2.622 -8.55,-3.723 -5.443,-6.81 z m 36.92,0.78 c 4.327,2.63 6.896,7.533 7.434,12.48 -2.074,4.623 -10.084,3.509 -10.987,-1.414 -1.583,-3.893 -0.124,-8.9 3.552,-11.065 z m 12.884,7.65 c 5.577,-1.401 3.575,10.256 -1.081,6.213 -1.548,-1.838 -0.719,-4.862 1.08,-6.213 z m -80.918,8.117 c 3.693,-1.081 9.076,0.056 10.095,4.294 0.43,3.983 -3.95,6.055 -7.16,7.042 -5.143,1.588 -10.174,4.194 -15.706,3.844 -4.147,-2.37 -5.635,-7.22 -7.113,-11.45 4.001,-3.752 9.894,-2.651 14.854,-3.59 1.675,-0.086 3.353,-0.127 5.03,-0.14 z m 125.518,18.265 c 4.71,-2.31 9.777,5.168 5.834,8.66 -4.933,5.678 -14.43,6.733 -20.33,1.963 -0.708,-5.024 4.31,-8.674 8.77,-9.395 1.875,-0.53 3.739,-1.321 5.726,-1.228 z m 26.477,5.737 c 5.353,-0.921 9.569,6.714 5.746,10.666 -3.617,5.455 -12.244,6.885 -17.176,2.414 -1.923,-4.522 1.978,-9.234 6.13,-10.685 1.784,-0.76 3.474,-1.733 5.3,-2.395 z m -133.129,8.118 c 4.957,-0.49 9.498,4.428 8.848,9.315 3.588,3.531 -2.766,10.11 -6.341,6.453 -3.15,-3.817 -3.134,-8.995 -4.354,-13.564 -0.055,-1.015 0.697,-2.329 1.847,-2.204 z m 38.052,2.849 c 5.125,-2.216 11.755,3.915 8.965,9.105 -1.993,4.227 -9.763,2.81 -9.505,-2.086 -0.013,-2.343 -0.202,-4.745 0.54,-7.02 z m -18.512,3.317 c 5.138,-1.178 9.852,5.483 6.997,9.927 -5.123,0.456 -7.782,-5.624 -6.997,-9.927 z" />
      </g>
      <circle
         style="display:inline;fill:url(#radialGradient1388);stroke-width:1.17582"
         id="circle129_1_-7"
         fill="url(#circle129_3_)"
         cx="-24.717482"
         cy="414.27795"
         r="88.08902"
         inkscape:label="shadow" />
      <g
         aria-label="WikiProject LEBANON"
         transform="scale(0.93254099,1.0723389)"
         id="text128-4"
         style="font-style:normal;font-weight:normal;font-size:32.7998px;line-height:0;font-family:sans-serif;letter-spacing:-2.50186px;display:inline;fill:#000000;fill-opacity:1;stroke:none;stroke-width:0.170832"
         inkscape:label="WPLEB raster">
        <path
           id="path320"
           style="font-style:normal;font-variant:normal;font-weight:600;font-stretch:normal;font-size:40.5694px;line-height:1;font-family:'Linux Libertine';-inkscape-font-specification:'Linux Libertine Semi-Bold';font-variant-ligatures:normal;font-variant-caps:normal;font-variant-numeric:normal;font-variant-east-asian:normal;text-align:center;letter-spacing:0.926042px;text-anchor:middle;display:inline;stroke-width:0.170832"
           sodipodi:type="inkscape:offset"
           inkscape:radius="0"
           inkscape:original="M -41.076172 485.33398 C -41.467086 485.33398 -42.169273 485.36929 -43.181641 485.43945 C -44.183984 485.50962 -44.88982 485.54492 -45.300781 485.54492 C -46.303125 485.54492 -47.625687 485.52444 -49.269531 485.48438 C -49.369766 485.58461 -49.419922 485.75918 -49.419922 486.00977 C -49.419922 486.26035 -49.369766 486.42567 -49.269531 486.50586 C -48.116836 486.54595 -47.384945 486.71688 -47.074219 487.01758 C -46.753469 487.30826 -46.59375 488.06985 -46.59375 489.30273 L -46.59375 501.64648 C -46.59375 502.87936 -46.753469 503.64656 -47.074219 503.94727 C -47.384945 504.24799 -48.116836 504.41892 -49.269531 504.45898 C -49.369766 504.55922 -49.419922 504.73379 -49.419922 504.98438 C -49.419922 505.22494 -49.369766 505.38466 -49.269531 505.46484 C -47.425219 505.42478 -46.093406 505.40625 -45.271484 505.40625 C -44.369375 505.40625 -42.890742 505.42478 -40.835938 505.46484 C -40.735703 505.38466 -40.685547 505.22494 -40.685547 504.98438 C -40.685547 504.73379 -40.735703 504.55922 -40.835938 504.45898 C -42.149008 504.38882 -42.999711 504.20865 -43.390625 503.91797 C -43.781539 503.61726 -43.978516 502.85932 -43.978516 501.64648 L -43.978516 496.41406 C -43.337016 496.61453 -42.504813 496.71484 -41.482422 496.71484 C -40.149305 496.71484 -38.986461 496.51982 -37.994141 496.12891 C -36.991797 495.72797 -36.230203 495.20595 -35.708984 494.56445 C -35.187766 493.91293 -34.806969 493.248 -34.566406 492.56641 C -34.31582 491.87479 -34.189453 491.167 -34.189453 490.44531 C -34.189453 489.90405 -34.289766 489.37278 -34.490234 488.85156 C -34.68068 488.33034 -35.01132 487.78983 -35.482422 487.22852 C -35.953523 486.65718 -36.670562 486.20017 -37.632812 485.85938 C -38.595062 485.50856 -39.743055 485.33398 -41.076172 485.33398 z M -120.74023 485.48438 C -120.82042 485.58461 -120.86133 485.75918 -120.86133 486.00977 C -120.86133 486.26035 -120.82042 486.42567 -120.74023 486.50586 C -120.01855 486.54595 -119.54304 486.65187 -119.3125 486.82227 C -119.07194 486.99266 -118.81556 487.47937 -118.54492 488.28125 L -112.75781 504.93945 C -112.57739 505.50077 -112.35071 505.78125 -112.08008 505.78125 C -111.79942 505.77122 -111.53379 505.49074 -111.2832 504.93945 L -106.69727 494.625 C -106.46673 494.11381 -106.29216 493.85937 -106.17188 493.85938 C -106.08166 493.85937 -105.93679 494.14351 -105.73633 494.71484 L -102.20312 504.93945 C -102.01268 505.50074 -101.77675 505.77562 -101.49609 505.76562 C -101.20541 505.76562 -100.96948 505.49999 -100.78906 504.96875 L -94.595703 488.37109 C -94.365164 487.77971 -94.064227 487.3339 -93.693359 487.0332 C -93.312469 486.72245 -92.731047 486.54593 -91.949219 486.50586 C -91.848984 486.41565 -91.798828 486.25033 -91.798828 486.00977 C -91.798828 485.75918 -91.848984 485.58461 -91.949219 485.48438 C -93.142007 485.52444 -94.033617 485.54492 -94.625 485.54492 C -95.236429 485.54492 -96.363968 485.52444 -98.007812 485.48438 C -98.088 485.58461 -98.128906 485.75918 -98.128906 486.00977 C -98.128906 486.26035 -98.088 486.42567 -98.007812 486.50586 C -97.787297 486.52593 -97.612727 486.54078 -97.482422 486.55078 C -97.342094 486.56078 -97.176773 486.58126 -96.986328 486.61133 C -96.785859 486.64143 -96.635391 486.67673 -96.535156 486.7168 C -96.434922 486.75689 -96.323406 486.81265 -96.203125 486.88281 C -96.07282 486.95297 -95.987359 487.04208 -95.947266 487.15234 C -95.907172 487.25258 -95.888672 487.37894 -95.888672 487.5293 C -95.888672 487.66962 -95.918376 487.82935 -95.978516 488.00977 L -100.78906 501.37695 L -100.89453 501.3457 L -105.11914 488.33984 C -105.28953 488.01909 -105.33969 487.74981 -105.26953 487.5293 C -105.18932 487.29876 -105.12991 487.12784 -105.08984 487.01758 C -105.04974 486.8973 -104.91973 486.79698 -104.69922 486.7168 C -104.46868 486.63663 -104.28655 486.58647 -104.15625 486.56641 C -104.02594 486.54641 -103.81607 486.52593 -103.52539 486.50586 C -103.42516 486.41565 -103.375 486.25033 -103.375 486.00977 C -103.375 485.75918 -103.42516 485.58461 -103.52539 485.48438 C -105.20933 485.52444 -106.49294 485.54492 -107.375 485.54492 C -108.11673 485.54492 -109.14396 485.52444 -110.45703 485.48438 C -110.53722 485.58461 -110.57617 485.75918 -110.57617 486.00977 C -110.57617 486.26035 -110.53722 486.42567 -110.45703 486.50586 C -109.14396 486.57602 -108.28205 487.18714 -107.87109 488.33984 L -107.16406 490.38477 C -107.01371 490.83582 -106.93945 491.15161 -106.93945 491.33203 C -106.94947 491.64276 -107.04418 492.00506 -107.22461 492.41602 L -111.20898 501.43555 L -111.34375 501.40625 L -115.83984 487.79883 C -116.00022 487.29765 -115.94445 486.96701 -115.67383 486.80664 C -115.39317 486.64624 -114.93811 486.54593 -114.30664 486.50586 C -114.1964 486.41565 -114.14625 486.25033 -114.15625 486.00977 C -114.15625 485.75918 -114.2064 485.58461 -114.30664 485.48438 C -115.6598 485.52444 -116.84675 485.54492 -117.86914 485.54492 C -118.59083 485.54492 -119.54745 485.52444 -120.74023 485.48438 z M -41.300781 486.37109 C -40.027805 486.37109 -39.000578 486.69613 -38.21875 487.34766 C -37.436922 487.99918 -37.046875 489.21778 -37.046875 491.00195 C -37.046875 492.61573 -37.43132 493.79902 -38.203125 494.55078 C -38.964906 495.30253 -40.10925 495.67773 -41.632812 495.67773 C -42.825601 495.67773 -43.607648 495.62758 -43.978516 495.52734 L -43.978516 488.33984 C -43.978516 487.02677 -43.084953 486.37109 -41.300781 486.37109 z M -4.8515625 488.67383 C -7.3418392 488.67383 -9.4279329 489.50188 -11.107422 491.1582 C -12.775329 492.80294 -13.609375 494.91706 -13.609375 497.5 C -13.609375 499.89761 -12.803353 501.8737 -11.193359 503.42578 C -9.5833666 504.97786 -7.5692182 505.75391 -5.1484375 505.75391 C -2.3454283 505.75391 -0.14932751 504.91386 1.4375 503.23438 C 3.0243275 501.55488 3.8164062 499.49277 3.8164062 497.04883 C 3.8164063 494.58172 2.9723216 492.57161 1.28125 491.01953 C -0.40982167 489.45586 -2.4539472 488.67383 -4.8515625 488.67383 z M 42.734375 488.67383 C 40.359925 488.67383 38.379796 489.49588 36.792969 491.14062 C 35.206141 492.77378 34.412109 494.87187 34.412109 497.43164 C 34.412109 500.11883 35.230123 502.22095 36.863281 503.73828 C 38.334282 505.08187 40.34843 505.75391 42.908203 505.75391 C 44.263377 505.75391 45.417407 505.49192 46.367188 504.9707 C 47.316967 504.44948 48.219054 503.62143 49.076172 502.48633 C 49.018259 502.3705 48.920242 502.23846 48.78125 502.08789 C 48.642258 501.92574 48.504227 501.81977 48.365234 501.77344 C 47.531282 502.74638 46.731254 503.43041 45.966797 503.82422 C 45.20234 504.21803 44.2403 504.41602 43.082031 504.41602 C 41.425708 504.41602 40.083593 503.66799 39.052734 502.17383 C 38.021876 500.67966 37.505859 498.98354 37.505859 497.08398 C 37.505859 492.26559 39.31798 489.85547 42.943359 489.85547 C 44.344864 489.85547 45.468917 490.20948 46.314453 490.91602 C 47.159988 491.62256 47.686043 492.61862 47.894531 493.9043 C 48.288343 494.02013 48.642346 493.98415 48.955078 493.79883 C 48.943495 492.02668 48.803511 490.51056 48.537109 489.24805 C 48.201211 489.24805 47.415129 489.15603 46.175781 488.9707 C 44.948017 488.7738 43.799982 488.67383 42.734375 488.67383 z M 52.099609 488.67383 C 52.076444 490.60814 51.996414 492.19021 51.857422 493.41797 C 52.158572 493.5106 52.476603 493.54462 52.8125 493.52148 C 53.194729 492.16631 53.582751 491.28626 53.976562 490.88086 C 54.370374 490.46389 55.122438 490.25586 56.234375 490.25586 L 57.085938 490.25586 C 57.653489 490.25586 58.047507 490.3879 58.267578 490.6543 C 58.499231 490.90912 58.615234 491.37912 58.615234 492.0625 L 58.615234 501.0625 C 58.615234 502.48717 58.469254 503.36123 58.179688 503.68555 C 57.89012 504.00986 57.178071 504.21788 56.042969 504.31055 C 55.927141 504.42637 55.869141 504.63036 55.869141 504.91992 C 55.869141 505.1979 55.927141 505.38195 56.042969 505.47461 C 57.803536 505.42828 59.135613 505.40625 60.039062 505.40625 C 60.907764 505.40625 62.223807 505.42828 63.984375 505.47461 C 64.077036 505.38195 64.123047 505.1979 64.123047 504.91992 C 64.123047 504.63036 64.077036 504.42637 63.984375 504.31055 C 62.849272 504.22947 62.13527 504.02744 61.845703 503.70312 C 61.567718 503.36723 61.429688 502.48717 61.429688 501.0625 L 61.429688 492.09766 C 61.429688 491.43744 61.5337 490.96744 61.742188 490.68945 C 61.962259 490.39989 62.356277 490.25586 62.923828 490.25586 L 63.84375 490.25586 C 64.932523 490.25586 65.674549 490.46988 66.068359 490.89844 C 66.473753 491.31541 66.867771 492.18947 67.25 493.52148 C 67.666977 493.59098 67.991003 493.55696 68.222656 493.41797 C 68.095247 492.15546 67.99723 490.57339 67.927734 488.67383 C 66.016592 488.91707 63.850468 489.03906 61.429688 489.03906 L 58.615234 489.03906 C 55.626902 489.02748 53.454783 488.90548 52.099609 488.67383 z M -23.773438 488.90039 C -24.063004 488.90039 -24.705061 488.92437 -25.701172 488.9707 C -26.697283 489.01704 -27.387303 489.03906 -27.769531 489.03906 C -28.499241 489.03906 -29.813331 489.01704 -31.712891 488.9707 C -31.805552 489.06336 -31.851562 489.2534 -31.851562 489.54297 C -31.851562 489.82096 -31.805552 490.01894 -31.712891 490.13477 C -30.577787 490.21585 -29.871734 490.42387 -29.59375 490.75977 C -29.304183 491.08408 -29.158203 491.95815 -29.158203 493.38281 L -29.158203 501.0625 C -29.158203 502.48717 -29.304183 503.36123 -29.59375 503.68555 C -29.871734 504.00986 -30.577787 504.21788 -31.712891 504.31055 C -31.805552 504.42637 -31.851562 504.63036 -31.851562 504.91992 C -31.851563 505.1979 -31.805552 505.38195 -31.712891 505.47461 C -29.917575 505.42828 -28.591494 505.40625 -27.734375 505.40625 C -26.969918 505.40625 -25.827878 505.42828 -24.310547 505.47461 C -24.217885 505.38195 -24.171875 505.1979 -24.171875 504.91992 C -24.171875 504.63036 -24.217885 504.42637 -24.310547 504.31055 C -25.19083 504.25263 -25.752857 504.0566 -25.996094 503.7207 C -26.227747 503.37322 -26.34375 502.48717 -26.34375 501.0625 L -26.34375 497.96875 L -24.380859 497.96875 C -23.9523 497.96875 -23.588259 498.10274 -23.287109 498.36914 C -22.974377 498.62396 -22.742372 498.90198 -22.591797 499.20312 C -22.42964 499.49269 -22.255636 499.90874 -22.070312 500.45312 L -21.289062 502.5918 C -20.524606 504.63034 -19.336555 505.64844 -17.726562 505.64844 C -16.892609 505.64844 -16.144588 505.5684 -15.484375 505.40625 C -15.391714 505.0356 -15.461705 504.70558 -15.693359 504.41602 C -16.411485 504.41602 -16.955526 504.29402 -17.326172 504.05078 C -17.685235 503.79597 -18.033243 503.22794 -18.369141 502.34766 L -19.394531 499.67188 C -19.753595 498.76843 -20.193623 498.04439 -20.714844 497.5 L -20.714844 497.43164 C -19.985134 497.17682 -19.30111 496.6668 -18.664062 495.90234 C -18.015432 495.13788 -17.691406 494.19982 -17.691406 493.08789 C -17.691406 491.61688 -18.177445 490.55083 -19.150391 489.89062 C -20.123336 489.23041 -21.665389 488.90039 -23.773438 488.90039 z M 30.330078 488.90039 C 29.901519 488.99305 29.41548 489.03906 28.871094 489.03906 L 21.503906 489.03906 C 20.577292 489.03906 19.263201 489.01704 17.560547 488.9707 C 17.467886 489.06336 17.421875 489.2534 17.421875 489.54297 C 17.421875 489.82096 17.467886 490.01894 17.560547 490.13477 C 18.69565 490.21585 19.401703 490.42387 19.679688 490.75977 C 19.969254 491.08408 20.113281 491.95815 20.113281 493.38281 L 20.113281 501.0625 C 20.113281 502.48717 19.969254 503.36123 19.679688 503.68555 C 19.401703 504.00986 18.69565 504.21788 17.560547 504.31055 C 17.467886 504.42637 17.421875 504.63036 17.421875 504.91992 C 17.421875 505.1979 17.467886 505.38195 17.560547 505.47461 C 19.263201 505.42828 20.589282 505.40625 21.539062 505.40625 L 27.029297 505.40625 C 27.979077 505.40625 29.235166 505.42828 30.798828 505.47461 C 31.169474 504.1426 31.523477 502.50448 31.859375 500.55859 C 31.53506 500.37327 31.205039 500.32726 30.869141 500.41992 C 30.533243 501.63611 30.029217 502.5902 29.357422 503.28516 C 28.685627 503.96854 27.67158 504.31055 26.316406 504.31055 L 24.787109 504.31055 C 24.045817 504.31055 23.547787 504.19455 23.292969 503.96289 C 23.049732 503.73124 22.929688 503.32118 22.929688 502.73047 L 22.929688 497.39648 L 24.960938 497.39648 C 25.528489 497.39648 25.974513 497.4305 26.298828 497.5 C 26.634726 497.56949 26.878722 497.70948 27.029297 497.91797 C 27.191456 498.11488 27.289472 498.31091 27.324219 498.50781 C 27.358965 498.69314 27.388943 498.98914 27.412109 499.39453 C 27.504771 499.48719 27.67278 499.5332 27.916016 499.5332 C 28.159252 499.5332 28.325307 499.48719 28.417969 499.39453 C 28.360055 498.29417 28.332031 497.42416 28.332031 496.78711 C 28.343611 496.28906 28.371635 495.45096 28.417969 494.26953 C 28.313725 494.17687 28.141674 494.12891 27.898438 494.12891 C 27.666784 494.12891 27.504771 494.17687 27.412109 494.26953 C 27.365779 495.12665 27.213803 495.67669 26.958984 495.91992 C 26.715748 496.15158 26.04971 496.26758 24.960938 496.26758 L 22.929688 496.26758 L 22.929688 491.21094 C 22.929688 490.8982 23.033699 490.65421 23.242188 490.48047 C 23.462258 490.30673 23.740274 490.2207 24.076172 490.2207 L 26.089844 490.2207 C 27.016458 490.2207 27.752489 490.36473 28.296875 490.6543 C 28.852844 490.93228 29.228876 491.2623 29.425781 491.64453 C 29.622687 492.01518 29.854692 492.60718 30.121094 493.41797 C 30.445409 493.44114 30.765393 493.38313 31.078125 493.24414 C 30.811724 490.98552 30.595751 489.57146 30.433594 489.00391 C 30.433594 488.93441 30.399575 488.90039 30.330078 488.90039 z M -90.068359 488.9707 C -90.161021 489.06336 -90.208984 489.2534 -90.208984 489.54297 C -90.208984 489.82096 -90.161021 490.01894 -90.068359 490.13477 C -88.933257 490.21585 -88.221208 490.42387 -87.931641 490.75977 C -87.642074 491.08408 -87.498047 491.95815 -87.498047 493.38281 L -87.498047 501.0625 C -87.498047 502.48717 -87.642074 503.36123 -87.931641 503.68555 C -88.221208 504.00986 -88.933257 504.21788 -90.068359 504.31055 C -90.161021 504.42637 -90.208984 504.63036 -90.208984 504.91992 C -90.208984 505.1979 -90.161021 505.38195 -90.068359 505.47461 C -88.319374 505.42828 -86.993292 505.40625 -86.089844 505.40625 C -85.105316 505.40625 -83.78523 505.42828 -82.128906 505.47461 C -82.01308 505.38195 -81.955078 505.1979 -81.955078 504.91992 C -81.955078 504.63036 -82.01308 504.42637 -82.128906 504.31055 C -83.26401 504.22947 -83.976058 504.02744 -84.265625 503.70312 C -84.555192 503.36723 -84.701172 502.48717 -84.701172 501.0625 L -84.701172 493.38281 C -84.701172 491.95815 -84.555192 491.08408 -84.265625 490.75977 C -83.976058 490.43545 -83.26401 490.22743 -82.128906 490.13477 C -82.01308 490.01894 -81.955078 489.82096 -81.955078 489.54297 C -81.955078 489.2534 -82.01308 489.06336 -82.128906 488.9707 C -83.935805 489.01704 -85.267881 489.03906 -86.125 489.03906 C -86.901039 489.03906 -88.21513 489.01704 -90.068359 488.9707 z M -79.158203 488.9707 C -79.250864 489.06336 -79.296875 489.2534 -79.296875 489.54297 C -79.296875 489.82096 -79.250864 490.01894 -79.158203 490.13477 C -78.0231 490.23901 -77.317047 490.45303 -77.039062 490.77734 C -76.749496 491.09008 -76.603516 491.95815 -76.603516 493.38281 L -76.603516 501.0625 C -76.603516 502.48717 -76.749496 503.36123 -77.039062 503.68555 C -77.317047 504.00986 -78.0231 504.21788 -79.158203 504.31055 C -79.250864 504.42637 -79.296875 504.63036 -79.296875 504.91992 C -79.296875 505.1979 -79.250864 505.38195 -79.158203 505.47461 C -77.362887 505.42828 -76.036805 505.40625 -75.179688 505.40625 C -74.461561 505.40625 -73.321475 505.42828 -71.757812 505.47461 C -71.665151 505.38195 -71.617188 505.1979 -71.617188 504.91992 C -71.617188 504.63036 -71.665151 504.42637 -71.757812 504.31055 C -72.661262 504.2063 -73.227331 503.99828 -73.458984 503.68555 C -73.679056 503.36123 -73.789062 502.48717 -73.789062 501.0625 L -73.789062 497.76172 C -72.769786 497.76172 -72.035709 498.05577 -71.583984 498.64648 L -67.638672 503.56445 C -67.279609 503.95827 -67.101562 504.42632 -67.101562 504.9707 L -67.101562 505.47461 C -66.580342 505.42828 -65.844311 505.40625 -64.894531 505.40625 C -64.222735 505.40625 -63.306705 505.42828 -62.148438 505.47461 C -62.055776 505.38195 -62.009766 505.1979 -62.009766 504.91992 C -62.009766 504.63036 -62.055776 504.42637 -62.148438 504.31055 C -63.167713 504.18313 -63.927726 503.83708 -64.425781 503.26953 L -69.689453 497.08398 C -69.909524 496.81758 -70.019531 496.6136 -70.019531 496.47461 C -70.019531 496.16188 -69.747511 495.72185 -69.203125 495.1543 L -66.144531 491.62891 C -65.356909 490.72545 -64.082834 490.22743 -62.322266 490.13477 C -62.206439 490.01894 -62.148437 489.82096 -62.148438 489.54297 C -62.148437 489.2534 -62.206439 489.06336 -62.322266 488.9707 C -63.781684 489.01704 -64.84174 489.03906 -65.501953 489.03906 C -66.254828 489.03906 -67.33287 489.01704 -68.734375 488.9707 C -68.850202 489.06336 -68.908203 489.2534 -68.908203 489.54297 C -68.908203 489.82096 -68.850202 490.01894 -68.734375 490.13477 C -68.132076 490.1811 -67.778073 490.33112 -67.673828 490.58594 C -67.500088 491.04924 -68.29412 492.27731 -70.054688 494.26953 C -71.409861 495.78686 -72.653959 496.54492 -73.789062 496.54492 L -73.789062 493.38281 C -73.789062 491.95815 -73.679056 491.08408 -73.458984 490.75977 C -73.227331 490.43545 -72.661262 490.22743 -71.757812 490.13477 C -71.665151 490.01894 -71.617188 489.82096 -71.617188 489.54297 C -71.617188 489.2534 -71.665151 489.06336 -71.757812 488.9707 C -73.275144 489.01704 -74.41523 489.03906 -75.179688 489.03906 C -75.978892 489.03906 -77.304974 489.01704 -79.158203 488.9707 z M -59.283203 488.9707 C -59.375864 489.06336 -59.421875 489.2534 -59.421875 489.54297 C -59.421875 489.82096 -59.375864 490.01894 -59.283203 490.13477 C -58.1481 490.21585 -57.434099 490.42387 -57.144531 490.75977 C -56.854965 491.08408 -56.710938 491.95815 -56.710938 493.38281 L -56.710938 501.0625 C -56.710938 502.48717 -56.854965 503.36123 -57.144531 503.68555 C -57.434099 504.00986 -58.1481 504.21788 -59.283203 504.31055 C -59.375864 504.42637 -59.421875 504.63036 -59.421875 504.91992 C -59.421875 505.1979 -59.375864 505.38195 -59.283203 505.47461 C -57.534218 505.42828 -56.208137 505.40625 -55.304688 505.40625 C -54.32016 505.40625 -52.998121 505.42828 -51.341797 505.47461 C -51.22597 505.38195 -51.167969 505.1979 -51.167969 504.91992 C -51.167969 504.63036 -51.22597 504.42637 -51.341797 504.31055 C -52.4769 504.22947 -53.188949 504.02744 -53.478516 503.70312 C -53.768083 503.36723 -53.914063 502.48717 -53.914062 501.0625 L -53.914062 493.38281 C -53.914063 491.95815 -53.768083 491.08408 -53.478516 490.75977 C -53.188949 490.43545 -52.4769 490.22743 -51.341797 490.13477 C -51.22597 490.01894 -51.167969 489.82096 -51.167969 489.54297 C -51.167969 489.2534 -51.22597 489.06336 -51.341797 488.9707 C -53.148696 489.01704 -54.480772 489.03906 -55.337891 489.03906 C -56.11393 489.03906 -57.429974 489.01704 -59.283203 488.9707 z M 6.9277344 488.9707 C 6.8350729 489.06336 6.7890625 489.2534 6.7890625 489.54297 C 6.7890625 489.82096 6.8350729 490.01894 6.9277344 490.13477 C 8.0975853 490.21585 8.8436536 490.42986 9.1679688 490.77734 C 9.5038665 491.11324 9.671875 491.98131 9.671875 493.38281 L 9.671875 502.73047 C 9.671875 507.66469 8.9018249 510.13086 7.3613281 510.13086 C 7.037013 510.14245 6.7309733 509.94641 6.4414062 509.54102 C 5.9896817 508.93872 5.4216595 508.63672 4.7382812 508.63672 C 4.4718796 508.63672 4.1938639 508.75272 3.9042969 508.98438 C 3.6031471 509.22761 3.453125 509.51762 3.453125 509.85352 C 3.453125 510.37474 3.695168 510.79678 4.1816406 511.12109 C 4.6681133 511.45699 5.1381192 511.625 5.5898438 511.625 C 7.0840098 511.63658 8.3400989 511.21454 9.359375 510.35742 C 11.444258 508.68952 12.486328 505.89737 12.486328 501.98242 L 12.486328 493.38281 C 12.486328 491.95815 12.626312 491.08408 12.904297 490.75977 C 13.193864 490.43545 13.905912 490.22743 15.041016 490.13477 C 15.145257 490.01894 15.191267 489.82096 15.179688 489.54297 C 15.179687 489.2534 15.133677 489.06336 15.041016 488.9707 C 13.338361 489.01704 12.01228 489.03906 11.0625 489.03906 C 10.159051 489.03906 8.7809636 489.01704 6.9277344 488.9707 z M -5.1816406 489.85547 C -3.5484824 489.85547 -2.1584043 490.56152 -1.0117188 491.97461 C 0.14654952 493.37612 0.72460938 495.2302 0.72460938 497.53516 C 0.72460938 499.70112 0.23857033 501.42122 -0.734375 502.69531 C -1.7073203 503.95783 -2.9993821 504.58984 -4.609375 504.58984 C -6.3467774 504.58984 -7.7648796 503.88184 -8.8652344 502.46875 C -9.965589 501.05566 -10.515625 499.26153 -10.515625 497.08398 C -10.515625 494.8022 -9.9895708 493.03009 -8.9355469 491.76758 C -7.8815228 490.49348 -6.629476 489.85547 -5.1816406 489.85547 z M -23.998047 490.06445 C -22.781866 490.06445 -21.941823 490.29646 -21.478516 490.75977 C -21.015208 491.22307 -20.785156 491.99912 -20.785156 493.08789 C -20.785156 494.53572 -21.067214 495.54377 -21.634766 496.11133 C -22.190734 496.66729 -23.240753 496.94531 -24.78125 496.94531 L -26.34375 496.94531 L -26.34375 492.30469 C -26.34375 491.35491 -26.205718 490.74687 -25.927734 490.48047 C -25.638167 490.20249 -24.994158 490.06445 -23.998047 490.06445 z M -34.357422 518.19531 C -35.136587 518.20852 -35.705933 518.6309 -36.0625 519.46289 L -45.115234 541.21484 C -45.432183 541.9676 -45.84824 542.54764 -46.363281 542.95703 C -46.878322 543.35322 -47.365908 543.55078 -47.828125 543.55078 C -48.369578 543.56399 -48.640625 543.70268 -48.640625 543.9668 L -48.640625 544.81836 L -48.324219 544.9375 L -44.857422 544.85938 C -44.210319 544.85938 -42.644872 544.8847 -40.162109 544.9375 L -39.964844 544.7793 L -39.964844 543.9668 C -39.964844 543.68947 -40.24854 543.55078 -40.816406 543.55078 C -41.925726 543.55078 -42.604551 543.39312 -42.855469 543.07617 C -43.09318 542.74601 -43.046952 542.28373 -42.716797 541.68945 L -40.400391 535.6875 C -40.294741 535.44982 -40.168706 535.29849 -40.023438 535.23242 C -39.87817 535.15319 -39.588148 535.11328 -39.152344 535.11328 L -31.683594 535.11328 L -29.167969 541.92773 C -29.115142 542.00697 -29.089844 542.19821 -29.089844 542.50195 C -29.089844 543.20188 -29.426094 543.55078 -30.099609 543.55078 L -31.189453 543.55078 C -31.902587 543.56399 -32.257812 543.70268 -32.257812 543.9668 L -32.257812 544.74023 L -31.921875 544.9375 L -26.078125 544.85938 C -25.061249 544.85938 -23.252009 544.8847 -20.650391 544.9375 L -20.451172 544.7793 L -20.451172 543.9668 C -20.451172 543.7819 -20.478423 543.67046 -20.53125 543.63086 C -20.570869 543.57806 -20.743132 543.55078 -21.046875 543.55078 L -22.195312 543.55078 C -22.670735 543.55078 -23.074142 543.36587 -23.404297 542.99609 C -23.721245 542.61311 -24.030242 542.02042 -24.333984 541.21484 L -32.535156 519.46289 C -32.852104 518.61769 -33.459401 518.19531 -34.357422 518.19531 z M 25.060547 518.19531 C 21.257166 518.19531 18.099018 519.54226 15.589844 522.23633 C 13.093874 524.93039 11.847656 528.27782 11.847656 532.2793 C 11.847656 536.20154 13.108478 539.3514 15.630859 541.72852 C 18.153241 544.10563 21.309434 545.29492 25.099609 545.29492 C 29.167115 545.29492 32.415765 544.02778 34.845703 541.49219 C 37.275641 538.94339 38.490234 535.62758 38.490234 531.54688 C 38.490234 527.62464 37.176859 524.42221 34.548828 521.93945 C 31.934003 519.44348 28.771486 518.19531 25.060547 518.19531 z M -120.25586 518.65039 L -120.33594 518.73047 L -120.33594 519.70117 C -120.33594 519.92568 -120.21623 520.03711 -119.97852 520.03711 L -119.4043 520.03711 C -118.61192 520.03711 -118.04453 520.1758 -117.70117 520.45312 C -117.34461 520.71725 -117.16602 521.17321 -117.16602 521.82031 L -117.16602 541.98633 C -117.16602 542.60701 -117.25215 543.0294 -117.42383 543.25391 C -117.5823 543.47841 -117.9059 543.5918 -118.39453 543.5918 L -119.68164 543.5918 C -120.11744 543.5918 -120.33594 543.75578 -120.33594 544.08594 L -120.33594 544.89844 L -120.17773 544.97852 L -115.34375 544.89844 L -101.4375 544.89844 C -101.37147 543.08919 -101.04154 540.75246 -100.44727 537.88672 L -102.03125 537.54883 C -102.9821 541.20694 -104.75776 543.03711 -107.35938 543.03711 L -110.84766 543.03711 C -111.75888 543.03711 -112.21289 542.41521 -112.21289 541.17383 L -112.21289 521.82031 C -112.2261 520.63176 -111.50104 520.03711 -110.03516 520.03711 L -109.41992 520.03711 C -109.23504 520.0239 -109.14258 519.91247 -109.14258 519.70117 L -109.14258 518.73047 L -109.22266 518.65039 L -114.68945 518.73047 C -115.74595 518.73047 -117.60142 518.70319 -120.25586 518.65039 z M -73.792969 518.65039 L -73.873047 518.73047 L -73.873047 519.62109 C -73.873047 519.89843 -73.681807 520.03711 -73.298828 520.03711 L -71.970703 520.03711 C -71.482074 520.03711 -71.158475 520.16315 -71 520.41406 C -70.82832 520.65178 -70.742188 521.08048 -70.742188 521.70117 L -70.742188 541.88672 C -70.742188 542.54703 -70.834645 542.99034 -71.019531 543.21484 C -71.191211 543.43935 -71.508486 543.55078 -71.970703 543.55078 L -73.140625 543.55078 C -73.629254 543.55078 -73.873047 543.71672 -73.873047 544.04688 L -73.873047 544.85938 L -73.833984 544.89844 L -62.34375 544.89844 C -58.50075 544.89844 -55.70806 544.21766 -53.964844 542.85742 C -52.221627 541.49719 -51.349609 539.80133 -51.349609 537.76758 C -51.362815 533.89816 -53.396873 531.4208 -57.451172 530.33789 L -57.451172 530.25977 C -56.341852 529.77114 -55.41728 529.02515 -54.677734 528.02148 C -53.924982 527.01781 -53.548828 526.00078 -53.548828 524.9707 C -53.548828 520.75793 -56.77655 518.65039 -63.234375 518.65039 C -63.987127 518.65039 -64.964252 518.66501 -66.166016 518.69141 C -67.367778 518.71781 -68.141014 518.73047 -68.484375 518.73047 C -69.303158 518.73047 -71.072494 518.70319 -73.792969 518.65039 z M -97.421875 518.69141 L -97.539062 518.76953 L -97.539062 519.70117 C -97.525856 519.92568 -97.414424 520.03711 -97.203125 520.03711 L -96.648438 520.03711 C -95.829654 520.03711 -95.255936 520.1758 -94.925781 520.45312 C -94.582421 520.71725 -94.410156 521.17321 -94.410156 521.82031 L -94.410156 541.76953 C -94.410156 542.41664 -94.582421 542.87892 -94.925781 543.15625 C -95.269142 543.42038 -95.84286 543.55078 -96.648438 543.55078 L -97.203125 543.55078 C -97.42763 543.56399 -97.539062 543.69002 -97.539062 543.92773 L -97.539062 544.81836 L -97.421875 544.89844 L -77.611328 544.89844 C -77.320791 542.65338 -76.957288 540.36921 -76.521484 538.04492 L -78.265625 537.62891 C -78.648604 539.22686 -79.209673 540.52758 -79.949219 541.53125 C -80.688765 542.53492 -81.586083 543.03711 -82.642578 543.03711 L -88.863281 543.03711 C -89.233055 543.0239 -89.417969 542.62682 -89.417969 541.84766 L -89.417969 531.78516 L -84.841797 531.78516 C -84.59088 531.78516 -84.38699 531.85036 -84.228516 531.98242 C -84.070042 532.10128 -83.937681 532.32609 -83.832031 532.65625 C -83.713177 532.9732 -83.63337 533.25689 -83.59375 533.50781 C -83.554132 533.74552 -83.495253 534.13628 -83.416016 534.67773 C -83.416016 534.94186 -83.197523 535.07227 -82.761719 535.07227 L -81.910156 535.07227 L -81.671875 534.7168 C -81.856762 533.11885 -81.949219 531.85803 -81.949219 530.93359 C -81.949219 529.94313 -81.856762 528.68863 -81.671875 527.16992 L -81.910156 526.77344 L -82.761719 526.77344 C -82.959811 526.77344 -83.119426 526.81966 -83.238281 526.91211 C -83.357137 527.00455 -83.416016 527.10334 -83.416016 527.20898 C -83.495251 527.75044 -83.55413 528.13925 -83.59375 528.37695 C -83.633369 528.60146 -83.713175 528.88516 -83.832031 529.22852 C -83.937681 529.55867 -84.076366 529.78348 -84.248047 529.90234 C -84.406521 530.0212 -84.604086 530.08203 -84.841797 530.08203 L -89.417969 530.08203 L -89.417969 521.74219 C -89.431175 520.94982 -89.246261 520.55273 -88.863281 520.55273 L -83.574219 520.55273 C -81.632909 520.55273 -80.199823 522.24422 -79.275391 525.625 L -77.650391 525.26758 C -78.059783 523.181 -78.345432 520.98928 -78.503906 518.69141 L -97.421875 518.69141 z M -18.416016 518.69141 L -18.535156 518.81055 L -18.535156 519.58203 C -18.535156 519.88578 -18.26411 520.03711 -17.722656 520.03711 C -17.313264 520.03711 -16.92446 520.15682 -16.554688 520.39453 C -16.171708 520.63224 -15.881687 520.87603 -15.683594 521.12695 C -15.485501 521.36466 -15.22078 521.71551 -14.890625 522.17773 L -14.890625 541.80859 C -14.890625 542.99715 -15.741714 543.5918 -17.445312 543.5918 L -18 543.5918 C -18.224505 543.605 -18.337891 543.72909 -18.337891 543.9668 L -18.337891 544.89844 L -18.257812 544.97852 L -13.662109 544.89844 C -12.72447 544.89844 -11.266084 544.92572 -9.2851562 544.97852 L -9.2050781 544.89844 L -9.2050781 543.9668 C -9.2050781 543.71588 -9.3101854 543.5918 -9.5214844 543.5918 L -10.097656 543.5918 C -11.589956 543.5918 -12.335938 542.99715 -12.335938 541.80859 L -12.335938 525.82227 L 1.8671875 544.28516 C 2.4350535 545.0247 3.0696035 545.39453 3.7695312 545.39453 C 4.7996137 545.39453 5.3144531 544.89234 5.3144531 543.88867 L 5.3144531 521.82031 C 5.3144531 520.63176 6.0604354 520.03711 7.5527344 520.03711 L 8.1269531 520.03711 C 8.3382521 520.0239 8.4453125 519.91247 8.4453125 519.70117 L 8.4453125 518.73047 L 8.3652344 518.69141 L 4.0273438 518.73047 C 2.9708489 518.73047 1.5251129 518.71781 -0.31054688 518.69141 L -0.390625 518.73047 L -0.390625 519.70117 C -0.390625 519.92568 -0.27091446 520.03711 -0.033203125 520.03711 L 0.54101562 520.03711 C 1.3201806 520.03711 1.8749235 520.1758 2.2050781 520.45312 C 2.548439 520.71725 2.7207031 521.17321 2.7207031 521.82031 L 2.7207031 538.08398 L -12.533203 518.69141 L -18.416016 518.69141 z M 41.912109 518.69141 L 41.792969 518.81055 L 41.792969 519.58203 C 41.792969 519.88578 42.064015 520.03711 42.605469 520.03711 C 43.014861 520.03711 43.403665 520.15682 43.773438 520.39453 C 44.156417 520.63224 44.448391 520.87603 44.646484 521.12695 C 44.844577 521.36466 45.107345 521.71551 45.4375 522.17773 L 45.4375 541.80859 C 45.4375 542.99715 44.58641 543.5918 42.882812 543.5918 L 42.328125 543.5918 C 42.10362 543.605 41.992188 543.72909 41.992188 543.9668 L 41.992188 544.89844 L 42.070312 544.97852 L 46.666016 544.89844 C 47.603655 544.89844 49.063995 544.92572 51.044922 544.97852 L 51.123047 544.89844 L 51.123047 543.9668 C 51.123047 543.71588 51.017939 543.5918 50.806641 543.5918 L 50.232422 543.5918 C 48.740123 543.5918 47.994141 542.99715 47.994141 541.80859 L 47.994141 525.82227 L 62.197266 544.28516 C 62.765132 545.0247 63.399682 545.39453 64.099609 545.39453 C 65.129692 545.39453 65.644531 544.89234 65.644531 543.88867 L 65.644531 521.82031 C 65.644531 520.63176 66.390514 520.03711 67.882812 520.03711 L 68.457031 520.03711 C 68.668331 520.0239 68.773438 519.91247 68.773438 519.70117 L 68.773438 518.73047 L 68.695312 518.69141 L 64.355469 518.73047 C 63.298974 518.73047 61.853238 518.71781 60.017578 518.69141 L 59.939453 518.73047 L 59.939453 519.70117 C 59.939453 519.92568 60.057211 520.03711 60.294922 520.03711 L 60.869141 520.03711 C 61.648305 520.03711 62.203048 520.1758 62.533203 520.45312 C 62.876564 520.71725 63.048828 521.17321 63.048828 521.82031 L 63.048828 538.08398 L 47.794922 518.69141 L 41.912109 518.69141 z M 24.583984 519.85938 C 27.013922 519.85938 29.04798 520.94989 30.685547 523.12891 C 32.323114 525.30793 33.142578 528.37166 33.142578 532.32031 C 33.142578 535.78033 32.4618 538.53312 31.101562 540.58008 C 29.754532 542.62704 28.025099 543.65039 25.912109 543.65039 C 23.429347 543.65039 21.34906 542.56816 19.671875 540.40234 C 17.99469 538.23653 17.15625 535.29687 17.15625 531.58594 C 17.15625 527.74294 17.908558 524.8325 19.414062 522.85156 C 20.919568 520.85743 22.642675 519.85938 24.583984 519.85938 z M -62.957031 520.35547 C -62.415577 520.35547 -61.907063 520.41434 -61.431641 520.5332 C -60.956218 520.65206 -60.481282 520.87055 -60.005859 521.1875 C -59.517231 521.49125 -59.134752 521.97883 -58.857422 522.65234 C -58.566886 523.31265 -58.421875 524.11947 -58.421875 525.07031 C -58.421875 526.60223 -58.890486 527.74966 -59.828125 528.51562 C -60.752558 529.26838 -61.988079 529.64453 -63.533203 529.64453 L -65.791016 529.64453 L -65.791016 522.09766 C -65.791016 521.45056 -65.625076 521.00092 -65.294922 520.75 C -64.951561 520.48587 -64.172 520.35547 -62.957031 520.35547 z M -35.744141 524.03906 L -32.376953 533.21094 L -38.458984 533.21094 C -38.815551 533.21094 -39.034044 533.17739 -39.113281 533.11133 C -39.192519 533.04529 -39.230469 532.92121 -39.230469 532.73633 L -35.744141 524.03906 z M -65.791016 531.34961 L -62.917969 531.34961 C -60.884216 531.34961 -59.306119 531.89607 -58.183594 532.99219 C -57.061068 534.0883 -56.5 535.52771 -56.5 537.31055 C -56.5 537.98406 -56.605107 538.63954 -56.816406 539.27344 C -57.014499 539.90733 -57.338099 540.54626 -57.787109 541.19336 C -58.23612 541.82726 -58.923224 542.33577 -59.847656 542.71875 C -60.758883 543.08852 -61.849393 543.27344 -63.117188 543.27344 C -64.25292 543.27344 -64.984298 543.14108 -65.314453 542.87695 C -65.631401 542.59963 -65.791016 542.13929 -65.791016 541.49219 L -65.791016 531.34961 z "
           d="m -41.076172,485.33398 c -0.390914,0 -1.093101,0.0353 -2.105469,0.10547 -1.002343,0.0702 -1.708179,0.10547 -2.11914,0.10547 -1.002344,0 -2.324906,-0.0205 -3.96875,-0.0605 -0.100235,0.10023 -0.150391,0.2748 -0.150391,0.52539 0,0.25058 0.05016,0.4159 0.150391,0.49609 1.152695,0.0401 1.884586,0.21102 2.195312,0.51172 0.32075,0.29068 0.480469,1.05227 0.480469,2.28515 v 12.34375 c 0,1.23288 -0.159719,2.00008 -0.480469,2.30079 -0.310726,0.30072 -1.042617,0.47165 -2.195312,0.51171 -0.100235,0.10024 -0.150391,0.27481 -0.150391,0.5254 0,0.24056 0.05016,0.40028 0.150391,0.48046 1.844312,-0.0401 3.176125,-0.0586 3.998047,-0.0586 0.902109,0 2.380742,0.0185 4.435546,0.0586 0.100235,-0.0802 0.150391,-0.2399 0.150391,-0.48046 0,-0.25059 -0.05016,-0.42516 -0.150391,-0.5254 -1.31307,-0.0702 -2.163773,-0.25033 -2.554687,-0.54101 -0.390914,-0.30071 -0.587891,-1.05865 -0.587891,-2.27149 v -5.23242 c 0.6415,0.20047 1.473703,0.30078 2.496094,0.30078 1.333117,0 2.495961,-0.19502 3.488281,-0.58593 1.002344,-0.40094 1.763938,-0.92296 2.285157,-1.56446 0.521218,-0.65152 0.902015,-1.31645 1.142578,-1.99804 0.250586,-0.69162 0.376953,-1.39941 0.376953,-2.1211 0,-0.54126 -0.100313,-1.07253 -0.300781,-1.59375 -0.190446,-0.52122 -0.521086,-1.06173 -0.992188,-1.62304 -0.471101,-0.57134 -1.18814,-1.02835 -2.15039,-1.36914 -0.96225,-0.35082 -2.110243,-0.5254 -3.44336,-0.5254 z m -79.664058,0.1504 c -0.0802,0.10023 -0.1211,0.2748 -0.1211,0.52539 0,0.25058 0.0409,0.4159 0.1211,0.49609 0.72168,0.0401 1.19719,0.14601 1.42773,0.31641 0.24056,0.17039 0.49694,0.6571 0.76758,1.45898 l 5.78711,16.6582 c 0.18042,0.56132 0.4071,0.8418 0.67773,0.8418 0.28066,-0.01 0.54629,-0.29051 0.79688,-0.8418 l 4.58593,-10.31445 c 0.23054,-0.51119 0.40511,-0.76563 0.52539,-0.76562 0.0902,-10e-6 0.23509,0.28413 0.43555,0.85546 l 3.53321,10.22461 c 0.19044,0.56129 0.42637,0.83617 0.70703,0.82617 0.29068,0 0.52661,-0.26563 0.70703,-0.79687 l 6.193357,-16.59766 c 0.230539,-0.59138 0.531476,-1.03719 0.902344,-1.33789 0.38089,-0.31075 0.962312,-0.48727 1.74414,-0.52734 0.100235,-0.0902 0.150391,-0.25553 0.150391,-0.49609 0,-0.25059 -0.05016,-0.42516 -0.150391,-0.52539 -1.192788,0.0401 -2.084398,0.0605 -2.675781,0.0605 -0.611429,0 -1.738968,-0.0205 -3.382812,-0.0605 -0.08019,0.10023 -0.121094,0.2748 -0.121094,0.52539 0,0.25058 0.04091,0.4159 0.121094,0.49609 0.220515,0.0201 0.395085,0.0349 0.52539,0.0449 0.140328,0.01 0.305649,0.0305 0.496094,0.0606 0.200469,0.0301 0.350937,0.0654 0.451172,0.10547 0.100234,0.0401 0.21175,0.0959 0.332031,0.16601 0.130305,0.0702 0.215766,0.15927 0.255859,0.26953 0.04009,0.10024 0.05859,0.2266 0.05859,0.37696 0,0.14032 -0.0297,0.30005 -0.08984,0.48047 l -4.810544,13.36718 -0.10547,-0.0312 -4.22461,-13.00586 c -0.17039,-0.32075 -0.22055,-0.59003 -0.15039,-0.81054 0.0802,-0.23054 0.13962,-0.40146 0.17969,-0.51172 0.0401,-0.12028 0.17011,-0.2206 0.39062,-0.30078 0.23054,-0.0802 0.41267,-0.13033 0.54297,-0.15039 0.13031,-0.02 0.34018,-0.0405 0.63086,-0.0606 0.10023,-0.0902 0.15039,-0.25553 0.15039,-0.49609 0,-0.25059 -0.0502,-0.42516 -0.15039,-0.52539 -1.68394,0.0401 -2.96755,0.0605 -3.84961,0.0605 -0.74173,0 -1.76896,-0.0205 -3.08203,-0.0605 -0.0802,0.10023 -0.11914,0.2748 -0.11914,0.52539 0,0.25058 0.0389,0.4159 0.11914,0.49609 1.31307,0.0702 2.17498,0.68128 2.58594,1.83398 l 0.70703,2.04493 c 0.15035,0.45105 0.22461,0.76684 0.22461,0.94726 -0.01,0.31073 -0.10473,0.67303 -0.28516,1.08399 l -3.98437,9.01953 -0.13477,-0.0293 -4.49609,-13.60742 c -0.16038,-0.50118 -0.10461,-0.83182 0.16601,-0.99219 0.28066,-0.1604 0.73572,-0.26071 1.36719,-0.30078 0.11024,-0.0902 0.16039,-0.25553 0.15039,-0.49609 0,-0.25059 -0.0502,-0.42516 -0.15039,-0.52539 -1.35316,0.0401 -2.54011,0.0605 -3.5625,0.0605 -0.72169,0 -1.67831,-0.0205 -2.87109,-0.0605 z m 79.439449,0.88671 c 1.272976,0 2.300203,0.32504 3.082031,0.97657 0.781828,0.65152 1.171875,1.87012 1.171875,3.65429 0,1.61378 -0.384445,2.79707 -1.15625,3.54883 -0.761781,0.75175 -1.906125,1.12695 -3.429687,1.12695 -1.192789,0 -1.974836,-0.0501 -2.345704,-0.15039 v -7.1875 c 0,-1.31307 0.893563,-1.96875 2.677735,-1.96875 z m 36.4492185,2.30274 c -2.4902767,0 -4.5763704,0.82805 -6.2558595,2.48437 -1.667907,1.64474 -2.501953,3.75886 -2.501953,6.3418 0,2.39761 0.806022,4.3737 2.416016,5.92578 1.6099924,1.55208 3.6241408,2.32813 6.0449215,2.32813 2.8030092,0 4.99910999,-0.84005 6.5859375,-2.51953 1.5868275,-1.6795 2.3789062,-3.74161 2.3789062,-6.18555 1e-7,-2.46711 -0.8440846,-4.47722 -2.5351562,-6.0293 -1.69107167,-1.56367 -3.7351972,-2.3457 -6.1328125,-2.3457 z m 47.5859375,0 c -2.37445,0 -4.354579,0.82205 -5.941406,2.46679 -1.586828,1.63316 -2.38086,3.73125 -2.38086,6.29102 0,2.68719 0.818014,4.78931 2.451172,6.30664 1.471001,1.34359 3.485149,2.01563 6.044922,2.01563 1.355174,0 2.509204,-0.26199 3.458985,-0.78321 0.949779,-0.52122 1.851866,-1.34927 2.708984,-2.48437 -0.05791,-0.11583 -0.15593,-0.24787 -0.294922,-0.39844 -0.138992,-0.16215 -0.277023,-0.26812 -0.416016,-0.31445 -0.833952,0.97294 -1.63398,1.65697 -2.398437,2.05078 -0.764457,0.39381 -1.726497,0.5918 -2.884766,0.5918 -1.656323,0 -2.998438,-0.74803 -4.029297,-2.24219 -1.030858,-1.49417 -1.546875,-3.19029 -1.546875,-5.08985 0,-4.81839 1.812121,-7.22851 5.4375,-7.22851 1.401505,0 2.525558,0.35401 3.371094,1.06055 0.845535,0.70654 1.37159,1.7026 1.580078,2.98828 0.393812,0.11583 0.747815,0.0799 1.060547,-0.10547 -0.01158,-1.77215 -0.151567,-3.28827 -0.417969,-4.55078 -0.335898,0 -1.12198,-0.092 -2.361328,-0.27735 -1.227764,-0.1969 -2.375799,-0.29687 -3.441406,-0.29687 z m 9.365234,0 c -0.02316,1.93431 -0.103195,3.51638 -0.242187,4.74414 0.30115,0.0926 0.619181,0.12665 0.955078,0.10351 0.382229,-1.35517 0.770251,-2.23522 1.164062,-2.64062 0.393812,-0.41697 1.145876,-0.625 2.257813,-0.625 h 0.851563 c 0.567551,0 0.961569,0.13204 1.18164,0.39844 0.231653,0.25482 0.347656,0.72482 0.347656,1.4082 v 9 c 0,1.42467 -0.14598,2.29873 -0.435546,2.62305 -0.289568,0.32431 -1.001617,0.53233 -2.136719,0.625 -0.115828,0.11582 -0.173828,0.31981 -0.173828,0.60937 0,0.27798 0.058,0.46203 0.173828,0.55469 1.760567,-0.0463 3.092644,-0.0684 3.996093,-0.0684 0.868702,0 2.184745,0.022 3.945313,0.0684 0.09266,-0.0927 0.138672,-0.27671 0.138672,-0.55469 0,-0.28956 -0.04601,-0.49355 -0.138672,-0.60937 -1.135103,-0.0811 -1.849105,-0.28311 -2.138672,-0.60743 -0.277985,-0.33589 -0.416015,-1.21595 -0.416015,-2.64062 v -8.96484 c 0,-0.66022 0.104012,-1.13022 0.3125,-1.40821 0.220071,-0.28956 0.614089,-0.43359 1.18164,-0.43359 h 0.919922 c 1.088773,0 1.830799,0.21402 2.224609,0.64258 0.405394,0.41697 0.799412,1.29103 1.181641,2.62304 0.416977,0.0695 0.741003,0.0355 0.972656,-0.10351 -0.127409,-1.26251 -0.225426,-2.84458 -0.294922,-4.74414 -1.911142,0.24324 -4.077266,0.36523 -6.498046,0.36523 h -2.814454 c -2.988332,-0.0116 -5.160451,-0.13358 -6.515625,-0.36523 z m -75.873047,0.22656 c -0.289566,0 -0.931623,0.024 -1.927734,0.0703 -0.996111,0.0463 -1.686131,0.0684 -2.068359,0.0684 -0.72971,0 -2.0438,-0.022 -3.94336,-0.0684 -0.09266,0.0927 -0.138671,0.2827 -0.138671,0.57227 0,0.27799 0.04601,0.47597 0.138671,0.5918 1.135104,0.0811 1.841157,0.2891 2.119141,0.625 0.289567,0.32431 0.435547,1.19838 0.435547,2.62304 v 7.67969 c 0,1.42467 -0.14598,2.29873 -0.435547,2.62305 -0.277984,0.32431 -0.984037,0.53233 -2.119141,0.625 -0.09266,0.11582 -0.138671,0.31981 -0.138671,0.60937 -10e-7,0.27798 0.04601,0.46203 0.138671,0.55469 1.795316,-0.0463 3.121397,-0.0684 3.978516,-0.0684 0.764457,0 1.906497,0.022 3.423828,0.0684 0.09266,-0.0927 0.138672,-0.27671 0.138672,-0.55469 0,-0.28956 -0.04601,-0.49355 -0.138672,-0.60937 -0.880283,-0.0579 -1.44231,-0.25395 -1.685547,-0.58985 -0.231653,-0.34748 -0.347656,-1.23353 -0.347656,-2.6582 v -3.09375 h 1.962891 c 0.428559,0 0.7926,0.13399 1.09375,0.40039 0.312732,0.25482 0.544737,0.53284 0.695312,0.83398 0.162157,0.28957 0.336161,0.70562 0.521485,1.25 l 0.78125,2.13868 c 0.764456,2.03854 1.952507,3.05664 3.5625,3.05664 0.833953,0 1.581974,-0.08 2.242187,-0.24219 0.09266,-0.37065 0.02267,-0.70067 -0.208984,-0.99023 -0.718126,0 -1.262167,-0.122 -1.632813,-0.36524 -0.359063,-0.25481 -0.707071,-0.82284 -1.042969,-1.70312 l -1.02539,-2.67578 c -0.359064,-0.90345 -0.799092,-1.62749 -1.320313,-2.17188 v -0.0684 c 0.72971,-0.25482 1.413734,-0.76484 2.050782,-1.5293 0.64863,-0.76446 0.972656,-1.70252 0.972656,-2.81445 0,-1.47101 -0.486039,-2.53706 -1.458985,-3.19727 -0.972945,-0.66021 -2.514998,-0.99023 -4.623047,-0.99023 z m 54.103516,0 c -0.428559,0.0927 -0.914598,0.13867 -1.458984,0.13867 h -7.367188 c -0.926614,0 -2.240705,-0.022 -3.943359,-0.0684 -0.09266,0.0927 -0.138672,0.2827 -0.138672,0.57227 0,0.27799 0.04601,0.47597 0.138672,0.5918 1.135103,0.0811 1.841156,0.2891 2.119141,0.625 0.289566,0.32431 0.433593,1.19838 0.433593,2.62304 v 7.67969 c 0,1.42467 -0.144027,2.29873 -0.433593,2.62305 -0.277985,0.32431 -0.984038,0.53233 -2.119141,0.625 -0.09266,0.11582 -0.138672,0.31981 -0.138672,0.60937 0,0.27798 0.04601,0.46203 0.138672,0.55469 1.702654,-0.0463 3.028735,-0.0684 3.978515,-0.0684 h 5.490235 c 0.94978,0 2.205869,0.022 3.769531,0.0684 0.370646,-1.33201 0.724649,-2.97013 1.060547,-4.91602 -0.324315,-0.18532 -0.654336,-0.23133 -0.990234,-0.13867 -0.335898,1.21619 -0.839924,2.17028 -1.511719,2.86524 -0.671795,0.68338 -1.685842,1.02539 -3.041016,1.02539 h -1.529297 c -0.741292,0 -1.239322,-0.116 -1.49414,-0.34766 -0.243237,-0.23165 -0.363281,-0.64171 -0.363281,-1.23242 v -5.33399 h 2.03125 c 0.567551,0 1.013575,0.034 1.33789,0.10352 0.335898,0.0695 0.579894,0.20948 0.730469,0.41797 0.162159,0.19691 0.260175,0.39294 0.294922,0.58984 0.03475,0.18533 0.06472,0.48133 0.08789,0.88672 0.09266,0.0927 0.260671,0.13867 0.503907,0.13867 0.243236,0 0.409291,-0.046 0.501953,-0.13867 -0.05791,-1.10036 -0.08594,-1.97037 -0.08594,-2.60742 0.01158,-0.49805 0.0396,-1.33615 0.08594,-2.51758 -0.104244,-0.0927 -0.276295,-0.14062 -0.519531,-0.14062 -0.231654,0 -0.393667,0.048 -0.486329,0.14062 -0.04633,0.85712 -0.198306,1.40716 -0.453125,1.65039 -0.243236,0.23166 -0.909274,0.34766 -1.998046,0.34766 h -2.03125 v -5.05664 c 0,-0.31274 0.104011,-0.55673 0.3125,-0.73047 0.22007,-0.17374 0.498086,-0.25977 0.833984,-0.25977 h 2.013672 c 0.926614,0 1.662645,0.14403 2.207031,0.4336 0.555969,0.27798 0.932001,0.608 1.128906,0.99023 0.196906,0.37065 0.428911,0.96265 0.695313,1.77344 0.324315,0.0232 0.644299,-0.0348 0.957031,-0.17383 -0.266401,-2.25862 -0.482374,-3.67268 -0.644531,-4.24023 0,-0.0695 -0.03402,-0.10352 -0.103516,-0.10352 z m -120.398437,0.0703 c -0.09266,0.0927 -0.140625,0.2827 -0.140625,0.57227 0,0.27799 0.04796,0.47597 0.140625,0.5918 1.135102,0.0811 1.847151,0.2891 2.136718,0.625 0.289567,0.32431 0.433594,1.19838 0.433594,2.62304 v 7.67969 c 0,1.42467 -0.144027,2.29873 -0.433594,2.62305 -0.289567,0.32431 -1.001616,0.53233 -2.136718,0.625 -0.09266,0.11582 -0.140625,0.31981 -0.140625,0.60937 0,0.27798 0.04796,0.46203 0.140625,0.55469 1.748985,-0.0463 3.075067,-0.0684 3.978515,-0.0684 0.984528,0 2.304614,0.022 3.960938,0.0684 0.115826,-0.0927 0.173828,-0.27671 0.173828,-0.55469 0,-0.28956 -0.058,-0.49355 -0.173828,-0.60937 -1.135104,-0.0811 -1.847152,-0.28311 -2.136719,-0.60743 -0.289567,-0.33589 -0.435547,-1.21595 -0.435547,-2.64062 v -7.67969 c 0,-1.42466 0.14598,-2.29873 0.435547,-2.62304 0.289567,-0.32432 1.001615,-0.53234 2.136719,-0.625 0.115826,-0.11583 0.173828,-0.31381 0.173828,-0.5918 0,-0.28957 -0.058,-0.47961 -0.173828,-0.57227 -1.806899,0.0463 -3.138975,0.0684 -3.996094,0.0684 -0.776039,0 -2.09013,-0.022 -3.943359,-0.0684 z m 10.910156,0 c -0.09266,0.0927 -0.138672,0.2827 -0.138672,0.57227 0,0.27799 0.04601,0.47597 0.138672,0.5918 1.135103,0.10424 1.841156,0.31826 2.119141,0.64257 0.289566,0.31274 0.435546,1.18081 0.435546,2.60547 v 7.67969 c 0,1.42467 -0.14598,2.29873 -0.435546,2.62305 -0.277985,0.32431 -0.984038,0.53233 -2.119141,0.625 -0.09266,0.11582 -0.138672,0.31981 -0.138672,0.60937 0,0.27798 0.04601,0.46203 0.138672,0.55469 1.795316,-0.0463 3.121398,-0.0684 3.978515,-0.0684 0.718127,0 1.858213,0.022 3.421876,0.0684 0.09266,-0.0927 0.140624,-0.27671 0.140624,-0.55469 0,-0.28956 -0.04796,-0.49355 -0.140624,-0.60937 -0.90345,-0.10425 -1.469519,-0.31227 -1.701172,-0.625 -0.220072,-0.32432 -0.330078,-1.19838 -0.330078,-2.62305 v -3.30078 c 1.019276,0 1.753353,0.29405 2.205078,0.88476 l 3.945312,4.91797 c 0.359063,0.39382 0.53711,0.86187 0.53711,1.40625 v 0.50391 c 0.52122,-0.0463 1.257251,-0.0684 2.207031,-0.0684 0.671796,0 1.587826,0.022 2.746093,0.0684 0.09266,-0.0927 0.138672,-0.27671 0.138672,-0.55469 0,-0.28956 -0.04601,-0.49355 -0.138672,-0.60937 -1.019275,-0.12742 -1.779288,-0.47347 -2.277343,-1.04102 l -5.263672,-6.18555 c -0.220071,-0.2664 -0.330078,-0.47038 -0.330078,-0.60937 0,-0.31273 0.27202,-0.75276 0.816406,-1.32031 l 3.058594,-3.52539 c 0.787622,-0.90346 2.061697,-1.40148 3.822265,-1.49414 0.115827,-0.11583 0.173829,-0.31381 0.173828,-0.5918 10e-7,-0.28957 -0.058,-0.47961 -0.173828,-0.57227 -1.459418,0.0463 -2.519474,0.0684 -3.179687,0.0684 -0.752875,0 -1.830917,-0.022 -3.232422,-0.0684 -0.115827,0.0927 -0.173828,0.2827 -0.173828,0.57227 0,0.27799 0.058,0.47597 0.173828,0.5918 0.602299,0.0463 0.956302,0.19635 1.060547,0.45117 0.17374,0.4633 -0.620292,1.69137 -2.38086,3.68359 -1.355173,1.51733 -2.599271,2.27539 -3.734374,2.27539 v -3.16211 c 0,-1.42466 0.110006,-2.29873 0.330078,-2.62304 0.231653,-0.32432 0.797722,-0.53234 1.701172,-0.625 0.09266,-0.11583 0.140624,-0.31381 0.140624,-0.5918 0,-0.28957 -0.04796,-0.47961 -0.140624,-0.57227 -1.517332,0.0463 -2.657418,0.0684 -3.421876,0.0684 -0.799204,0 -2.125286,-0.022 -3.978515,-0.0684 z m 19.875,0 c -0.09266,0.0927 -0.138672,0.2827 -0.138672,0.57227 0,0.27799 0.04601,0.47597 0.138672,0.5918 1.135103,0.0811 1.849104,0.2891 2.138672,0.625 0.289566,0.32431 0.433593,1.19838 0.433593,2.62304 v 7.67969 c 0,1.42467 -0.144027,2.29873 -0.433593,2.62305 -0.289568,0.32431 -1.003569,0.53233 -2.138672,0.625 -0.09266,0.11582 -0.138672,0.31981 -0.138672,0.60937 0,0.27798 0.04601,0.46203 0.138672,0.55469 1.748985,-0.0463 3.075066,-0.0684 3.978515,-0.0684 0.984528,0 2.306567,0.022 3.962891,0.0684 0.115827,-0.0927 0.173828,-0.27671 0.173828,-0.55469 0,-0.28956 -0.058,-0.49355 -0.173828,-0.60937 -1.135103,-0.0811 -1.847152,-0.28311 -2.136719,-0.60743 -0.289567,-0.33589 -0.435547,-1.21595 -0.435546,-2.64062 v -7.67969 c -10e-7,-1.42466 0.145979,-2.29873 0.435546,-2.62304 0.289567,-0.32432 1.001616,-0.53234 2.136719,-0.625 0.115827,-0.11583 0.173828,-0.31381 0.173828,-0.5918 0,-0.28957 -0.058,-0.47961 -0.173828,-0.57227 -1.806899,0.0463 -3.138975,0.0684 -3.996094,0.0684 -0.776039,0 -2.092083,-0.022 -3.945312,-0.0684 z m 66.2109374,0 c -0.092662,0.0927 -0.1386719,0.2827 -0.1386719,0.57227 0,0.27799 0.04601,0.47597 0.1386719,0.5918 1.1698509,0.0811 1.9159192,0.29509 2.2402344,0.64257 0.3358977,0.3359 0.5039062,1.20397 0.5039062,2.60547 v 9.34766 c 0,4.93422 -0.7700501,7.40039 -2.3105469,7.40039 -0.3243151,0.0116 -0.6303548,-0.18445 -0.9199219,-0.58984 -0.4517245,-0.6023 -1.0197467,-0.9043 -1.703125,-0.9043 -0.2664016,0 -0.5444173,0.116 -0.8339843,0.34766 -0.3011498,0.24323 -0.4511719,0.53324 -0.4511719,0.86914 0,0.52122 0.242043,0.94326 0.7285156,1.26757 0.4864727,0.3359 0.9564786,0.50391 1.4082032,0.50391 1.494166,0.0116 2.7502551,-0.41046 3.7695312,-1.26758 2.084883,-1.6679 3.126953,-4.46005 3.126953,-8.375 v -8.59961 c 0,-1.42466 0.139984,-2.29873 0.417969,-2.62304 0.289567,-0.32432 1.001615,-0.53234 2.136719,-0.625 0.104241,-0.11583 0.150251,-0.31381 0.138672,-0.5918 -1e-6,-0.28957 -0.04601,-0.47961 -0.138672,-0.57227 -1.702655,0.0463 -3.028736,0.0684 -3.978516,0.0684 -0.903449,0 -2.2815364,-0.022 -4.1347656,-0.0684 z m -12.109375,0.88477 c 1.6331582,0 3.0232363,0.70605 4.1699218,2.11914 1.15826832,1.40151 1.73632818,3.25559 1.73632818,5.56055 0,2.16596 -0.48603905,3.88606 -1.45898438,5.16015 -0.9729453,1.26252 -2.2650071,1.89453 -3.875,1.89453 -1.7374024,0 -3.1555046,-0.708 -4.2558594,-2.12109 -1.1003546,-1.41309 -1.6503906,-3.20722 -1.6503906,-5.38477 0,-2.28178 0.5260542,-4.05389 1.5800781,-5.3164 1.0540241,-1.2741 2.3060709,-1.91211 3.7539063,-1.91211 z m -18.8164064,0.20898 c 1.216181,0 2.056224,0.23201 2.519531,0.69532 0.463308,0.4633 0.69336,1.23935 0.69336,2.32812 0,1.44783 -0.282058,2.45588 -0.84961,3.02344 -0.555968,0.55596 -1.605987,0.83398 -3.146484,0.83398 h -1.5625 v -4.64062 c 0,-0.94978 0.138032,-1.55782 0.416016,-1.82422 0.289567,-0.27798 0.933576,-0.41602 1.929687,-0.41602 z m -10.359375,28.13086 c -0.779165,0.0132 -1.348511,0.43559 -1.705078,1.26758 l -9.052734,21.75195 c -0.316949,0.75276 -0.733006,1.3328 -1.248047,1.74219 -0.515041,0.39619 -1.002627,0.59375 -1.464844,0.59375 -0.541453,0.0132 -0.8125,0.1519 -0.8125,0.41602 v 0.85156 l 0.316406,0.11914 3.466797,-0.0781 c 0.647103,0 2.21255,0.0253 4.695313,0.0781 l 0.197265,-0.1582 v -0.8125 c 0,-0.27733 -0.283696,-0.41602 -0.851562,-0.41602 -1.10932,0 -1.788145,-0.15766 -2.039063,-0.47461 -0.237711,-0.33016 -0.191483,-0.79244 0.138672,-1.38672 l 2.316406,-6.00195 c 0.10565,-0.23768 0.231685,-0.38901 0.376953,-0.45508 0.145268,-0.0792 0.43529,-0.11914 0.871094,-0.11914 h 7.46875 l 2.515625,6.81445 c 0.05283,0.0792 0.07813,0.27048 0.07813,0.57422 0,0.69993 -0.33625,1.04883 -1.009765,1.04883 h -1.089844 c -0.713134,0.0132 -1.068359,0.1519 -1.068359,0.41602 v 0.77343 l 0.335937,0.19727 5.84375,-0.0781 c 1.016876,0 2.826116,0.0253 5.427734,0.0781 l 0.199219,-0.1582 v -0.8125 c 0,-0.1849 -0.02725,-0.29634 -0.08008,-0.33594 -0.03962,-0.0528 -0.211882,-0.0801 -0.515625,-0.0801 h -1.148437 c -0.475423,0 -0.87883,-0.18491 -1.208985,-0.55469 -0.316948,-0.38298 -0.625945,-0.97567 -0.929687,-1.78125 l -8.201172,-21.75195 c -0.316948,-0.8452 -0.924245,-1.26758 -1.822266,-1.26758 z m 59.417969,0 c -3.803381,0 -6.961529,1.34695 -9.470703,4.04102 -2.49597,2.69406 -3.742188,6.04149 -3.742188,10.04297 0,3.92224 1.260822,7.0721 3.783203,9.44922 2.522382,2.37711 5.678575,3.5664 9.46875,3.5664 4.067506,0 7.316156,-1.26714 9.746094,-3.80273 2.429938,-2.5488 3.644531,-5.86461 3.644531,-9.94531 0,-3.92224 -1.313375,-7.12467 -3.941406,-9.60743 -2.614825,-2.49597 -5.777342,-3.74414 -9.488281,-3.74414 z m -145.316407,0.45508 -0.0801,0.0801 v 0.9707 c 0,0.22451 0.11971,0.33594 0.35742,0.33594 h 0.57422 c 0.79238,0 1.35977,0.13869 1.70313,0.41601 0.35656,0.26413 0.53515,0.72009 0.53515,1.36719 v 20.16602 c 0,0.62068 -0.0861,1.04307 -0.25781,1.26758 -0.15847,0.2245 -0.48207,0.33789 -0.9707,0.33789 h -1.28711 c -0.4358,0 -0.6543,0.16398 -0.6543,0.49414 v 0.8125 l 0.15821,0.0801 4.83398,-0.0801 h 13.90625 c 0.066,-1.80925 0.39596,-4.14598 0.99023,-7.01172 l -1.58398,-0.33789 c -0.95085,3.65811 -2.72651,5.48828 -5.32813,5.48828 h -3.48828 c -0.91122,0 -1.36523,-0.6219 -1.36523,-1.86328 v -19.35352 c -0.0132,-1.18855 0.71185,-1.7832 2.17773,-1.7832 h 0.61524 c 0.18488,-0.0132 0.27734,-0.12464 0.27734,-0.33594 v -0.9707 l -0.0801,-0.0801 -5.46679,0.0801 c -1.0565,0 -2.91197,-0.0273 -5.56641,-0.0801 z m 46.462891,0 -0.08008,0.0801 v 0.89062 c 0,0.27734 0.19124,0.41602 0.574219,0.41602 h 1.328125 c 0.488629,0 0.812228,0.12604 0.970703,0.37695 0.17168,0.23772 0.257812,0.66642 0.257812,1.28711 v 20.18555 c 0,0.66031 -0.09246,1.10362 -0.277343,1.32812 -0.17168,0.22451 -0.488955,0.33594 -0.951172,0.33594 h -1.169922 c -0.488629,0 -0.732422,0.16594 -0.732422,0.4961 v 0.8125 l 0.03906,0.0391 h 11.490234 c 3.843,0 6.63569,-0.68078 8.378906,-2.04102 1.743217,-1.36023 2.615235,-3.05609 2.615235,-5.08984 -0.01321,-3.86942 -2.047264,-6.34678 -6.101563,-7.42969 v -0.0781 c 1.10932,-0.48863 2.033892,-1.23462 2.773438,-2.23829 0.752752,-1.00367 1.128906,-2.0207 1.128906,-3.05078 0,-4.21277 -3.227722,-6.32031 -9.685547,-6.32031 -0.752752,0 -1.729877,0.0146 -2.931641,0.041 -1.201762,0.0264 -1.974998,0.0391 -2.318359,0.0391 -0.818783,0 -2.588119,-0.0273 -5.308594,-0.0801 z m -23.628906,0.041 -0.117187,0.0781 v 0.93164 c 0.01321,0.22451 0.124638,0.33594 0.335937,0.33594 h 0.554687 c 0.818784,0 1.392502,0.13869 1.722657,0.41601 0.34336,0.26413 0.515625,0.72009 0.515625,1.36719 v 19.94922 c 0,0.64711 -0.172265,1.10939 -0.515625,1.38672 -0.343361,0.26413 -0.917079,0.39453 -1.722657,0.39453 h -0.554687 c -0.224505,0.0132 -0.335937,0.13924 -0.335937,0.37695 v 0.89063 l 0.117187,0.0801 h 19.810547 c 0.290537,-2.24506 0.65404,-4.52923 1.089844,-6.85352 l -1.744141,-0.41601 c -0.382979,1.59795 -0.944048,2.89867 -1.683594,3.90234 -0.739546,1.00367 -1.636864,1.50586 -2.693359,1.50586 h -6.220703 c -0.369774,-0.0132 -0.554688,-0.41029 -0.554688,-1.18945 v -10.0625 h 4.576172 c 0.250917,0 0.454807,0.0652 0.613281,0.19726 0.158474,0.11886 0.290835,0.34367 0.396485,0.67383 0.118854,0.31695 0.198661,0.60064 0.238281,0.85156 0.03962,0.23771 0.0985,0.62847 0.177734,1.16992 0,0.26413 0.218493,0.39454 0.654297,0.39454 h 0.851563 l 0.238281,-0.35547 c -0.184887,-1.59795 -0.277344,-2.85877 -0.277344,-3.78321 0,-0.99046 0.09246,-2.24496 0.277344,-3.76367 l -0.238281,-0.39648 h -0.851563 c -0.198092,0 -0.357707,0.0462 -0.476562,0.13867 -0.118856,0.0924 -0.177735,0.19123 -0.177735,0.29687 -0.07923,0.54146 -0.138114,0.93027 -0.177734,1.16797 -0.03962,0.22451 -0.119425,0.50821 -0.238281,0.85157 -0.10565,0.33015 -0.244335,0.55496 -0.416016,0.67382 -0.158474,0.11886 -0.356039,0.17969 -0.59375,0.17969 h -4.576172 v -8.33984 c -0.01321,-0.79237 0.171708,-1.18946 0.554688,-1.18946 h 5.289062 c 1.94131,0 3.374396,1.69149 4.298828,5.07227 l 1.625,-0.35742 c -0.409392,-2.08658 -0.695041,-4.2783 -0.853515,-6.57617 z m 79.005859,0 -0.11914,0.11914 v 0.77148 c 0,0.30375 0.271046,0.45508 0.8125,0.45508 0.409392,0 0.798196,0.11971 1.167968,0.35742 0.38298,0.23771 0.673001,0.4815 0.871094,0.73242 0.198093,0.23771 0.462814,0.58856 0.792969,1.05078 v 19.63086 c 0,1.18856 -0.851089,1.78321 -2.554687,1.78321 H -18 c -0.224505,0.0132 -0.337891,0.13729 -0.337891,0.375 v 0.93164 l 0.08008,0.0801 4.595703,-0.0801 c 0.937639,0 2.396025,0.0273 4.3769528,0.0801 l 0.080078,-0.0801 v -0.93164 c 0,-0.25092 -0.1051073,-0.375 -0.3164063,-0.375 h -0.5761716 c -1.4923,0 -2.238282,-0.59465 -2.238282,-1.78321 v -15.98632 l 14.2031255,18.46289 c 0.567866,0.73954 1.202416,1.10937 1.9023437,1.10937 1.0300825,0 1.5449219,-0.50219 1.5449219,-1.50586 v -22.06836 c 0,-1.18855 0.7459823,-1.7832 2.2382813,-1.7832 h 0.5742187 c 0.211299,-0.0132 0.3183594,-0.12464 0.3183594,-0.33594 v -0.9707 l -0.080078,-0.0391 -4.3378906,0.0391 c -1.0564949,0 -2.5022309,-0.0127 -4.33789068,-0.0391 l -0.0800781,0.0391 v 0.9707 c 0,0.22451 0.11971054,0.33594 0.35742187,0.33594 h 0.57421875 c 0.77916498,0 1.33390788,0.13869 1.66406248,0.41601 0.3433609,0.26413 0.515625,0.72009 0.515625,1.36719 v 16.26367 L -12.533203,518.69141 Z m 60.328125,0 -0.11914,0.11914 v 0.77148 c 0,0.30375 0.271046,0.45508 0.8125,0.45508 0.409392,0 0.798196,0.11971 1.167969,0.35742 0.382979,0.23771 0.674953,0.4815 0.873046,0.73242 0.198093,0.23771 0.460861,0.58856 0.791016,1.05078 v 19.63086 c 0,1.18856 -0.85109,1.78321 -2.554688,1.78321 h -0.554687 c -0.224505,0.0132 -0.335937,0.13729 -0.335937,0.375 v 0.93164 l 0.07812,0.0801 4.595704,-0.0801 c 0.937639,0 2.397979,0.0273 4.378906,0.0801 l 0.07813,-0.0801 v -0.93164 c 0,-0.25092 -0.105108,-0.375 -0.316406,-0.375 h -0.574219 c -1.492299,0 -2.238281,-0.59465 -2.238281,-1.78321 v -15.98632 l 14.203125,18.46289 c 0.567866,0.73954 1.202416,1.10937 1.902343,1.10937 1.030083,0 1.544922,-0.50219 1.544922,-1.50586 v -22.06836 c 0,-1.18855 0.745983,-1.7832 2.238281,-1.7832 h 0.574219 c 0.2113,-0.0132 0.316407,-0.12464 0.316407,-0.33594 v -0.9707 l -0.07813,-0.0391 -4.339843,0.0391 c -1.056495,0 -2.502231,-0.0127 -4.337891,-0.0391 l -0.07813,0.0391 v 0.9707 c 0,0.22451 0.117758,0.33594 0.355469,0.33594 h 0.574219 c 0.779164,0 1.333907,0.13869 1.664062,0.41601 0.343361,0.26413 0.515625,0.72009 0.515625,1.36719 v 16.26367 L 47.794922,518.69141 Z m -17.328125,1.16797 c 2.429938,0 4.463996,1.09051 6.101563,3.26953 1.637567,2.17902 2.457031,5.24275 2.457031,9.1914 0,3.46002 -0.680778,6.21281 -2.041016,8.25977 -1.34703,2.04696 -3.076463,3.07031 -5.189453,3.07031 -2.482762,0 -4.563049,-1.08223 -6.240234,-3.24805 -1.677185,-2.16581 -2.515625,-5.10547 -2.515625,-8.8164 0,-3.843 0.752308,-6.75344 2.257812,-8.73438 1.505506,-1.99413 3.228613,-2.99218 5.169922,-2.99218 z m -87.541015,0.49609 c 0.541454,0 1.049968,0.0589 1.52539,0.17773 0.475423,0.11886 0.950359,0.33735 1.425782,0.6543 0.488628,0.30375 0.871107,0.79133 1.148437,1.46484 0.290536,0.66031 0.435547,1.46713 0.435547,2.41797 0,1.53192 -0.468611,2.67935 -1.40625,3.44531 -0.924433,0.75276 -2.159954,1.12891 -3.705078,1.12891 h -2.257813 v -7.54687 c 0,-0.6471 0.16594,-1.09674 0.496094,-1.34766 0.343361,-0.26413 1.122922,-0.39453 2.337891,-0.39453 z m 27.21289,3.68359 3.367188,9.17188 h -6.082031 c -0.356567,0 -0.57506,-0.0336 -0.654297,-0.0996 -0.07924,-0.066 -0.117188,-0.19012 -0.117188,-0.375 z m -30.046875,7.31055 h 2.873047 c 2.033753,0 3.61185,0.54646 4.734375,1.64258 1.122526,1.09611 1.683594,2.53552 1.683594,4.31836 0,0.67351 -0.105107,1.32899 -0.316406,1.96289 -0.198093,0.63389 -0.521693,1.27282 -0.970703,1.91992 -0.449011,0.6339 -1.136115,1.14241 -2.060547,1.52539 -0.911227,0.36977 -2.001737,0.55469 -3.269532,0.55469 -1.135732,0 -1.86711,-0.13236 -2.197265,-0.39649 -0.316948,-0.27732 -0.476563,-0.73766 -0.476563,-1.38476 z" />
      </g>
      <circle
         style="display:inline;fill:url(#circle129_4_-8);stroke-width:1.17582"
         id="circle129_2_-8"
         fill="url(#circle129_4_)"
         cx="-24.717482"
         cy="414.27795"
         r="88.08902"
         inkscape:label="light top left" />
      <circle
         transform="matrix(1.1758216,0,0,1.1758216,-117.21585,321.80428)"
         id="circle127-54"
         opacity="0.32"
         mask="url(#XMLID_2_)"
         fill="none"
         stroke="#ffffff"
         stroke-width="3"
         enable-background="new    "
         cx="78.667"
         cy="78.646004"
         r="70.292"
         style="display:inline"
         inkscape:label="top ring light" />
      <circle
         id="circle7153-9"
         opacity="0.2"
         fill="none"
         stroke="#000000"
         stroke-width="3.52746"
         enable-background="new    "
         cx="-24.717482"
         cy="414.27795"
         r="86.325294"
         style="display:inline"
         inkscape:label="outer dark ring" />
      <text
         xml:space="preserve"
         id="text1589"
         style="font-style:normal;font-weight:normal;font-size:10.5833px;line-height:1.25;font-family:sans-serif;white-space:pre;shape-inside:url(#rect1591);display:inline;fill:#000000;fill-opacity:1;stroke:none;" />
    </g>
  </g>
</svg>
