<svg width="598" height="658" viewBox="0 0 598 658" fill="none" xmlns="http://www.w3.org/2000/svg">
<path d="M2.07178 2V259.637C2.07178 368.135 45.4108 451.459 98.8348 513C185.31 613.13 299.072 656 299.072 656C299.072 656 412.834 613.13 499.309 513C552.733 451.459 596.072 368.135 596.072 259.637V2H2.07178Z" fill="#00306F" stroke="black" stroke-width="3"/>
<path d="M45.0718 133L45.0718 199H67.0718V133L55.5718 139.5L45.0718 133Z" fill="white" stroke="black" stroke-width="3"/>
<path d="M530.072 133V199H552.072V133L540.572 139.5L530.072 133Z" fill="white" stroke="black" stroke-width="3"/>
<path d="M530.072 279V345H552.072V279L540.572 285.5L530.072 279Z" fill="white" stroke="black" stroke-width="3"/>
<path d="M45.0718 279L45.0718 345H67.0718V279L55.5718 285.5L45.0718 279Z" fill="white" stroke="black" stroke-width="3"/>
<path fill-rule="evenodd" clip-rule="evenodd" d="M119.573 125.451C119.973 137.882 120.951 165.109 122.062 195.494L119.573 125.451Z" fill="#9B1C2C"/>
<path d="M87.3211 190.149H53.5209C42.2554 197.225 42.2554 204.302 53.5209 211.378H87.3155L87.3211 190.149Z" fill="white"/>
<path d="M87.3117 334.069H57.2667C38.8958 341.383 43.7833 350.866 55.5156 356.043H87.3174L87.3117 334.069Z" fill="white"/>
<path d="M201.561 124.925C174.615 128.959 147.663 132.103 120.698 125.122L119.564 125.193L119.566 125.223L119.566 125.227L119.566 125.24L119.567 125.253L119.567 125.256L119.567 125.272L119.568 125.288L119.57 125.369L119.573 125.451L122.062 195.494L128.368 372.998C150.067 381.874 178.649 379.047 208.79 373.559C258.157 369.279 273.799 376.297 290.261 383.682L290.262 383.683C292.843 384.841 295.444 386.008 298.198 387.142V135.147C280.024 124.646 259.786 113.251 201.561 124.925Z" fill="white"/>
<path d="M467.803 323.697L473.687 136.474L474.017 125.251L473.791 125.246C447.525 132.198 421.275 129.068 395.032 125.051C338.636 113.484 316.147 124.56 298.494 134.972V135.43V387.007V387.017C300.671 386.103 302.781 385.169 304.886 384.236C321.812 376.736 338.486 369.349 387.801 373.686C417.21 379.126 445.097 381.923 466.269 373.133L467.803 323.697Z" fill="white"/>
<path fill-rule="evenodd" clip-rule="evenodd" d="M119.566 125.223L119.566 125.227L119.566 125.24L119.566 125.223Z" fill="white"/>
<path d="M128.368 372.998L122.062 195.494C120.951 165.109 119.973 137.882 119.573 125.451L119.57 125.369C119.569 125.342 119.568 125.315 119.568 125.288L119.567 125.272L119.567 125.256L119.567 125.253L119.566 125.24L119.566 125.227L119.566 125.223L104.747 139.202L104.039 139.869L109.589 390.864H110.41L128.066 374.708L128.368 372.998Z" fill="#BBA669"/>
<path d="M208.79 373.559C178.649 379.047 150.067 381.874 128.368 372.998L128.066 374.708L110.41 390.864L119.905 390.864H297.951H298.198V387.142C295.444 386.008 292.843 384.841 290.262 383.683L290.261 383.682C273.799 376.297 258.157 369.279 208.79 373.559Z" fill="#BBA669"/>
<path d="M466.269 373.133C445.097 381.923 417.21 379.126 387.801 373.686C338.486 369.349 321.812 376.736 304.886 384.236C302.781 385.169 300.671 386.103 298.494 387.017V390.864H303.633H487.36L466.269 373.133Z" fill="#BBA669"/>
<path d="M473.687 136.474L467.803 323.697L466.269 373.133L487.36 390.864L494.199 139.893L492.409 138.523L490.047 136.716L475.049 125.249L474.017 125.251L473.687 136.474Z" fill="#BBA669"/>
<path d="M509.83 210.699H543.623C554.887 203.623 554.887 196.547 543.623 189.47H509.827L509.83 210.699Z" fill="white"/>
<path d="M509.827 355.363H541.628C553.361 350.186 558.248 340.704 539.877 333.388H509.834L509.827 355.363Z" fill="white"/>
<path d="M316.686 406.005H509.827V355.363L509.834 333.388L509.83 210.699L509.827 189.47L508.769 138.523H492.409L494.199 139.893L487.36 390.864H303.633H298.494V391.145C300.699 392.346 302.794 393.665 304.751 395.144C308.083 397.663 313.763 403.15 316.187 406.683L316.686 406.005Z" fill="#222222"/>
<path fill-rule="evenodd" clip-rule="evenodd" d="M87.3211 190.149L88.3766 139.202H104.747L104.039 139.869L109.589 390.864H110.41L119.905 390.864H297.951L297.818 390.951L291.367 395.146C288.192 397.607 282.834 402.91 280.389 406.447C280.334 406.528 280.28 406.607 280.227 406.685L280.102 406.782L280.006 406.685L87.3174 406.685V356.043L87.3117 334.069L87.3155 211.378L87.3211 190.149ZM297.972 390.864L298.198 390.864H297.951L297.972 390.864Z" fill="#222222"/>
<path d="M316.187 406.683C313.763 403.15 308.083 397.663 304.751 395.144C302.794 393.665 300.699 392.346 298.494 391.145C298.321 391.051 298.147 390.957 297.972 390.864L297.951 390.864L297.818 390.951L291.367 395.146C288.192 397.607 282.834 402.91 280.389 406.447C280.334 406.528 280.28 406.607 280.227 406.685L280.102 406.782C286.938 413.685 292.703 417.112 298.494 416.997C304.034 416.887 309.596 413.536 316.142 406.886L316.187 406.683Z" fill="white"/>
<path d="M88.3766 139.202L87.3211 190.149M88.3766 139.202H104.747M88.3766 139.202C96.6476 139.202 96.8062 139.202 104.747 139.202M87.3211 190.149H53.5209C42.2554 197.225 42.2554 204.302 53.5209 211.378H87.3155M87.3211 190.149L87.3155 211.378M87.3155 211.378L87.3117 334.069M87.3117 334.069H57.2667C38.8958 341.383 43.7833 350.866 55.5156 356.043H87.3174M87.3117 334.069L87.3174 356.043M87.3174 356.043V406.685L280.006 406.685M316.686 406.005C327.177 406.005 509.827 406.005 509.827 406.005M316.686 406.005L316.187 406.683M316.686 406.005H509.827M509.827 406.005V355.363M509.827 355.363H541.628C553.361 350.186 558.248 340.704 539.877 333.388H509.834M509.827 355.363L509.834 333.388M509.834 333.388L509.83 210.699M509.83 210.699H543.623C554.887 203.623 554.887 196.547 543.623 189.47H509.827M509.83 210.699L509.827 189.47M509.827 189.47L508.769 138.523M508.769 138.523H492.409M508.769 138.523C508.769 138.523 497.373 138.523 492.409 138.523M297.972 390.864C298.147 390.957 298.321 391.051 298.494 391.145M297.972 390.864L298.198 390.864M297.972 390.864L297.951 390.864M316.187 406.683C313.763 403.15 308.083 397.663 304.751 395.144C302.794 393.665 300.699 392.346 298.494 391.145M316.187 406.683L316.142 406.886M280.006 406.685H280.227M280.006 406.685C280.038 406.718 280.07 406.75 280.102 406.782M280.006 406.685L280.102 406.782M316.142 406.886C316.109 406.82 316.065 406.758 316.032 406.689C315.97 406.562 315.893 406.451 315.827 406.324M316.142 406.886C309.596 413.536 304.034 416.887 298.494 416.997C292.703 417.112 286.938 413.685 280.102 406.782M280.227 406.685L280.102 406.782M280.227 406.685C280.28 406.607 280.334 406.528 280.389 406.447M291.367 395.146C288.192 397.607 282.834 402.91 280.389 406.447M291.367 395.146L297.818 390.951M291.367 395.146C293.378 393.584 295.54 392.201 297.818 390.951M297.972 390.866C297.921 390.894 297.869 390.922 297.818 390.951M474.017 125.251L473.687 136.474L467.803 323.697L466.269 373.133M474.017 125.251L473.791 125.246C447.525 132.198 421.275 129.068 395.032 125.051C338.636 113.484 316.147 124.56 298.494 134.972M474.017 125.251L475.049 125.249L490.047 136.716L492.409 138.523M298.198 135.147C280.024 124.646 259.786 113.251 201.561 124.925C174.615 128.959 147.663 132.103 120.698 125.122L119.564 125.193M298.198 135.147V387.142M298.198 135.147L298.494 134.972M298.198 135.147C298.296 135.089 298.395 135.03 298.494 134.972M298.198 135.147L298.494 135.43M466.269 373.133C445.097 381.923 417.21 379.126 387.801 373.686C338.486 369.349 321.812 376.736 304.886 384.236C302.781 385.169 300.671 386.103 298.494 387.017M466.269 373.133L487.36 390.864M298.198 387.142V390.864M298.198 387.142L298.494 387.007M298.198 387.142L298.494 387.017M298.198 387.142C298.297 387.1 298.396 387.059 298.494 387.017M298.198 387.142C295.444 386.008 292.843 384.841 290.262 383.683L290.261 383.682C273.799 376.297 258.157 369.279 208.79 373.559C178.649 379.047 150.067 381.874 128.368 372.998M119.564 125.193L119.566 125.223M119.564 125.193C119.565 125.205 119.565 125.216 119.566 125.227M119.564 125.193L119.566 125.227M126.793 323.078C126.793 323.078 124.184 253.526 122.062 195.494M128.368 372.998L126.797 323.078M128.368 372.998L122.062 195.494M128.368 372.998L128.066 374.708L110.41 390.864M122.062 195.494L119.573 125.451M122.062 195.494C120.951 165.109 119.973 137.882 119.573 125.451M109.589 390.864L104.039 139.869L104.747 139.202M109.589 390.864L119.905 390.864M109.589 390.864H110.41M119.566 125.223L104.747 139.202M119.566 125.223L119.566 125.227M119.566 125.223L119.566 125.24M119.905 390.864L110.41 390.864M119.905 390.864H297.951M487.36 390.864L494.199 139.893L492.409 138.523M487.36 390.864H303.633H298.494M298.198 390.864H298.494M298.198 390.864H297.951M298.494 134.972V135.43M119.573 125.451C119.572 125.423 119.571 125.396 119.57 125.369M119.573 125.451L119.57 125.369M104.747 139.202C104.902 139.202 105.06 139.202 105.221 139.202H104.747ZM298.494 135.43V387.007M298.494 387.007V387.017M298.494 387.017V390.864M298.494 390.864V391.145M492.409 138.523H491.926C492.079 138.523 492.24 138.523 492.409 138.523ZM119.568 125.288C119.568 125.315 119.569 125.342 119.57 125.369M119.568 125.288L119.57 125.369M119.568 125.288L119.567 125.272M119.568 125.288C119.567 125.283 119.567 125.277 119.567 125.272M119.567 125.256L119.567 125.272M119.567 125.256L119.567 125.253M119.567 125.256C119.567 125.261 119.567 125.266 119.567 125.272M119.566 125.227L119.566 125.24M119.566 125.227C119.566 125.231 119.566 125.236 119.566 125.24M119.567 125.253L119.566 125.24M119.567 125.253C119.567 125.249 119.566 125.244 119.566 125.24M297.951 390.864L297.818 390.951M280.102 406.782L280.389 406.447" stroke="black" stroke-width="3"/>
<path d="M170.13 180.507C176.605 180.507 181.315 182.411 184.26 186.22C187.206 190.003 188.678 195.919 188.678 203.968V228H164.113V218.783H178.319V204.768C178.319 199.41 177.671 195.576 176.376 193.266C175.107 190.93 172.86 189.762 169.635 189.762C166.665 189.762 164.164 191.247 162.132 194.218C160.101 197.265 158.209 202.343 156.458 209.452L151.849 228H140.88L146.022 208.271C146.657 205.885 147.266 203.752 147.85 201.873C148.459 199.994 149.043 198.382 149.602 197.036L140.157 181.269H151.544L155.125 187.972C156.648 185.636 158.73 183.808 161.371 182.487C164.037 181.167 166.957 180.507 170.13 180.507ZM213.739 220.459C212.723 223.074 211.162 224.991 209.054 226.21C206.947 227.403 203.887 228 199.875 228H197.286V218.783H197.933C199.685 218.783 201.082 218.453 202.123 217.793C203.138 217.133 203.862 216.13 204.293 214.784C204.725 213.413 204.941 211.344 204.941 208.576V189.952H197.705V180.735H224.212C231.525 180.735 236.768 182.284 239.942 185.382C243.141 188.454 244.741 193.558 244.741 200.692V228H234.419V200.845C234.419 196.782 233.594 193.951 231.944 192.352C230.293 190.752 227.513 189.952 223.603 189.952H215.224V209.909C215.224 214.302 214.729 217.818 213.739 220.459ZM267.859 180.735V228H257.576V180.735H267.859ZM225.126 304.616V332H181.823V284.735H203.836C211.352 284.735 216.773 286.284 220.099 289.382C223.451 292.454 225.126 297.532 225.126 304.616ZM192.106 322.783H214.805V305.797C214.805 301.48 213.993 298.434 212.368 296.656C210.743 294.854 207.899 293.952 203.836 293.952H192.106V322.783ZM246.721 284.735V309.834H236.438V284.735H246.721Z" fill="#222222"/>
<path d="M363.906 200.616V228H353.585V200.54C353.585 196.604 352.734 193.862 351.033 192.313C349.357 190.739 346.526 189.952 342.54 189.952H326.696V180.735H343.149C348.151 180.735 352.163 181.408 355.185 182.754C358.231 184.074 360.44 186.194 361.812 189.114C363.208 192.009 363.906 195.843 363.906 200.616ZM387.062 180.735V228H376.779V180.735H387.062ZM409.229 214.213L406.867 228H396.203L399.402 212.232C400.316 207.865 401.154 204.755 401.916 202.901C402.678 201.022 403.617 199.537 404.734 198.445C405.877 197.328 407.451 196.338 409.457 195.475L398.45 180.735H410.942L426.367 202.102C427.967 200.654 429.186 198.953 430.023 196.998C430.861 195.043 431.458 192.402 431.813 189.076L432.613 180.735H443.125L442.211 189.762C441.932 192.326 441.424 194.599 440.688 196.579C440.18 197.925 439.558 199.194 438.821 200.388C438.085 201.556 437.12 202.8 435.927 204.12C434.759 205.415 433.21 206.926 431.28 208.652L445.486 228H433.07L414.065 201.645C412.72 202.432 411.755 203.574 411.171 205.072C410.892 205.834 410.587 206.977 410.257 208.5C409.927 210.023 409.584 211.928 409.229 214.213ZM396.127 304.616V332H352.823V284.735H374.837C382.353 284.735 387.773 286.284 391.1 289.382C394.451 292.454 396.127 297.532 396.127 304.616ZM363.106 322.783H385.806V305.797C385.806 301.48 384.993 298.434 383.368 296.656C381.743 294.854 378.899 293.952 374.837 293.952H363.106V322.783ZM417.722 284.735V309.834H407.438V284.735H417.722Z" fill="#222222"/>
</svg>
