<?xml version="1.0" encoding="utf-8"?>
<svg xmlns="http://www.w3.org/2000/svg" width="512" height="512" viewBox="0 0 512 512">
<rect fill="#FFFFFF" width="512" height="512"/>
<path fill="#800000" d="M423.479,186.091V218.638H293.685V84.622H326.132V11.871H184.886V84.622H217.334V218.638H87.541V186.091H11.191V327.765H87.541V295.218H217.334V425.406H184.886V501.985H326.132V425.406H293.685V295.218H423.479V327.765H499.828V186.091H423.479Z
M492.192,320.107H431.112V287.56H286.049V433.062H318.497V494.327H192.521V433.062H224.969V287.56H79.905V320.107H18.826V193.749H79.905V226.296H224.969V76.964H192.521V19.528H318.497V76.964H286.049V226.296H431.112V193.749H492.192V320.107Z
M272.688,67.392H305.137V32.931H205.883V67.392H238.332V239.698H66.545V207.152H32.189V306.706H66.545V274.159H238.332V446.466H205.883V480.927H305.137V446.466H272.688V274.159H444.474V306.706H478.832V207.152H444.474V239.698H272.688V67.392Z
M133.351,195.664H169.617V170.775H194.43V134.399H169.617V109.511H133.351V134.399H108.538V170.775H133.351V195.664Z
M112.354,166.946V138.228H137.167V113.34H165.798V138.228H190.611V166.946H165.798V191.834H137.167V166.946H112.354Z
M316.589,170.775H341.403V195.664H377.668V170.775H402.481V134.399H377.668V109.511H341.403V134.399H316.589V170.775Z
M320.406,138.228H345.219V113.34H373.849V138.228H398.664V166.946H373.849V191.834H345.219V166.946H320.406V138.228Z
M144.803,184.176H158.164V159.288H182.978V145.886H158.164V120.997H144.803V145.886H119.99V159.288H144.803V184.176Z
M352.854,184.176H366.214V159.288H391.029V145.886H366.214V120.997H352.854V145.886H328.041V159.288H352.854V184.176Z
M194.43,343.081H169.617V318.192H133.351V343.081H108.538V379.457H133.351V404.346H169.617V379.457H194.43V343.081Z
M190.612,375.628H165.799V400.516H137.168V375.628H112.355V346.91H137.168V322.021H165.799V346.91H190.612V375.628Z
M377.668,318.192H341.403V343.081H316.589V379.457H341.403V404.346H377.668V379.457H402.481V343.081H377.668V318.192Z
M398.665,346.91V375.628H373.85V400.516H345.22V375.628H320.407V346.91H345.22V322.021H373.85V346.91H398.665Z
M158.164,329.68H144.803V354.568H119.99V367.97H144.803V392.858H158.164V367.97H182.978V354.568H158.164V329.68Z
M366.215,329.68H352.855V354.568H328.042V367.97H352.855V392.858H366.215V367.97H391.03V354.568H366.215V329.68Z"/></svg>