<svg xmlns="http://www.w3.org/2000/svg" xmlns:xlink="http://www.w3.org/1999/xlink" width="600" height="815.143"><defs><clipPath id="c" clipPathUnits="userSpaceOnUse"><path fill="#fff" stroke="#c09300" stroke-width=".242" d="m -109.44854,181.5283 c -0.0743,0.005 -0.14904,0.007 -0.22429,0.007 -1.64187,0 -5.45544,-0.84238 -6.92547,-2.10534 -1.53974,1.16668 -5.41628,2.10534 -7.03156,2.10534 -0.0758,0 -0.15062,-0.009 -0.22481,-0.0229 -0.004,0.36798 0.0154,0.74941 0.0382,1.09633 0.0855,1.29667 0.3129,2.59794 0.65818,3.85022 1.08693,3.94096 3.31152,7.29006 6.50134,9.83059 3.19246,-2.54265 5.41973,-5.89492 6.50902,-9.8388 0.34583,-1.25198 0.57398,-2.55315 0.66026,-3.84968 0.0202,-0.36299 0.0404,-0.80747 0.0391,-1.07276 z"/></clipPath></defs><g fill="#fff" stroke="#c09300" transform="translate(35.212553,641.57853) translate(-189.36166,-1103.042)"><path stroke-linejoin="round" stroke-width="5.45" d="m 457.60208,879.34399 293.822,272.76201 -20.918,-495.38002 c -3.073,-75.078 -68.316,-57.853 -115.709,-30.77 -48.01,30.77 -102.783,30.77 -160.648,10.454 -57.852,20.315 -112.629,20.315 -160.64,-10.455 -47.388,-27.08 -112.624,-44.308 -115.704,30.77 l -20.931,495.38102 z"/><path id="a" fill="#c09300" stroke="none" d="m 393.47,246.49 -4.734,112.32 -8.035,7.168 4.879,-115.47 c 2.294,-1.578 6.313,-4.017 7.89,-4.017 z m 9.62,8.04 -4.017,93.955 -8.032,8.22 4.877,-108.49 c 1.579,1.577 6.314,5.45 7.172,6.31 z m 8.75,7.17 -3.155,78.362 -6.455,6.31 4.018,-89.406 c 1.574,1.578 4.73,3.874 5.592,4.734 z m 9.47,4.02 -3.156,66.787 -6.313,5.12 3.156,-74.345 c 1.579,0.717 4.735,2.438 6.313,2.438 z m 8.75,0 -2.297,55.657 -6.455,6.313 2.44,-61.252 c 1.575,0 5.593,0 6.312,-0.718 z" transform="matrix(4.29012,0,0,4.29012,-1476.4279,-417.98901)"/><use xlink:href="#a" width="100%" height="100%" transform="matrix(-1,0,0,1,908.25417,5.1265624e-7)"/><path fill="#c09300" stroke-width="4.607" d="m 467.68408,933.65699 41.24,187.71501 -13.547,13.536 -14.154,-10.463 -23.39,-167.39201 9.849,167.39201 -13.544,17.228 -13.54,-17.228 9.85,-167.39201 -23.383,167.39201 -14.168,10.463 -13.533,-13.536 41.233,-187.71601 h 27.087 z"/><g id="b" fill="none" stroke="#c09300" stroke-linejoin="round" stroke-width="1.27"><path fill="#fff" stroke-width="5.101" d="m 587.732,-30.405 -81.856,290.463 112.637,17.236 47.998,-218.47 -78.78,-89.23 z" transform="translate(-225.92792,881.60599)"/><path stroke-width="5.448" d="m 560.661,68.697 9.848,23.994 53.219,-50.83" transform="translate(-225.92792,881.60599)"/><path stroke-width="5.448" d="M 597.513,8.55 608.649,112.997 642.5,68.688 m -13.54,17.212 18.49,63.816 m 7.25,-23.446 -37.4,56.806 m 11.665,56.698 -11.97,-56.62 -10.45,-57.587 -25.056,33.93 -10.989,-39.121 -35.07,35.971 17.836,65.429 24.615,-40.477 13.538,41.238 25.27,-39.307" transform="translate(-225.92792,881.60599)"/><path stroke-width="5.448" d="m 529.858,253.301 22.736,-31.934 14.813,49.152 20.31,-34.46 13.547,41.244" transform="translate(-225.92792,881.60599)"/></g><use xlink:href="#b" width="100%" height="100%" transform="matrix(-1,0,0,1,908.25417,5.1265624e-7)"/><g stroke-linecap="round" stroke-linejoin="round" stroke-width="1.27"><path stroke-width="10.202" d="m 453.76574,1271.505 c 85.558,0 167.418,-6.769 215.42,-20.31 20.316,-3.684 20.316,-14.147 20.316,-27.694 20.315,-6.768 9.845,-30.762 24,-30.762 -14.155,3.7 -17.228,-24 -34.462,-20.299 0,-24.01 -24.006,-27.083 -44.317,-20.325 -40.626,13.546 -112.637,16.625 -180.958,16.625 -68.316,-3.079 -139.716,-3.079 -180.953,-16.625 -20.31,-6.758 -44.304,-3.685 -44.304,20.325 -17.239,-3.7 -20.315,24 -34.467,20.3 14.152,0 3.687,23.993 24,30.761 0,13.547 0,24.01 20.926,27.694 47.385,13.541 129.253,20.31 214.798,20.31 z"/><path stroke-width="5.448" d="m 563.75,260.036 c 27.69,3.695 58.466,6.769 82.478,3.695 13.528,0 23.378,23.383 -3.701,27.083 -23.995,3.068 -61.542,0 -81.856,-3.7 -17.233,-3.078 -54.776,-9.844 -78.783,-16.625 -24.003,-10.452 -6.762,-30.751 6.766,-27.68 20.931,6.765 48.015,13.54 75.099,17.228 z m 232.653,0 c -27.7,3.695 -58.466,6.769 -81.86,3.695 -14.16,0 -24.008,23.383 3.077,27.083 24.005,3.068 61.55,0 81.847,-3.7 17.242,-3.078 54.78,-9.844 78.784,-16.625 24.01,-10.452 6.78,-30.751 -6.767,-27.68 -20.926,6.765 -48.006,13.54 -75.081,17.228 z" transform="translate(-225.92792,881.60599)"/><path stroke-width="3.822" d="m 485.584,253.301 c 6.778,0 17.236,3.079 20.315,6.766 l -20.335,-6.779 z m 33.806,10.468 c 3.697,0 17.239,3.073 24.007,6.758 l -24.025,-6.779 z m 123.127,13.514 c -6.769,0 -20.31,0 -23.994,3.068 l 23.982,-3.089 z m -37.539,0 c -3.684,-3.7 -17.231,-3.7 -23.997,0 h 23.982 z M 874.57,253.301 c -6.769,0 -16.623,3.079 -20.316,6.766 z m -33.85,10.468 c -3.69,0 -17.234,3.073 -24.004,6.758 l 24.024,-6.779 z m -123.126,13.514 c 6.776,0 20.314,0 24.004,3.068 l -24.024,-3.089 z m 37.538,0 c 3.69,-3.7 17.24,-3.7 24.005,0 h -24.025 z" transform="translate(-225.92792,881.60599)"/><path fill="#c09300" d="m 602.75531,1180.4599 c -3.72432,0.5745 -5.58648,3.0158 -5.02783,5.6009 0.74486,3.0161 3.91055,4.4521 7.26243,4.0214 3.72433,-0.5746 5.58648,-3.1596 4.84161,-5.7448 -0.74486,-2.7287 -3.91054,-4.3084 -7.07621,-3.8775 z m -12.29026,33.4625 c 1.67594,7.1804 6.88999,8.473 17.31809,7.1804 0.55866,-0.1437 1.67596,-0.287 3.16568,-0.4308 0.93107,-0.1436 1.86217,-0.2872 2.97945,-0.4308 l 1.48973,6.1754 c -13.40756,1.7234 -27.00133,3.4468 -40.59509,4.8829 l -8.0073,-46.5312 -6.70377,4.4521 c -2.04838,1.7233 -2.97946,3.734 -2.60705,6.0319 l 5.77271,37.1961 c -7.44863,0.5745 -14.89729,1.2927 -22.34594,1.7234 l -2.04838,-16.8028 c -5.21404,2.4414 -8.19349,4.0212 -8.93836,4.5957 -1.30351,1.0052 -1.86217,2.4414 -1.67593,4.3083 0.18624,1.5799 0.74486,5.0265 1.11729,8.617 -2.79324,0.2871 -5.40027,0.4307 -8.37972,0.5744 l -1.1173,-13.9306 c -5.77271,2.5849 -8.75218,3.8776 -9.1246,4.1649 -1.30353,0.8616 -1.86215,2.5849 -1.67594,4.8829 0,0.7179 0.18622,2.4413 0.55865,5.3137 -2.79324,0.1437 -5.58649,0.2871 -8.56597,0.2871 l -0.55862,-9.9094 -7.44864,2.8724 c -3.53811,1.2924 -3.72434,2.585 -3.53811,7.3243 -7.44864,0.1438 -15.08351,0.2873 -22.53215,0.2873 v -10.1967 c 0,-3.1596 -2.60701,-5.8883 -6.33134,-5.8883 -14.33865,-0.2872 -28.49107,-0.5745 -42.8297,-1.149 -5.02784,-0.2872 -9.68324,1.7234 -11.35919,3.7341 l 3.53812,-35.1856 c -5.02784,1.867 -7.44867,2.8722 -7.63488,2.8722 -2.4208,1.4362 -3.91054,3.1597 -4.09673,5.3137 l -4.46922,37.9144 c -8.0073,-0.5743 -15.82835,-1.2925 -23.83565,-2.0107 l 2.4208,-15.5103 c -6.70376,2.585 -10.42809,4.3084 -11.17295,5.0267 -0.9311,1.0052 -1.86217,4.1647 -2.79322,9.4785 -10.61434,-1.2926 -21.22866,-2.4414 -31.84299,-3.8777 l 2.23461,-9.7659 -7.26243,1.4363 c -3.35191,0.7181 -5.40028,1.5797 -6.51757,2.5851 -1.30351,1.1489 -2.23459,3.0159 -2.79324,5.6009 -0.18623,0.5746 -1.1173,5.4575 -1.30351,6.0318 -1.67594,6.1755 -4.84162,9.7658 -13.59379,8.3298 -12.47647,-2.1543 -10.61432,-8.1861 -9.49701,-17.5212 -2.2346,0 -4.4692,1.0054 -6.51756,3.1596 -1.86215,1.8669 -2.97948,3.7341 -3.5381,5.601 -1.30353,4.165 0,8.0425 4.09675,11.6328 3.72431,3.1596 8.56594,5.3138 14.89729,6.3193 6.33133,1.0052 12.29025,0.1435 17.87675,-2.5853 5.40025,-2.7286 8.56593,-6.3189 9.68324,-10.9147 9.86943,1.2925 19.92511,2.4414 29.98079,3.5904 10.05565,1.0054 20.11131,2.0106 30.35321,2.8722 10.05568,0.7181 20.11134,1.2925 30.16701,1.867 10.24189,0.4307 20.29756,0.8617 30.53943,1.0052 10.05568,0.1438 20.29756,0.2874 30.35324,0.2874 10.24187,-0.1436 20.29754,-0.4309 30.53945,-0.7181 10.05564,-0.4308 20.11133,-0.8616 30.35322,-1.4361 10.05567,-0.7183 20.11133,-1.5799 30.35321,-2.4416 10.05566,-1.0052 19.92514,-2.0105 29.9808,-3.1596 10.05565,-1.2923 20.11133,-2.7284 30.167,-4.1646 2.79325,-0.431 3.72431,-2.7289 2.60704,-6.8936 l -8.19353,-31.5954 c -1.4897,2.8724 -5.58649,4.7393 -12.66269,5.7447 -0.93107,0.1436 -1.86217,0.2873 -2.60701,0.4309 -1.30352,0.1436 -2.04841,0.1436 -2.60703,0.2872 -4.84162,0.7181 -8.19353,1.5798 -10.05567,2.7288 -2.79325,1.8669 -3.91053,4.5955 -3.16568,8.3298 z m 10.80054,-1.4362 c -0.18625,-1.4364 1.3035,-2.8724 3.16568,-3.1597 2.23458,-0.2871 4.46917,-0.5745 6.70377,-0.8617 l 1.30352,5.0265 -7.07622,1.0053 c -2.2346,0.1436 -3.72431,-0.718 -4.09675,-2.0104 z m -146.55207,24.1273 c -16.57324,-0.2873 -32.96024,-0.8619 -49.5335,-1.7235 l 0.74488,-7.468 c 14.33864,0.718 28.49105,1.2926 42.82968,1.5796 3.91057,0.1438 5.95894,1.2926 5.95894,3.3033 z M 308.16144,1203.151 c -3.91053,-0.4308 -6.88998,1.1488 -7.63485,3.8778 -0.74488,2.8724 1.67596,5.1699 5.02785,5.7446 3.9105,0.5743 6.88998,-1.1492 7.63484,-3.734 0.74487,-3.0159 -1.67596,-5.3139 -5.02784,-5.8884 z m 59.77539,46.244 c -4.09677,-0.2872 -7.07622,1.5797 -7.44866,4.3086 -0.37242,3.0159 2.42081,5.0263 5.95891,5.4573 4.09676,0.2873 7.26243,-1.5797 7.63486,-4.3086 0.18625,-2.8722 -2.42082,-5.0264 -6.14511,-5.4573 z m -18.43541,-1.8669 c -3.91054,-0.2873 -7.07619,1.2926 -7.63486,4.1649 -0.55866,3.0159 2.2346,5.17 5.95892,5.6008 3.91054,0.2874 7.07622,-1.4362 7.63487,-4.1648 0.37243,-2.8723 -2.23462,-5.1702 -5.95893,-5.6009 z"/><path stroke-width="5.448" d="m 478.805,246.523 c -20.923,-3.695 -30.77,20.299 -23.993,33.835 3.073,-6.768 17.23,-6.768 20.312,-13.536 3.681,-10.455 -3.082,-10.455 3.681,-20.3 z m 81.856,62.936 c 0,-13.526 13.533,-11.863 13.533,-25.404 0,-6.766 -3.685,-17.234 -10.454,-17.234 -6.772,0 -13.546,6.768 -13.546,13.536 -3.08,13.544 10.467,15.578 10.467,29.102 z m 97.429,-38.955 c 20.294,0 18.283,27.089 8.432,40.627 0,-9.846 -17.23,-13.538 -17.23,-20.299 0,-10.476 15.556,-10.476 8.798,-20.328 z m 223.215,-23.981 c 20.926,-3.695 30.778,20.299 24.004,33.835 -3.08,-6.768 -17.233,-6.768 -20.31,-13.536 -3.694,-10.455 3.08,-10.455 -3.694,-20.3 z m -81.855,62.936 c 0,-13.526 -13.528,-11.863 -13.528,-25.404 0,-6.766 3.687,-17.234 10.459,-17.234 6.766,0 13.54,6.768 13.54,13.536 3.08,13.544 -10.471,15.578 -10.471,29.102 z m -97.43,-38.955 c -20.302,0 -18.288,27.089 -8.44,40.627 0,-9.846 17.228,-13.538 17.228,-20.299 0.003,-10.476 -15.556,-10.476 -8.787,-20.328 z" transform="translate(-225.92792,881.60599)"/></g><path stroke-width="1.15" d="m 449.98,327.23 c 32.642,-25.106 29.843,-61.883 29.843,-61.883 -0.8613,0.17223 -1.6795,0.25835 -2.5408,0.25835 -6.8471,0 -23.178,-3.9171 -26.988,-8.8926 -4.0812,4.5034 -20.77,8.8926 -27.574,8.8926 -0.86129,0 -1.7225,-0.0861 -2.5407,-0.25835 0,0 -2.8422,36.776 29.8,61.883 z" transform="matrix(4.2901418,0,0,4.2901418,-1476.4363,-417.99538)"/><path fill="none" stroke-width=".916" d="m 477.22,268.04 c -0.28097,0.0176 -0.5633,0.0264 -0.8477,0.0264 -6.2055,0 -20.619,-3.1838 -26.175,-7.9572 -5.8195,4.4095 -20.471,7.9572 -26.576,7.9572 -0.28635,0 -0.56925,-0.035 -0.84965,-0.0865 -0.0142,1.3908 0.0581,2.8324 0.14448,4.1436 0.323,4.9008 1.1826,9.819 2.4876,14.552 4.1081,14.895 12.516,27.553 24.572,37.155 12.066,-9.61 20.484,-22.28 24.601,-37.186 1.3071,-4.7319 2.1694,-9.6497 2.4955,-14.55 0.0763,-1.3719 0.15265,-3.05185 0.14777,-4.0545 z" transform="matrix(4.2901418,0,0,4.2901418,-1476.4363,-417.99538)"/><g fill-rule="evenodd" stroke="none" clip-path="url(#c)" transform="matrix(16.042066,0,0,16.042066,2325.4644,-2179.2848)"><path fill="#009639" d="m -123.976,179.26 h 4.883 v 17.198 h -4.883 z"/><path d="m -119.093,179.26 h 4.883 v 17.198 h -4.883 z"/><path fill="#000" d="m -114.21,179.26 h 4.883 v 17.198 h -4.883 z"/><path fill="#ed2e38" d="m -124.44352,175.92798 v 5.20835 l 7.79201,5.02402 7.79202,-5.02402 v -5.20835 z"/></g><g stroke-width="1.27" transform="matrix(4.29012,0,0,4.29012,-1476.4279,-417.98899)"><path stroke-width="1.218" d="m 462.31,253.09 c 0.667,0.04 -0.902,-3.568 -0.902,-3.568 1.765,1.804 8.43,2.235 8.43,2.235 -4,-1.766 -7.998,-15.096 -7.528,-25.721 0.432,-10.664 -1.528,-14.86 -3.097,-16.428 -2,-2 -8.43,-3.764 -12.664,-4 -2.392,-0.117 -2,1.804 -2,1.804 -4.43,-1.137 -8.86,-1.568 -10.86,-0.235 -1.883,1.255 -2.275,7.528 -0.902,6.43 3.332,-2.666 6.234,-0.235 8.233,2.666 1.764,2.549 1.647,9.763 -0.902,18.192 -2.666,8.861 -9.959,17.722 -9.959,17.722 3.96,0 9.528,-3.528 9.528,-3.528 l -1.333,5.528 c 4.195,-2 7.528,-5.097 7.528,-5.097 l 3.999,4.195 c 1.333,-1.764 4,-4.195 4,-4.195 0,0 3.332,3.529 8.429,4 z"/><path fill="none" d="m 446.12,227.57 c 0,0 -2.235,16.428 -6.43,21.094 m 9.96,-21.524 c 0,0 -0.863,16.623 -3.764,21.956 m 6.894,-21.286 c 0,0 0,18.192 1.098,21.289 m 2.862,-20.389 c 0,0 0.902,15.291 4.666,20.819"/><path fill="#c09300" stroke-width=".354" d="m 442.08,219.61 c -0.196,-1.45 -0.549,-2.588 -1.059,-3.333 -2,-2.901 -4.9,-5.332 -8.233,-2.666 0,0 1.137,-3.529 3.568,-3.646 1.882,-0.118 6.155,1.411 9.92,7.841 0,0 -2.784,-0.627 -3.45,-0.039 -1.256,1.098 -0.746,1.843 -0.746,1.843 z"/><path fill="#c09300" stroke-width=".354" d="m 432.44,209.26 c 0.274,-0.902 0.706,-1.725 1.255,-2.078 2,-1.333 6.43,-0.902 10.86,0.235 0,0 -0.392,-1.921 2,-1.803 4.234,0.235 10.664,2 12.663,3.999 0.47,0.51 1.02,1.255 1.49,2.391 h -0.078 c -0.98,-1.372 -3.764,-1.293 -4.431,-1.215 -1.059,0.118 -1.725,0.078 -3.137,0.431 -0.666,0.157 -1.686,0.353 -2.235,0.784 -0.43,0.353 -0.784,1.647 -1.45,1.647 -1.059,0 -0.98,-0.274 -1.255,-0.588 -0.353,-0.431 -0.549,-1.059 -0.902,-1.02 -1.097,0.197 -2.862,-0.666 -5.096,-2.43 -2.235,-1.765 -3.098,-2.196 -5.999,-2 -2.862,0.235 -3.764,1.843 -3.764,1.843 z"/><circle cx="448.824" cy="210.672" r="1.176" stroke="none"/></g></g></svg>