<svg height="250" viewBox="0 0 52.916665 66.145835" width="200" xmlns="http://www.w3.org/2000/svg"><g transform="translate(0 -230.85415)"><path d="m1.0583333 232.17707c0 33.29588 3.8608765 44.76863 11.5897437 52.49754 4.609612 4.57608 6.65299 6.29802 13.810255 11.00246 7.157274-4.70444 9.200649-6.42638 13.810261-11.00246 7.728868-7.72891 11.58974-19.20166 11.58974-52.49754-5.621656 2.40694-8.825192 3.57385-13.461006 3.50245-4.14698-.0638-8.540908-1.9898-11.938995-3.50245-3.398085 1.51265-7.792001 3.43857-11.938987 3.50245-4.6358187.0714-7.8393567-1.09551-13.4610117-3.50245z" fill="#fff" stroke-width=".381233"/><g transform="matrix(.77356547 0 0 .73749905 -182.3757 184.68477)"><circle cx="15.07813" cy="-30.97657" fill="#fff" r="0"/><g transform="translate(0 -.000003)"><path d="m271 87c1.543 3.6293 6.49 7.637 7.85 9.6011-1.731 1.964-2.077 1.7501-1.85 5.3989 3.01-3.1493 3.064-3.4776 5-3 4.241 4.232.759 13.321-2.746 15.297-3.504 2.108-2.868-.073-8.12 2.569 2.408 2.059 5.198-.302 7.478.329 1.239 1.47-.589 4.149.374 6.672 2.015-.194 1.773-4.262 2.242-5.737 1.472-5.404 10.322-9.173 10.772-14.13 1.866-.876 3.731-.274 6 1-1.13-4.644-4.868-4.594-5.87-6.0444-2.385-3.6446-4.499-7.8024-9.593-8.881-3.867-.8188-3.578.2463-6.056-1.444-1.543-1.2014-6.231-3.4734-5.481-1.6306z" fill="#f90"/><circle cx="281.31705" cy="91.127861" fill="#fff" r=".805969"/></g><g transform="matrix(-.46715699 -.884169 .88416899 -.467157 308.31179 382.6492)"><path d="m271 87c1.543 3.6293 6.49 7.637 7.85 9.6011-1.731 1.964-2.077 1.7501-1.85 5.3989 3.01-3.1493 3.064-3.4776 5-3 4.241 4.232.759 13.321-2.746 15.297-3.504 2.108-2.868-.073-8.12 2.569 2.408 2.059 5.198-.302 7.478.329 1.239 1.47-.589 4.149.374 6.672 2.015-.194 1.773-4.262 2.242-5.737 1.472-5.404 10.322-9.173 10.772-14.13 1.866-.876 3.731-.274 6 1-1.13-4.644-4.868-4.594-5.87-6.0444-2.385-3.6446-4.499-7.8024-9.593-8.881-3.867-.8188-3.578.2463-6.056-1.444-1.543-1.2014-6.231-3.4734-5.481-1.6306z" fill="#f90"/><circle cx="281.31705" cy="91.127861" fill="#fff" r=".805969"/></g><g transform="matrix(-.51503599 .857166 -.85716599 -.51503599 492.99828 -82.935809)"><path d="m271 87c1.543 3.6293 6.49 7.637 7.85 9.6011-1.731 1.964-2.077 1.7501-1.85 5.3989 3.01-3.1493 3.064-3.4776 5-3 4.241 4.232.759 13.321-2.746 15.297-3.504 2.108-2.868-.073-8.12 2.569 2.408 2.059 5.198-.302 7.478.329 1.239 1.47-.589 4.149.374 6.672 2.015-.194 1.773-4.262 2.242-5.737 1.472-5.404 10.322-9.173 10.772-14.13 1.866-.876 3.731-.274 6 1-1.13-4.644-4.868-4.594-5.87-6.0444-2.385-3.6446-4.499-7.8024-9.593-8.881-3.867-.8188-3.578.2463-6.056-1.444-1.543-1.2014-6.231-3.4734-5.481-1.6306z" fill="#f90"/><circle cx="281.31705" cy="91.127861" fill="#fff" r=".805969"/></g></g><path d="m7.4300387 277.60944c1.4814946 2.81218 3.2195483 5.06645 5.2182843 7.0652 4.609613 4.57608 6.652744 6.29799 13.810009 11.00243 7.157275-4.70444 9.200914-6.42635 13.810527-11.00243 1.998701-1.99871 3.73629-4.25309 5.21777-7.0652z" fill="#9cf" stroke-width=".381233"/><path d="M 0 230.85415 C 0 265.53732 4.0217533 277.48825 12.072648 285.53918 C 16.874323 290.30592 19.002857 292.09953 26.458333 296.99998 C 33.913819 292.09953 36.042346 290.30592 40.844018 285.53918 C 48.894918 277.48825 52.916666 265.53732 52.916666 230.85415 C 47.060792 233.36137 43.723753 234.57688 38.894783 234.50251 C 34.575013 234.43601 29.998003 232.42982 26.458333 230.85415 C 22.918667 232.42982 18.341657 234.43597 14.021883 234.50251 C 9.1929112 234.57691 5.8558847 233.36137 0 230.85415 z M 26.456783 232.85144 C 29.91997 234.39032 34.29564 236.28318 38.867395 236.35356 C 43.121851 236.41906 46.639563 235.29808 50.972599 233.55838 C 50.855408 249.10549 49.93104 260.1644 48.099389 267.74802 C 46.14797 275.82752 43.347158 280.41501 39.539189 284.22454 C 35.068813 288.66238 32.785351 290.53219 26.45885 294.73656 C 20.135756 290.53445 17.847925 288.66275 13.382646 284.23022 L 13.380579 284.22867 C 13.378979 284.22667 13.378561 284.22654 13.376961 284.22454 C 9.5694567 280.41519 6.7695768 275.82688 4.8183105 267.74802 C 2.9866619 260.16441 2.0622946 249.10545 1.9451009 233.55838 C 6.2778353 235.29793 9.796555 236.4191 14.050822 236.35356 C 18.621885 236.28316 22.993808 234.3902 26.456783 232.85144 z" fill="#fdc301" stroke-width=".377659"/></g></svg>