<svg xmlns="http://www.w3.org/2000/svg" xmlns:xlink="http://www.w3.org/1999/xlink" width="377.952766418457" height="377.952766418457" viewBox="0 0 10000 10000" shape-rendering="geometricPrecision" image-rendering="optimizeQuality" fill-rule="evenodd" xmlns:v="https://vecta.io/nano"><path d="M8395 3355c0-67 39-806 31-819-383 3-704-100-899-328-131-153-192-381-219-634L5006 574 2704 1574c-28 253-89 481-219 634-195 228-516 331-899 328-9 13 31 752 30 819l-185 110-131 117 681 3906 2996 1562 2335-1091 1303-2547-20-1885-26-62-174-110z" fill="#282f5d"/><g stroke="#332c2b"><g stroke-width="50"><path d="M5006 8665c-782-451-1606-1261-2196-2193-585-925-987-1848-1075-2915-9-101-43-860-31-873 344-97 658-189 855-403 140-151 246-389 273-634l2174-951 2174 951c27 245 132 483 272 634 197 214 512 306 856 403 12 13-23 772-31 873-89 1067-490 1990-1075 2915-590 932-1414 1742-2196 2193z" fill="#fefefe"/><path d="M5006 8110c642-447 1218-1093 1766-1884 546-790 827-1604 979-2525 7-44 88-617 78-628-300-85-495-230-691-404-134-119-312-462-336-675l-1796-786-1796 786c-24 213-202 556-336 675-196 174-391 319-691 404-10 11 70 584 78 628 152 921 432 1735 979 2525 547 791 1124 1437 1766 1884z" fill="#ee1c25"/></g><g fill="#fefefe" stroke-width="25"><g fill-rule="nonzero"><path d="M5334.999962 5083c138-112 168-108 207-94 39 13 149 172 149 172 14 68-34 111-34 111s-190 167-274 200c-84 32-169-105-198-185s12-94 150-204zm-45 216h0s50 92 124 46c75-47 149-121 149-121s55-31-6-98c-60-68-79-35-125-5-45 30-190 108-142 178zm36-759c52-51 115-33 115-33s254 73 328 129c76 55 22 225-31 295-54 70-107 21-281-38-174-58-188-87-198-129-10-41 67-224 67-224zm109 248h0c52 22 201 105 235 24 0 0 53-95-29-133-82-39-189-63-189-63s-58-31-82 59c-25 90 14 89 65 113z"/><path d="M5566.999962 5171l84-379s10-95-89-59c0 0-18 29-36 118-16 89-63 293-63 293s29 107 104 27zm-1246 482c33-27 232-40 232-40 68 23 79 86 79 86s40 250 21 339c-20 89-196 116-282 100-87-15-65-83-84-259-20-175 1-200 34-226zm53 162h0c2 55-12 219 76 214 0 0 109 4 110-84 0-87-23-189-23-189s3-64-88-46c-92 17-76 51-75 105zm180 379c38-62 104-60 104-60s263 6 349 41c87 35 78 213 44 294-34 82-98 48-281 35s-204-37-224-75 8-235 8-235zm169 213h0c55 8 220 51 233-36 0 0 27-105-62-121-89-17-198-14-198-14s-64-15-65 79c-2 93 36 82 92 92zm460-38c58-43 119-17 119-17s241 106 308 171-9 226-71 289c-62 62-109 6-274-75-164-81-174-112-178-154-4-43 96-214 96-214zm75 260h0c49 29 185 131 230 56 0 0 65-87-11-136-77-50-179-88-179-88s-53-38-90 48c-36 86 2 90 50 120z"/><path d="M5323.999962 6502l-365-188s-95-35-83 74c0 0 24 27 111 68s283 143 283 143 118 0 54-97zm525 306l-352-211s-92-41-88 68c0 0 23 29 107 75 84 47 273 162 273 162s117 8 60-94z"/></g><path d="M6247.999962 6087c-8-75-57-77-79-45-20 27-81 132-169 212-88 79-205 152-277 192-60 34-39 72-7 83s176 43 176 43-217 205-451 230c-177 19-252-83-260-280-5-124-19-815-28-1306l472-141c30 36 75 59 125 59 90 0 163-73 163-163s-73-163-163-163c-62 0-116 34-144 86h-459l-3-132c69-47 114-125 114-214 0-143-116-258-258-258s-258 115-258 258c0 89 45 167 114 214l-3 132h-457c-28-52-82-86-144-86-90 0-163 73-163 163s73 163 163 163c50 0 95-23 125-59l470 141-28 1306c-9 197-83 299-260 280-234-25-452-230-452-230s144-32 177-43c32-11 53-49-7-83-72-40-189-113-277-192-88-80-149-185-169-212-22-32-71-30-79 45-8 76-22 177-15 386 6 187 57 347 68 381 15 41 63 46 80 0s59-140 59-140 163 197 389 302c210 97 360 63 666 318h2c306-255 456-221 665-318 226-105 390-302 390-302s42 94 59 140 65 41 79 0c12-34 63-194 69-381 7-209-7-310-15-386zm-1248-1403c-75 0-136-61-136-136s61-136 136-136 136 61 136 136-61 136-136 136z"/><g fill-rule="nonzero"><path d="M4760.999962 6276l-233-334s-66-74-108 26c0 0 8 35 65 112 56 76 180 256 180 256s104 55 96-60zm82-976c175-49 202-34 234-6s72 219 72 219c-13 69-75 90-75 90s-248 82-340 79c-92-4-117-164-114-250 4-87 48-83 223-132zm-128 184h0s11 106 99 92c89-15 189-55 189-55s65-7 34-93c-31-87-62-65-117-54-55 10-222 26-205 110z"/><path d="M5007.999962 5494l380-150s88-47-3-110c0 0-37 0-124 38s-292 117-292 117-76 87 39 105zm-488 326l296-278s64-76-44-102c0 0-34 14-101 81s-227 215-227 215-38 110 76 84zm947-1158l-354-171s-91-32-79 71c0 0 24 25 108 62 84 38 274 130 274 130s113-2 51-92z"/></g></g></g><g stroke="#282f5d" stroke-width="300" fill="none"><use xlink:href="#B"/><use xlink:href="#C"/><use xlink:href="#D"/><use xlink:href="#E"/><use xlink:href="#F"/><use xlink:href="#G"/><use xlink:href="#H"/><use xlink:href="#I"/><use xlink:href="#J"/><use xlink:href="#K"/><use xlink:href="#L"/><use xlink:href="#M"/><use xlink:href="#N"/><use xlink:href="#O"/></g><g fill="#fefefe"><use xlink:href="#B"/><use xlink:href="#C"/><use xlink:href="#D"/><use xlink:href="#E"/><use xlink:href="#F"/></g><g stroke="#282f5d" stroke-width="300" fill="none"><use xlink:href="#P"/><use xlink:href="#Q"/></g><g fill="#fefefe"><use xlink:href="#Q"/><use xlink:href="#G"/><use xlink:href="#H"/><use xlink:href="#P"/><use xlink:href="#I"/><use xlink:href="#J"/><use xlink:href="#K"/><use xlink:href="#L"/><use xlink:href="#M"/></g><g stroke="#282f5d" stroke-width="300" fill="none"><use xlink:href="#R"/><use xlink:href="#S"/></g><g fill="#fefefe"><use xlink:href="#R"/><use xlink:href="#N"/><use xlink:href="#O"/><use xlink:href="#S"/></g><g fill="#ff0" stroke="#ff0" stroke-linejoin="round" stroke-miterlimit="2.6131"><g stroke-width="7.0875588"><path d="M4991.33716422094 1686.541892261888l180.0216310004 554.210526356592-180.0216310004 246.0770883865z"/><path d="M4991.33716422094 1686.541892261888l-180.02174912638 554.210526356592 180.02174912638 246.0770883865z"/><path d="M4229.19011315064 2240.75241861848h582.125301943919l180.02174912638 246.0770883865z"/><path d="M4229.19011315064 2240.75241861848l472.104299809659 342.11386450444 290.04275126064-96.03677611794z"/><path d="M4521.245849236459 3137.07676222912l180.04856372384-554.2104791062 290.04275126064-96.03677611794z"/><path d="M4521.245849236459 3137.07676222912l470.09131498448-342.11374637846v-308.13350884568z"/><path d="M5463.441464030599 3137.07676222912l-472.104299809659-342.11374637846v-308.13350884568z"/><path d="M5463.441464030599 3137.07676222912l-180.04856372384-554.2104791062-292.055736085819-96.03677611794z"/><path d="M5753.53749010822 2240.75241861848l-470.144589801461 342.11386450444-292.055736085819-96.03677611794z"/><path d="M5753.53749010822 2240.75241861848h-582.17869488688l-180.0216310004 246.0770883865z"/></g><g stroke-width="4.7250392"><path d="M4510.52379028382 3309.63212253764L4319.412610407 3582.5819263663l54.76804749318 166.18742497868z"/><path d="M4510.52379028382 3309.63212253764l4.53402949034 332.96453484952-140.877161873979 106.17269395782z"/><path d="M4834.59710074472 3740.57388897856l-319.53928097056-97.9772315914-140.877161873979 106.17269395782z"/><path d="M4834.59710074472 3740.57388897856l-318.83430512192 107.681398974381-141.582137722619-99.48593660796z"/><path d="M4524.748520795421 4180.60993836772l-8.985725172621-332.35465041478-141.582137722619-99.48593660796z"/><path d="M4524.748520795421 4180.60993836772l-200.85503758908-264.99390094968 50.28717469384-166.84668607306z"/><path d="M4009.57253552826 4022.68022814692l314.320947678079-107.06419072888 50.287174693841-166.84668607306z"/><path d="M4009.57253552826 4022.68022814692l191.102911058219-273.010048078459 173.505211313701-.9013012274-364.60812237192 273.910876801941z"/><path d="M3999.888685813841 3484.72612828234l200.786760772639 264.94405178612 173.505211313701-.9013012274-374.29197208634-264.04322306264z"/><path d="M3999.888685813841 3484.72612828234L4319.412610407 3582.5819263663l54.76804749318 166.18742497868z"/></g><g stroke-width="4.586630989234"><path d="M3940.27688251076 2848.32749044948H3606.5802028372l-103.1859966795 141.04785391508z"/><path d="M3503.3942061577 2530.66168752172l103.1859966795 317.66580292776-103.1859966795 141.04785391508z"/><path d="M3503.3942061577 2530.66168752172l-103.18587855352 317.66580292776 103.18587855352 141.04785391508z"/><path d="M3066.54224255944 2848.32749044948h333.666085044741l103.18587855352 141.04785391508z"/><path d="M3066.54224255944 2848.32749044948l270.603585613901 196.09479684704 166.24837798436-55.04694293196z"/><path d="M3233.94447511644 3362.08809022428l103.2013530569-317.66580292776 166.24837798436-55.04694293196z"/><path d="M3233.94447511644 3362.08809022428l269.44973104126-196.09491497302v-176.6178308867z"/><path d="M3773.99790989758 3362.08809022428l-270.60370373988-196.09491497302v-176.6178308867z"/><path d="M3773.99790989758 3362.08809022428l-103.2013530569-317.66580292776-167.40235068298-55.04694293196z"/><path d="M3940.27688251076 2848.32749044948l-269.48032567008 196.09479684704-167.40235068298-55.04694293196zm2993.180740858281 0h-333.69667967356l-103.1859966795 141.04785391508z"/><path d="M6496.57494701598 2530.66168752172l103.1859966795 317.66580292776-103.1859966795 141.04785391508z"/><path d="M6496.57494701598 2530.66168752172l-103.18587855352 317.66580292776 103.18587855352 141.04785391508z"/><path d="M6059.722983417721 2848.32749044948h333.66608504474l103.18587855352 141.04785391508z"/><path d="M6059.722983417721 2848.32749044948l270.6035856139 196.09479684704 166.248377984361-55.04694293196z"/><path d="M6227.12521597472 3362.08809022428l103.2013530569-317.66580292776 166.248377984361-55.04694293196z"/><path d="M6227.12521597472 3362.08809022428l269.44973104126-196.09491497302v-176.6178308867z"/><path d="M6767.17865075586 3362.08809022428l-270.60370373988-196.09491497302v-176.6178308867z"/><path d="M6767.17865075586 3362.08809022428l-103.2013530569-317.66580292776-167.40235068298-55.04694293196z"/><path d="M6933.45762336904 2848.32749044948l-269.48032567008 196.09479684704-167.40235068298-55.04694293196z"/></g><g stroke-width="4.7250392"><path d="M5475.22665680324 3305.6024909819l191.11117987682 272.94980382866-54.76804749318 166.18742497868z"/><path d="M5475.22665680324 3305.6024909819l-4.53402949034 332.96453484952 140.87716187398 106.17269395782z"/><path d="M5151.15334634234 3736.54425742282l319.53928097056-97.9772315914 140.87716187398 106.17269395782z"/><path d="M5151.15334634234 3736.54425742282l318.83430512192 107.681398974381 141.582137722619-99.48593660796z"/><path d="M5461.001926291639 4176.58030681198l8.985725172621-332.354650414779 141.582137722619-99.48593660796z"/><path d="M5461.001926291639 4176.58030681198l200.855037589081-264.99390094968-50.28717469384-166.84668607306z"/><path d="M5976.177911558801 4018.65059659118l-314.32094767808-107.06419072888-50.28717469384-166.84668607306z"/><path d="M5976.177911558801 4018.65059659118l-191.10291105822-273.010048078459-173.5052113137-.9013012274 364.60812237192 273.910876801941z"/><path d="M5985.86176127322 3480.6964967266l-200.786760772639 264.94405178612-173.505211313701-.9013012274 374.29197208634-264.04322306264z"/><path d="M5985.86176127322 3480.6964967266l-319.52392459316 97.85579808396-54.76804749318 166.18742497868z"/></g></g><defs ><path id="B" d="M8655 4427c-20-39-39-80-46-123-10-60-13-120-11-180 4-51 20-100 33-149 11-44 30-86 37-130 6-38-18-83-9-117 31 25 64 46 88 74 30 34 61 70 80 113 20 45 30 96 37 143 9 65 12 130 10 197-2 63-7 127-20 189-13 58-40 113-58 170-20-17-44-29-59-49-33-43-59-89-82-138z"/><path id="C" d="M8404 6020c-7-20 2-42 2-61 1-22 0-44 5-66 7-27 18-52 29-76 10-20 22-37 33-58-29-40-59-75-85-112-30-43-58-89-81-135-27-60-50-122-70-184-20-63-38-128-50-193-8-45-16-93-10-140 5-39 26-75 41-111 10-23 21-44 34-64 12-20 27-37 44-61 3 13-2 34 1 54 3 23 11 46 22 66 14 26 35 46 52 70 25 33 48 67 71 101 24 34 48 69 70 104 27 45 50 93 78 135 22-33 44-63 65-94 18-27 45-50 52-81 5-16-11-33-22-46-12-12-31-15-43-25-31-27-61-56-87-88-38-44-75-91-106-142-28-46-50-96-70-146-21-52-42-103-50-157-6-40 0-82 11-121 11-37 35-68 55-104 7 26 5 54 16 78 9 26 27 48 45 67 25 28 56 47 84 71 29 24 61 47 86 76 25 27 41 60 60 90 17 26 33 52 46 78 14 23 24 45 39 60 7-29 4-51 13-70 7-16 22-29 35-40 18-20 38-36 58-53 75-60 151-116 225-179 21-17 43-34 60-55 10-14 14-32 23-48 9 29 22 60 24 91 3 43-1 86-6 128-4 35-3 73-20 104-30 60-70 115-113 166-47 56-107 102-157 155-32 35-61 69-87 108-34 50-65 103-92 158-11 17-14 39-19 58 13-8 26-17 38-27 25-16 49-36 74-51 43-24 86-46 130-66 48-20 101-27 146-49 30-14 57-37 80-60 17-16 26-40 39-58 2 28 6 57 6 88 0 34 2 71-6 105-10 40-25 80-45 114-22 41-52 78-82 112-46 51-93 101-145 146-58 50-121 96-187 135-32 20-71 26-104 43-25 13-51 26-71 45-24 22-42 48-56 76-16 32-22 68-33 102-5 16-5 35-17 47-9 13-25 25-40 22-17-2-33-17-38-32z"/><path id="D" d="M8158 7152c-70 24-142 40-216 51-43 8-86 2-130 3-22 0-45-7-66 0-19 6-31 25-47 35l-111 83c-19 14-36 32-57 40-14 5-31 1-43-5-11-7-22-19-23-33-1-16 5-36 15-48 26-30 66-45 93-73 19-21 35-44 43-71 6-14-2-32-6-48-10-44-24-87-32-130-14-67-30-134-32-202-5-84-5-172 9-256 13-73 40-144 73-211 27-53 66-101 107-143 26-29 64-44 97-66-6 34-15 68-25 100-1 44 10 88 20 131 14 77 40 152 53 228 11 54 14 109 16 164 1 47-6 93-8 139 23-35 44-75 71-107 23-30 57-50 81-78 29-36 60-70 76-112 10-24 8-55 0-80-14-35-46-59-64-93-20-38-34-76-45-116-20-62-38-123-49-186-15-80-26-161-27-242 1-69 7-141 25-208 13-45 41-86 70-124 22-28 53-48 82-76-2 27-11 57-7 88 2 34 12 67 26 98 18 41 48 77 68 116 23 43 41 88 59 133 21 51 41 102 53 154 12 58 12 118 20 178 35-23 70-48 106-70 28-18 57-36 89-51 64-27 129-55 194-77 54-17 112-23 165-41 36-12 70-31 104-51 20-10 37-25 56-38-5 34-8 70-16 103-11 47-17 95-42 135-35 57-83 105-132 150-49 46-106 87-164 123-74 43-150 81-229 117-45 19-95 28-141 45-27 8-55 12-79 28-31 22-55 51-77 82-20 29-34 63-50 94-6 11-22 24-13 33 10 12 31 4 48 4 41 2 84 2 125 2 46 0 91-4 138-5 29-2 56-3 84-6s56-5 83-13c25-9 45-25 67-38-15 37-26 76-44 109-27 51-58 103-99 145-36 37-81 67-128 92-68 37-141 70-214 95z"/><path id="E" d="M7838 7786c-71 27-143 57-217 71-69 14-140 13-209 12-52 1-103-9-154-9-20 0-41-1-60 6-11 3-19 13-27 21-26 26-48 56-75 80-30 28-61 54-95 78-12 9-28 20-43 14-15-5-25-22-29-37-4-16-2-36 8-49 20-25 52-38 75-61 36-32 75-63 105-100 14-17 22-37 26-59 20-97-32-233-31-334 3-152 56-392 146-514 50-68 133-104 207-144-12 21-29 44-37 71-7 29-7 61-4 89 4 48 21 93 27 139 7 54 13 110 17 165 3 48 7 96 3 144-4 36-19 72-29 108-8 27-18 53-28 82 35-10 72-25 108-37 38-10 74-24 111-29 44-7 88-7 132-7 60-2 121 1 180 1 49-1 98 6 147-2 37-5 70-26 104-38-24 47-36 99-67 142-36 48-81 90-129 122-49 33-106 54-162 75z"/><path id="F" d="M7492 8336c-36 30-75 59-117 78-119 52-280 79-410 84-160 6-281-34-431-78-20-6-39-16-61-18-10 0-20 10-30 15-40 19-80 40-120 56-24 12-48 27-75 27-15 0-32-11-37-24s2-29 8-43c7-14 19-25 33-34 47-27 102-38 148-67 18-12 33-29 43-47 22-42 15-131 22-181 19-123 48-253 101-366 54-110 133-249 233-324 62-47 125-53 195-63-18 24-39 46-52 74-18 38-33 78-38 119-7 52 3 104 3 156 1 55 3 112-3 166-5 53-17 103-31 152-10 31-24 59-40 85-16 23-38 40-54 59 47-11 91-28 138-33 44-6 89-4 134 1 63 7 126 20 187 35 57 12 112 35 170 45 39 7 80 4 120 2 27-4 54-12 76-18-36 45-71 106-112 142z"/><path id="G" d="M6160 9425c-65 4-130-5-194-17-56-9-110-29-164-48-44-16-86-34-127-56-39-21-74-48-112-72-37-23-75-48-116-66-34-16-70-30-108-33-48-7-97 4-144 5-28-1-56 5-84-3-10-4-13-17-14-28-2-11-6-25-2-37 7-10 19-19 30-23 17-6 36-6 54-5 35 0 71 15 105 7 19-3 36-18 47-37 19-27 24-65 39-94 26-54 52-109 85-159 39-58 82-112 129-161 55-59 112-114 175-162 58-44 120-84 187-112 43-20 90-28 136-30 46 0 90 15 135 22-29 26-66 46-90 78-25 31-36 71-54 107-33 61-61 123-96 182-25 43-54 83-86 122-34 42-70 81-108 117-21 19-47 33-67 47 44 6 87 8 127 22 38 12 72 33 105 53 52 30 101 64 150 100 51 36 97 76 147 113 25 18 49 38 77 50 32 12 68 13 99 22-44 23-83 46-126 64-43 15-89 30-135 32z"/><path id="H" d="M8238 8190c25-36 52-72 86-99 48-37 99-68 153-95 47-21 98-30 147-42 44-11 90-14 132-30 36-12 65-54 99-63-7 40-11 78-23 112-16 43-33 88-62 124-30 40-69 73-108 101-53 39-109 72-168 103-57 28-115 54-176 72-57 16-119 19-177 30 5-26 4-53 15-75 22-49 50-94 82-138z"/><path id="I" d="M1345 4427c20-39 39-80 46-123 10-60 13-120 11-180-4-51-20-100-33-149-11-44-30-86-37-130-6-38 18-83 9-117-31 25-64 46-88 74-30 34-61 70-80 113-20 45-30 96-37 143-9 65-12 130-10 197 2 63 7 127 20 189 13 58 40 113 58 170 20-17 44-29 59-49 33-43 59-89 82-138z"/><path id="J" d="M1596 6020c7-20-2-42-2-61-1-22 0-44-5-66-7-27-18-52-29-76-10-20-22-37-33-58 29-40 59-75 85-112 30-43 58-89 81-135 27-60 50-122 70-184 20-63 38-128 50-193 8-45 16-93 10-140-5-39-26-75-41-111-10-23-21-44-34-64-12-20-27-37-44-61-3 13 2 34-1 54-3 23-11 46-22 66-14 26-35 46-52 70-25 33-48 67-71 101-24 34-48 69-70 104-27 45-50 93-78 135-22-33-44-63-65-94-18-27-45-50-52-81-5-16 11-33 22-46 12-12 31-15 43-25 31-27 61-56 87-88 38-44 75-91 106-142 28-46 50-96 70-146 21-52 42-103 50-157 6-40 0-82-11-121-11-37-35-68-55-104-7 26-5 54-16 78-9 26-27 48-45 67-25 28-56 47-84 71-29 24-61 47-86 76-25 27-41 60-60 90-17 26-33 52-46 78-14 23-24 45-39 60-7-29-4-51-13-70-7-16-22-29-35-40-18-20-38-36-58-53-75-60-151-116-225-179-21-17-43-34-60-55-10-14-14-32-23-48-9 29-22 60-24 91-3 43 1 86 6 128 4 35 3 73 20 104 30 60 70 115 113 166 47 56 107 102 157 155 32 35 61 69 87 108 34 50 65 103 92 158 11 17 14 39 19 58-13-8-26-17-38-27-25-16-49-36-74-51-43-24-86-46-130-66-48-20-101-27-146-49-30-14-57-37-80-60-17-16-26-40-39-58-2 28-6 57-6 88 0 34-2 71 6 105 10 40 25 80 45 114 22 41 52 78 82 112 46 51 93 101 145 146 58 50 121 96 187 135 32 20 71 26 104 43 25 13 51 26 71 45 24 22 42 48 56 76 16 32 22 68 33 102 5 16 5 35 17 47 9 13 25 25 40 22 17-2 33-17 38-32z"/><path id="K" d="M1842 7152c70 24 142 40 216 51 43 8 86 2 130 3 22 0 45-7 66 0 19 6 31 25 47 35l111 83c19 14 36 32 57 40 14 5 31 1 43-5 11-7 22-19 23-33 1-16-5-36-15-48-26-30-66-45-93-73-19-21-35-44-43-71-6-14 2-32 6-48 10-44 24-87 32-130 14-67 30-134 32-202 5-84 5-172-9-256-13-73-40-144-73-211-27-53-66-101-107-143-26-29-64-44-97-66 6 34 15 68 25 100 1 44-10 88-20 131-14 77-40 152-53 228-11 54-14 109-16 164-1 47 6 93 8 139-23-35-44-75-71-107-23-30-57-50-81-78-29-36-60-70-76-112-10-24-8-55 0-80 14-35 46-59 64-93 20-38 34-76 45-116 20-62 38-123 49-186 15-80 26-161 27-242-1-69-7-141-25-208-13-45-41-86-70-124-22-28-53-48-82-76 2 27 11 57 7 88-2 34-12 67-26 98-18 41-48 77-68 116-23 43-41 88-59 133-21 51-41 102-53 154-12 58-12 118-20 178-35-23-70-48-106-70-28-18-57-36-89-51-64-27-129-55-194-77-54-17-112-23-165-41-36-12-70-31-104-51-20-10-37-25-56-38 5 34 8 70 16 103 11 47 17 95 42 135 35 57 83 105 132 150 49 46 106 87 164 123 74 43 150 81 229 117 45 19 95 28 141 45 27 8 55 12 79 28 31 22 55 51 77 82 20 29 34 63 50 94 6 11 22 24 13 33-10 12-31 4-48 4-41 2-84 2-125 2-46 0-91-4-138-5-29-2-56-3-84-6s-56-5-83-13c-25-9-45-25-67-38 15 37 26 76 44 109 27 51 58 103 99 145 36 37 81 67 128 92 68 37 141 70 214 95z"/><path id="L" d="M2162 7786c71 27 143 57 217 71 69 14 140 13 209 12 52 1 103-9 154-9 20 0 41-1 60 6 11 3 19 13 27 21 26 26 48 56 75 80 30 28 61 54 95 78 12 9 28 20 43 14 15-5 25-22 29-37 4-16 2-36-8-49-20-25-52-38-75-61-36-32-75-63-105-100-14-17-22-37-26-59-20-97 32-233 31-334-3-152-56-392-146-514-50-68-133-104-207-144 12 21 29 44 37 71 7 29 7 61 4 89-4 48-21 93-27 139-7 54-13 110-17 165-3 48-7 96-3 144 4 36 19 72 29 108 8 27 18 53 28 82-35-10-72-25-108-37-38-10-74-24-111-29-44-7-88-7-132-7-60-2-121 1-180 1-49-1-98 6-147-2-37-5-70-26-104-38 24 47 36 99 67 142 36 48 81 90 129 122 49 33 106 54 162 75z"/><path id="M" d="M2508 8336c36 30 75 59 117 78 119 52 280 79 410 84 160 6 281-34 431-78 20-6 39-16 61-18 10 0 20 10 30 15 40 19 80 40 120 56 24 12 48 27 75 27 15 0 32-11 37-24s-2-29-8-43c-7-14-19-25-33-34-47-27-102-38-148-67-18-12-33-29-43-47-22-42-15-131-22-181-19-123-48-253-101-366-54-110-133-249-233-324-62-47-125-53-195-63 18 24 39 46 52 74 18 38 33 78 38 119 7 52-3 104-3 156-1 55-3 112 3 166 5 53 17 103 31 152 10 31 24 59 40 85 16 23 38 40 54 59-47-11-91-28-138-33-44-6-89-4-134 1-63 7-126 20-187 35-57 12-112 35-170 45-39 7-80 4-120 2-27-4-54-12-76-18 36 45 71 106 112 142z"/><path id="N" d="M3840 9425c65 4 130-5 194-17 56-9 110-29 164-48 44-16 86-34 127-56 39-21 74-48 112-72 37-23 75-48 116-66 34-16 70-30 108-33 48-7 97 4 144 5 28-1 56 5 84-3 10-4 13-17 14-28 2-11 6-25 2-37-7-10-19-19-30-23-17-6-36-6-54-5-35 0-71 15-105 7-19-3-36-18-47-37-19-27-24-65-39-94-26-54-52-109-85-159-39-58-82-112-129-161-55-59-112-114-175-162-58-44-120-84-187-112-43-20-90-28-136-30-46 0-90 15-135 22 29 26 66 46 90 78 25 31 36 71 54 107 33 61 61 123 96 182 25 43 54 83 86 122 34 42 70 81 108 117 21 19 47 33 67 47-44 6-87 8-127 22-38 12-72 33-105 53-52 30-101 64-150 100-51 36-97 76-147 113-25 18-49 38-77 50-32 12-68 13-99 22 44 23 83 46 126 64 43 15 89 30 135 32z"/><path id="O" d="M1762 8190c-25-36-52-72-86-99-48-37-99-68-153-95-47-21-98-30-147-42-44-11-90-14-132-30-36-12-65-54-99-63 7 40 11 78 23 112 16 43 33 88 62 124 30 40 69 73 108 101 53 39 109 72 168 103 57 28 115 54 176 72 57 16 119 19 177 30-5-26-4-53-15-75-22-49-50-94-82-138z"/><path id="P" d="M6713 8691c15-15 38-17 56-25 19-9 38-20 60-27 27-6 55-7 81-8 23-1 43 2 67 2 22-44 39-86 60-127 25-46 52-92 83-133 41-52 85-101 131-147 47-47 97-92 149-133 36-28 76-57 119-73 38-14 80-12 118-15 25-1 49-2 73 1 23 2 45 7 75 12-11 8-32 13-49 25-18 13-35 31-48 50-17 24-25 52-38 78-18 37-38 74-58 110l-60 110c-27 44-60 87-85 131 41 4 77 10 114 14 32 4 65 17 96 10 17-4 24-26 30-41 6-16 0-35 4-50 9-39 21-80 37-118 22-54 47-108 79-159 27-46 62-89 97-129 36-42 72-84 117-117 32-23 73-37 112-45 38-7 77 0 117 1-19 18-45 29-62 50-18 20-29 46-38 71-14 34-16 71-25 107-8 37-13 75-27 111-14 34-36 65-54 95-15 27-31 53-48 77-14 22-29 42-35 61 29-6 47-20 68-20 18-1 36 6 52 12 25 7 49 18 73 28 88 39 173 81 263 118 25 11 50 23 76 28 17 3 35-2 54-2-23 22-44 47-70 63-37 23-77 39-117 54-33 12-66 30-102 30-67 1-134-10-199-24-72-17-140-49-210-69-45-12-89-22-136-28-59-7-121-10-183-9-20-2-40 5-59 10 13 8 27 14 41 21 26 15 54 27 79 43 41 27 81 54 118 85 40 33 70 77 112 107 26 20 58 34 89 44 22 7 47 4 70 7-25 15-49 32-76 46-30 16-63 34-96 44-40 9-82 14-122 11-47-1-94-10-137-21-67-17-133-36-196-62-72-28-141-64-206-105-32-18-56-50-86-72-23-16-47-33-73-43-30-11-62-15-93-15-36 1-70 12-106 18-16 2-32 12-49 7-16-3-33-12-38-26-6-16 0-37 11-49z"/><path id="Q" d="M6814 8816c56 29 110 61 161 94 57 35 107 74 162 109 26 18 52 38 82 48 35 11 72 10 105 16-44 26-84 54-128 74s-90 39-138 43c-67 8-136 3-203-5-58-8-117-25-175-42-45-13-91-29-134-48-42-21-80-48-121-70s-80-46-124-62c-37-14-77-26-115-28-50-3-100 11-149 14-30 2-60 9-88 3-10-3-13-18-18-29-3-12-7-26-3-37 5-12 18-21 30-27 17-7 36-8 55-9 37-1 75 11 111 2 19-4 36-22 46-40 18-32 21-69 35-104 24-57 46-114 79-169 36-61 78-121 123-175 54-64 110-126 173-179 58-49 120-95 187-128 43-23 92-34 141-39 48-4 94 10 141 14-29 29-66 53-89 86-23 35-33 77-50 116-29 64-55 132-88 194-23 47-52 91-82 133-32 44-67 87-105 128-20 21-46 37-66 54 46 3 90 3 133 13 38 11 76 30 112 50z"/><path id="R" d="M3186 8816c-56 29-110 61-161 94-57 35-107 74-162 109-26 18-52 38-82 48-35 11-72 10-105 16 44 26 84 54 128 74s90 39 138 43c67 8 136 3 203-5 58-8 117-25 175-42 45-13 91-29 134-48 42-21 80-48 121-70s80-46 124-62c37-14 77-26 115-28 50-3 100 11 149 14 30 2 60 9 88 3 10-3 13-18 18-29 3-12 7-26 3-37-5-12-18-21-30-27-17-7-36-8-55-9-37-1-75 11-111 2-19-4-36-22-46-40-18-32-21-69-35-104-24-57-46-114-79-169-36-61-78-121-123-175-54-64-110-126-173-179-58-49-120-95-187-128-43-23-92-34-141-39-48-4-94 10-141 14 29 29 66 53 89 86 23 35 33 77 50 116 29 64 55 132 88 194 23 47 52 91 82 133 32 44 67 87 105 128 20 21 46 37 66 54-46 3-90 3-133 13-38 11-76 30-112 50z"/><path id="S" d="M3287 8691c-15-15-38-17-56-25-19-9-38-20-60-27-27-6-55-7-81-8-23-1-43 2-67 2-22-44-39-86-60-127-25-46-52-92-83-133-41-52-85-101-131-147-47-47-97-92-149-133-36-28-76-57-119-73-38-14-80-12-118-15-25-1-49-2-73 1-23 2-45 7-75 12 11 8 32 13 49 25 18 13 35 31 48 50 17 24 25 52 38 78 18 37 38 74 58 110l60 110c27 44 60 87 85 131-41 4-77 10-114 14-32 4-65 17-96 10-17-4-24-26-30-41-6-16 0-35-4-50-9-39-21-80-37-118-22-54-47-108-79-159-27-46-62-89-97-129-36-42-72-84-117-117-32-23-73-37-112-45-38-7-77 0-117 1 19 18 45 29 62 50 18 20 29 46 38 71 14 34 16 71 25 107 8 37 13 75 27 111 14 34 36 65 54 95 15 27 31 53 48 77 14 22 29 42 35 61-29-6-47-20-68-20-18-1-36 6-52 12-25 7-49 18-73 28-88 39-173 81-263 118-25 11-50 23-76 28-17 3-35-2-54-2 23 22 44 47 70 63 37 23 77 39 117 54 33 12 66 30 102 30 67 1 134-10 199-24 72-17 140-49 210-69 45-12 89-22 136-28 59-7 121-10 183-9 20-2 40 5 59 10-13 8-27 14-41 21-26 15-54 27-79 43-41 27-81 54-118 85-40 33-70 77-112 107-26 20-58 34-89 44-22 7-47 4-70 7 25 15 49 32 76 46 30 16 63 34 96 44 40 9 82 14 122 11 47-1 94-10 137-21 67-17 133-36 196-62 72-28 141-64 206-105 32-18 56-50 86-72 23-16 47-33 73-43 30-11 62-15 93-15 36 1 70 12 106 18 16 2 32 12 49 7 16-3 33-12 38-26 6-16 0-37-11-49z"/></defs></svg>