<svg xmlns="http://www.w3.org/2000/svg" viewBox="0 0 400 402">
<path d="M244.494 401H261.55V276.556C261.55 263.963 244.494 221 200 221C155.505 221 138.449 263.963 138.449 276.556V401H155.505V276.556C155.505 273.593 166.258 238.037 200 238.037C233.741 238.037 244.494 273.593 244.494 276.556V401Z" fill="white" stroke="black" stroke-width="2"/>
<path d="M134.465 261C134.61 260.614 134.759 260.228 134.913 259.84C137.447 253.435 141.321 246.23 146.74 239.439C152.345 232.413 159.683 225.785 168.854 221H53.1682L44.2693 261H134.465Z" fill="white" stroke="black" stroke-width="2"/>
<path d="M131.775 307.667V276.556C131.775 274.024 132.232 270.978 133.083 267.667H42.7861L33.8872 307.667H131.775Z" fill="white" stroke="black" stroke-width="2"/>
<path d="M131.775 354.333V314.333H32.4046L24.2473 354.333H131.775Z" fill="white" stroke="black" stroke-width="2"/>
<path d="M131.775 401V361H10.8989L2 401L131.775 401Z" fill="white" stroke="black" stroke-width="2"/>
<path d="M265.534 261C265.389 260.614 265.24 260.228 265.086 259.84C262.552 253.435 258.678 246.23 253.259 239.439C247.654 232.413 240.316 225.785 231.146 221H346.831L355.73 261H265.534Z" fill="white" stroke="black" stroke-width="2"/>
<path d="M268.224 307.667V276.556C268.224 274.024 267.767 270.978 266.916 267.667H357.213L366.112 307.667H268.224Z" fill="white" stroke="black" stroke-width="2"/>
<path d="M268.224 354.333V314.333H367.595L375.752 354.333H268.224Z" fill="white" stroke="black" stroke-width="2"/>
<path d="M268.224 401V361H389.101L398 401L268.224 401Z" fill="white" stroke="black" stroke-width="2"/>
<path d="M336.449 43.2222H247.46V1H266.741V19.5185H282.314V1H301.595V19.5185H317.168V1H336.449V43.2222Z" fill="white" stroke="black" stroke-width="2"/>
<path d="M152.539 43.2222H63.5503V1H82.8312V19.5185H98.4042V1H117.685V19.5185H133.258V1H152.539V43.2222Z" fill="white" stroke="black" stroke-width="2"/>
<path d="M51.6856 174.333L43.5283 214.333H356.472L348.315 174.333H51.6856Z" fill="white" stroke="black" stroke-width="2"/>
<path fill-rule="evenodd" clip-rule="evenodd" d="M257.842 167.667H326.067V49.8892H257.842V167.667ZM270.078 91.0003V75.4447H285.651V91.0003H270.078ZM299 75.4447V91.0003H314.573V75.4447H299ZM299 134.704H285.651V110.26H299V134.704Z" fill="white" stroke="black" stroke-width="2"/>
<path fill-rule="evenodd" clip-rule="evenodd" d="M73.9324 167.667H142.157V49.8892H73.9324V167.667ZM86.1683 91.0003V75.4447H101.741V91.0003H86.1683ZM115.09 75.4447V91.0003H130.663V75.4447H115.09ZM115.09 134.704H101.741V110.26H115.09V134.704Z" fill="white" stroke="black" stroke-width="2"/>
</svg>
