<svg xmlns="http://www.w3.org/2000/svg" viewBox="535.62 240.272 363.386 134.862">
<g id="coa">
<g id="condor_tail" transform="matrix(1.146366,0,0,1.1711652,33.17831,82.13841)">
<path fill="#452C25" stroke="#000000" stroke-width="0.585" d="M593.68,214.48c0,0-8.426,19.153-5.515,21.053
			c0,0,8.549-14.868,16.052-20.496c3.902-3.601,6.274,0.032,6.778-3.135c0.502-3.168-10.268-7.711-10.268-7.711l-6.894,9.497"/>
<path fill="#452C25" stroke="#000000" stroke-width="0.473" d="M562.94,229.06c0,0-12.246,20.868-9.035,21.113
			c3.211,0.246,16.305-26.609,16.305-26.609l-4.464,0.748L562.94,229.06L562.94,229.06z"/>
<path fill="#452C25" stroke="#000000" stroke-width="0.473" d="M566.64,223.25c0,0-12.799,20.532-9.598,20.863
			c3.203,0.332,17.012-26.163,17.012-26.163l-4.482,0.629L566.64,223.25z"/>
<path fill="#452C25" stroke="#000000" stroke-width="0.473" d="M569.23,219.67c0,0-14.576,19.312-11.414,19.928
			c3.16,0.615,19.27-24.548,19.27-24.548l-4.522,0.228L569.23,219.67z"/>
<path fill="#452C25" stroke="#000000" stroke-width="0.473" d="M573.13,216.28c0,0-17.065,17.151-14.019,18.19
			c3.047,1.039,22.43-21.698,22.43-21.698l-4.51-0.39L573.13,216.28z"/>
<path fill="#452C25" stroke="#000000" stroke-width="0.473" d="M573.74,210.04c0,0-14.893,19.069-11.743,19.736
			c3.15,0.667,19.674-24.225,19.674-24.225l-4.523,0.153L573.74,210.04z"/>
<path fill="#452C25" stroke="#000000" stroke-width="0.473" d="M569.94,226.43c0,0-14.575,19.312-11.414,19.928
			c3.16,0.615,19.27-24.548,19.27-24.548l-4.521,0.228L569.94,226.43L569.94,226.43z"/>
<path fill="#452C25" stroke="#000000" stroke-width="0.473" d="M578.14,222.61c0,0-8.532,15.721-7.558,16.371
			c0.975,0.65,11.337-8.965,16.457-18.32c5.121-9.355-9.265,1.559-9.265,1.559"/>
<path fill="#452C25" stroke="#000000" stroke-width="0.585" d="M586.61,219.12c0,0-8.427,19.153-5.515,21.053
			c0,0,10.568-11.555,13.328-20.736c2.758-9.181,0-0.633,0-0.633l-0.767-9.973l-6.894,9.497"/>
<path fill="#452C25" stroke="#000000" stroke-width="0.585" d="M579.05,221.05c0,0-8.426,19.153-5.515,21.053
			c0,0,10.569-11.555,13.329-20.736c2.757-9.181,0-0.633,0-0.633l-0.768-9.973l-6.893,9.497"/>
<path fill="#452C25" stroke="#000000" stroke-width="0.473" d="M574.68,219.38c0,0-17.066,17.151-14.019,18.19
			c3.045,1.039,22.431-21.698,22.431-21.698l-4.512-0.39L574.68,219.38L574.68,219.38z"/>
<path fill="#452C25" stroke="#000000" stroke-width="0.473" d="M576.03,221.7c0,0-17.066,17.151-14.02,18.19
			c3.048,1.039,22.432-21.698,22.432-21.698l-4.511-0.39L576.03,221.7z"/>
<path fill="#452C25" stroke="#000000" stroke-width="0.473" d="M577.39,224.42c0,0-17.065,17.151-14.018,18.19
			c3.046,1.039,22.43-21.698,22.43-21.698l-4.51-0.39L577.39,224.42z"/>
<path fill="#452C25" stroke="#000000" stroke-width="0.473" d="M578.66,200.87c0,0-12.678,15.851-10.85,18.58
			c1.828,2.729,13.409-7.277,17.066-14.292c3.657-7.016-6.095-4.807-6.095-4.807"/>
<path fill="#452C25" stroke="#000000" stroke-width="0.473" d="M578.26,217.71c0,0-10.867,20.358-8.063,19.189
			c2.804-1.17,13.82-16.48,15.039-19.858c1.22-3.378,0.808-6.908,0.808-6.908l-8.411,5.067l0.721,3.944"/>
<path fill="#452C25" stroke="#000000" stroke-width="0.404" d="M578.33,211.01c0,0,9.018-16.228-0.063,3.056
			c-9.08,19.284-12.477,16.1-12.477,16.1c-0.7-1.097,7.895-14.163,7.895-14.163s6.383-10.054,7.913-11.009"/>
<path fill="#452C25" stroke="#000000" stroke-width="0.431" d="M588,208.86c0,0,10.029-16.116-0.024,3.06
			C577.922,231.096,574,227.855,574,227.855c-0.815-1.111,8.783-14.066,8.783-14.066s7.122-9.971,8.851-10.905"/>
<path fill="#452C25" stroke="#000000" stroke-width="0.473" d="M588.39,209.96c0,0-10.125,21.095-7.809,22.654
			c0,0,8.411-9.485,10.605-17.02c2.194-7.536,0-0.52,0-0.52l2.812-13.559"/>
<path fill="#452C25" stroke="#000000" stroke-width="0.473" d="M598.82,205.26c0,0-10.125,21.095-7.81,22.654
			c0,0,8.411-9.485,10.606-17.021c2.194-7.536,0-0.52,0-0.52l2.811-13.559"/>
<path fill="#452C25" stroke="#000000" stroke-width="0.473" d="M584.32,202.05c0,0-12.678,15.851-10.851,18.58
			c1.829,2.729,13.409-7.277,17.067-14.292c3.657-7.016-6.094-4.807-6.094-4.807"/>
</g>
<g id="condor">
<g>
<path fill="#452C25" stroke="#000000" stroke-width="0.5481" d="M662.23,304.61c0,0-4.205,9.729-1.928,10.683
				c2.277,0.953,8.059-0.573,12.964-9.348s-2.909-5.492-2.909-5.492L662.23,304.61L662.23,304.61z"/>
<path fill="#452C25" stroke="#000000" stroke-width="0.5481" d="M688.15,311.1c0,0-0.699,12.781,0,13.735
				c0.7,0.953,7.184,0.953,7.532-8.584c0.351-9.539-1.4-9.92-1.4-9.92l-6.308,4.387"/>
<path fill="#452C25" stroke="#000000" stroke-width="0.5481" d="M692.03,295.69c0,0-4.555,14.307-0.175,17.169
				c4.379,2.861,7.884-14.117,8.059-17.932S692.03,295.689,692.03,295.69L692.03,295.69z"/>
<path fill="#452C25" stroke="#000000" stroke-width="0.5481" d="M695.16,313.96c0,0,0.876,13.354,3.328,13.925
				c2.453,0.573,6.481-3.814,6.481-7.248c0-3.434-4.205-11.446-4.205-11.446l-5.781,4.197"/>
<path fill="#452C25" stroke="#000000" stroke-width="0.5481" d="M695.28,297.97c0,0-4.555,14.307-0.176,17.168
				c4.38,2.862,7.885-14.116,8.06-17.931C703.339,293.391,695.28,297.969,695.28,297.97L695.28,297.97z"/>
<path fill="#452C25" stroke="#000000" stroke-width="0.5481" d="M695.63,275.01c0,0-6.658,6.868-6.481,10.683
				c0.174,3.815,9.81-5.151,10.686-6.869C700.709,277.108,695.629,275.01,695.63,275.01L695.63,275.01z"/>
<path fill="#452C25" stroke="#000000" stroke-width="0.5481" d="M691.061,271.16c0,0-5.257,9.729-3.854,12.781
				c1.401,3.052,6.481-2.289,8.935-5.722S691.061,271.16,691.061,271.16L691.061,271.16z"/>
<path fill="#452C25" stroke="#000000" stroke-width="0.5481" d="M679.24,272.84c0,0-3.505,13.163-0.876,14.498
				c5.143,2.613,8.465-9.111,8.935-13.545C687.824,268.833,679.24,272.84,679.24,272.84L679.24,272.84z"/>
<path fill="#452C25" stroke="#000000" stroke-width="0.5481" d="M686.82,272.73c0,0-6.657,6.868-6.48,10.683
				c0.173,3.814,9.809-5.151,10.685-6.869C691.901,274.828,686.819,272.729,686.82,272.73L686.82,272.73z"/>
<path fill="#452C25" stroke="#000000" stroke-width="0.5481" d="M573.28,273.7c0,0-13.755,6.904-14.959,9.857
				c-1.206,2.954,41.489-4.475,64.946-21.055l-9.515-5.635L573.28,273.7L573.28,273.7z"/>
<path fill="#452C25" stroke="#000000" stroke-width="0.5481" d="M589.51,276.18c0,0-25.054,9.352-6.95,9.717
				c0,0,35.876-7.468,54.988-22.076l-4.827-7.144L589.51,276.18L589.51,276.18z"/>
<path fill="#452C25" stroke="#000000" stroke-width="0.5481" d="M626.311,251.19c0,0-26.453,13.545-23.476,15.071
				c2.978,1.526,21.724-2.671,31.534-8.775c9.812-6.104,14.017-9.538,14.017-9.538l-11.737-3.243L626.311,251.19L626.311,251.19z"/>
<path fill="#452C25" stroke="#000000" stroke-width="0.5481" d="M616.32,280.9c0,0-9.451,7.911-8.356,8.812
				c1.095,0.902,20.419-2.146,35.475-13.958l-1.905-6.975l-25.407,11.748"/>
<path fill="#452C25" stroke="#000000" stroke-width="0.5481" d="M599.85,279.39c0,0-9.056,7.22-7.072,7.809
				c1.984,0.59,9.66,6.035,43.646-16.133l4.01-2.463l-5.995-8.467L599.85,279.39L599.85,279.39z"/>
<path fill="#452C25" stroke="#000000" stroke-width="0.5481" d="M592.86,253.31c-28.581,9.998-57.24,29.914-57.24,29.914
				c2.802-0.955,73.544-29.433,73.544-29.433"/>
<path fill="#452C25" stroke="#000000" stroke-width="0.5481" d="M655.57,297.93c0,0-6.131,9.347-4.905,10.492
				c1.227,1.145,8.761,4.769,17.519-7.25c8.761-12.017-8.234-10.111-8.234-10.111L655.57,297.93L655.57,297.93z"/>
<path fill="#452C25" stroke="#000000" stroke-width="0.5481" d="M648.65,289.83c0,0-9.198,11.541-7.271,13.067
				c1.929,1.526,12.44,1.336,20.324-9.729c7.884-11.064,0.174-0.571,0.174-0.571l-2.276-10.111L648.65,289.83L648.65,289.83z"/>
<path fill="#452C25" stroke="#000000" stroke-width="0.5481" d="M639.8,284.39c0,0-8.935,10.683-8.059,12.399
				c0.877,1.718,12.965,1.146,22.95-9.347c9.986-10.493,1.928-14.307,1.928-14.307l-16.644,10.682"/>
<path fill="#452C25" stroke="#000000" stroke-width="0.5481" d="M623.95,284.87l-5.693,7.917c0,0,1.576,7.439,21.197-6.104
				c19.621-13.545,18.571-12.399,18.571-12.399l-10.514-1.908L623.95,284.87L623.95,284.87z"/>
<path fill="#452C25" stroke="#000000" stroke-width="0.5481" d="M561.45,273.47l-12.438,5.59c0,0-2.811,2.464,4.494,2.648
				c7.305,0.184,22.395-1.835,48.649-16.722c11.87-6.731,19.388-13.148,19.388-13.148l-9.564-3.553l-50.531,25.185H561.45z"/>
<path fill="#452C25" stroke="#000000" stroke-width="0.5481" d="M540.15,281.31c0,0,17.894-1.945,25.005-6.608
				c0,0-1.454,2.175,7.694-1.397l51.975-25.351l-1.732-3.386c0,0-56.615,24.248-60.897,25.598
				C557.91,271.517,540.151,281.31,540.15,281.31L540.15,281.31z"/>
<path fill="#452C25" stroke="#000000" stroke-width="0.6431" d="M670.11,304.2c0,0-1.752,14.183,0.351,14.707
				c2.103,0.525,8.058-3.939,10.511-12.606s-9.634-7.616-9.634-7.616l-1.752,4.989"/>
<path fill="#452C25" stroke="#000000" stroke-width="0.5481" d="M679.4,310.24c0,0-1.052,10.396,0.351,11.35
				c1.401,0.955,4.905,1.336,9.108-6.866c4.205-8.203,2.278-5.151,2.278-5.151l-9.46-5.151L679.4,310.24L679.4,310.24z"/>
<path fill="#452C25" stroke="#000000" stroke-width="0.5481" d="M682.02,292.21c0,0-7.708,16.787-3.326,16.597
				c4.378-0.191,10.336-12.782,11.21-15.643C690.78,290.302,682.02,292.211,682.02,292.21L682.02,292.21z"/>
<path fill="#452C25" stroke="#000000" stroke-width="0.5481" d="M681.35,292.06c0,0-2.9,18.501,1.24,16.934
				c4.141-1.567,6.483-15.499,6.559-18.514C689.225,287.463,681.35,292.06,681.35,292.06L681.35,292.06z"/>
<path fill="#452C25" stroke="#000000" stroke-width="0.5481" d="M687.63,293.93c0,0-4.555,14.307-0.175,17.168
				c4.38,2.862,7.883-14.116,8.059-17.931C695.689,289.351,687.63,293.93,687.63,293.93L687.63,293.93z"/>
<path fill="#452C25" stroke="#000000" stroke-width="0.5481" d="M669.67,289.22c0,0-3.506,13.163-0.877,14.498
				c5.143,2.613,8.466-9.111,8.935-13.545C678.253,285.213,669.67,289.22,669.67,289.22L669.67,289.22z"/>
<path fill="#452C25" stroke="#000000" stroke-width="0.5481" d="M637,262.07c0,0-11.738,9.729-10.338,11.255
				c1.403,1.526,15.068-1.145,21.199-5.341c6.132-4.197,8.584-6.487,8.584-6.487l-10.512-6.486L637,262.07L637,262.07z"/>
<path fill="#452C25" stroke="#000000" stroke-width="0.5481" d="M647.34,252.15c0,0-7.531,6.104-6.132,7.63
				c1.402,1.527,14.892-4.006,17.343-6.677c2.453-2.67,2.278-5.532,2.278-5.532L647.34,252.15L647.34,252.15z"/>
<path fill="#452C25" stroke="#000000" stroke-width="0.5481" d="M654.52,251c0,0-9.635,8.584-7.183,11.637
				c2.453,3.052,16.644-10.492,18.57-12.208C667.834,248.711,654.52,251,654.52,251L654.52,251z"/>
<path fill="#452C25" stroke="#000000" stroke-width="0.5481" d="M650.49,247.38l-20.497,9.729c0,0-17.345,11.255-15.593,12.399
				c1.751,1.146,15.241-2.479,24.877-7.248c9.635-4.769,20.322-12.781,20.322-12.781"/>
<path fill="#452C25" stroke="#000000" stroke-width="0.5481" d="M656.2,258.45c0,0-22.181,19.068-18.851,20.976
				c3.327,1.907,15.367-3.329,25.353-12.486"/>
<path fill="#452C25" stroke="#000000" stroke-width="0.5481" d="M659.84,263.77c0,0-13.383,22.143-11.981,24.24
				c1.401,2.099,10.511-4.96,15.066-10.3c4.556-5.342,8.138-13.231,8.138-13.231"/>
<path fill="#452C25" stroke="#000000" stroke-width="0.5481" d="M666.23,266.6c0,0-13.6,25.273-12.023,27.371
				c1.577,2.097,9.461,0.381,14.191-9.538c4.729-9.921,4.323-16.319,4.323-16.319L666.23,266.6L666.23,266.6z"/>
<path fill="#452C25" stroke="#000000" stroke-width="0.5481" d="M674.13,267.81c0,0-15.112,31.192-12.134,34.244
				c2.979,3.052,19.713-23.656,20.48-27.429c1.347-6.635-8.521-7.388-8.521-7.388"/>
<path fill="#452C25" stroke="#000000" stroke-width="0.5481" d="M642.26,247.19c0,0-13.665,6.486-10.861,7.821
				c2.801,1.335,15.592-4.387,17.343-4.959C650.495,249.478,642.26,247.19,642.26,247.19L642.26,247.19z"/>
<path fill="#452C25" stroke="#000000" stroke-width="0.5481" d="M644.36,249.29c0,0-8.409,6.677-6.657,8.394
				c1.75,1.717,14.541-5.15,16.993-7.249C657.148,248.335,644.36,249.29,644.36,249.29L644.36,249.29z"/>
<path fill="#452C25" stroke="#000000" stroke-width="0.5817" d="M662,249.82c0,0-11.491,15.452-7.971,16.063
				c3.522,0.609,16.869-9.963,17.053-11.792C671.268,252.261,662,249.821,662,249.82L662,249.82z"/>
<path fill="#452C25" stroke="#000000" stroke-width="0.5481" d="M667.13,253.29c0,0-12.263,15.451-8.761,16.406
				c3.505,0.954,3.854-1.526,3.854-1.526s9.636-8.012,10.336-10.111c0.702-2.099-5.079-4.96-5.079-4.96"/>
<path fill="#452C25" stroke="#000000" stroke-width="0.5481" d="M670.99,256.92c0,0-8.937,15.452-6.658,16.406
				c2.277,0.954,5.956-2.861,9.635-7.44C677.646,261.308,670.99,256.92,670.99,256.92L670.99,256.92z"/>
<path fill="#452C25" stroke="#000000" stroke-width="0.5481" d="M673.26,263.98c0,0-5.256,9.729-3.854,12.781
				c1.4,3.052,6.481-2.288,8.935-5.722C680.794,267.605,673.26,263.98,673.26,263.98L673.26,263.98z"/>
<path fill="#452C25" stroke="#000000" stroke-width="0.5481" d="M675.47,290.98c0,0-3.504,13.163-0.876,14.498
				c5.142,2.613,8.465-9.112,8.936-13.545C684.054,286.973,675.47,290.979,675.47,290.98L675.47,290.98z"/>
<path fill="#452C25" stroke="#000000" stroke-width="0.5481" d="M699.54,273.18c0,0-3.505-1.145-6.132-1.145
				c0,0-7.708-6.104-11.913-6.677c-4.204-0.573-0.613-0.667-0.613-0.667s-0.438-10.016-1.665-10.778c0,0-0.7-10.302-7.182-11.064
				c-6.482-0.764-21.023,0.571-23.652-0.382c-2.627-0.955-10.68-4.313-25.927-0.191c-15.604,4.218-46.304,18.003-47.88,18.385
				c-1.577,0.382,35.268-8.083,45.602-12.663c0,0,10.337-0.763,13.489-1.716c0,0-11.735,5.722-0.876,3.243
				c10.862-2.48,8.409,0,8.409,0s-1.052,2.479,5.081,1.144c6.133-1.336,6.133,0,6.133,0s7.008,2.479,12.438-0.763
				c0,0,2.803,9.73,6.308,11.064c0,0,4.163,8.915,12.923,10.632c0,0,4.161,2.949,5.037,3.521l4.949,1.625l5.296-4.141"/>
<path fill="#452C25" stroke="#000000" stroke-width="0.5481" d="M627.71,246.81c0,0-35.036,12.59-33.812,16.024
				c1.227,3.434,36.614-9.729,42.221-13.354c5.607-3.624-7.884-2.861-7.884-2.861"/>
</g>
<g>
<path fill="#452C25" stroke="#000000" stroke-width="0.4948" d="M869.439,278.12l13.78,7.818c0,0,3.361,2.788-4.018,1.147
				c-7.38-1.641-23.115-7.072-52.843-26.202c-13.44-8.65-17.683-8.407-17.683-8.407l18.734,0.508L869.439,278.12L869.439,278.12z"/>
<path fill="#452C25" stroke="#000000" stroke-width="0.4948" d="M873.99,274.72l13.779,7.819c0,0,3.361,2.788-4.019,1.147
				c-7.378-1.641-23.114-7.072-52.842-26.202c-13.44-8.65-2.628,7.136-2.628,7.136l2.277-10.38L873.99,274.72L873.99,274.72z"/>
<path fill="#452C25" stroke="#000000" stroke-width="0.482" d="M896.91,282.25c0,0-16.455-3.058-22.446-7.443
				c0,0,1.053,1.893-6.995-1.772c0,0,3.103,7.055-19.551-8.38c-22.654-15.432-14.734-7.676-14.734-7.676l6.338-1.635
				c0,0,34.779,13.896,38.594,15.349S896.911,282.249,896.91,282.25L896.91,282.25z"/>
<path fill="#452C25" stroke="#000000" stroke-width="0.5481" d="M810.88,288.41l5.513,7.862c0,0-1.833,7.37-20.97-6.971
				c-19.137-14.34-18.128-13.153-18.128-13.153l10.57-1.475l23.21,13.172"/>
<path fill="#452C25" stroke="#000000" stroke-width="0.5481" d="M786.02,292.35c0,0,8.89,11.628,6.91,13.075
				c-1.979,1.445-12.476,0.824-19.971-10.557c-7.494-11.38-0.157-0.58-0.157-0.58l0.696-18.399l12.716,15.896"/>
<path fill="#452C25" stroke="#000000" stroke-width="0.5481" d="M795.15,287c0,0,8.558,11.042,7.622,12.721
				c-0.934,1.68-12.995,0.612-22.61-10.283c-9.614-10.894-1.43-14.376-1.43-14.376l16.263,11.359"/>
<path fill="#452C25" stroke="#000000" stroke-width="0.5481" d="M843.91,280.48c0,0,24.388,10.49,6.301,9.804
				c0,0-35.432-9.542-53.763-25.243l5.185-6.855l41.994,21.683"/>
<path fill="#452C25" stroke="#000000" stroke-width="0.5481" d="M856.71,277.45c0,0,13.2,8.008,14.183,11.052
				c0.983,3.044-41.02-7.846-63.179-26.296l9.896-4.845L856.71,277.45L856.71,277.45z"/>
<path fill="#452C25" stroke="#000000" stroke-width="0.5481" d="M818.37,284.71c0,0,9.546,7.837,8.462,8.748
				c-1.082,0.91-20.442-1.986-35.64-13.683l1.819-6.988l25.547,11.549"/>
<path fill="#452C25" stroke="#000000" stroke-width="0.5481" d="M834.7,284.04c0,0,9.416,6.495,7.465,7.179
				c-1.953,0.683-9.341,6.488-44.394-14.043l-4.131-2.27l5.564-8.742l35.514,17.305"/>
<path fill="#452C25" stroke="#000000" stroke-width="0.5481" d="M798.72,264.81c0,0,11.394,10.204,9.94,11.672
				c-1.455,1.467-15.018-1.763-20.998-6.208c-5.98-4.445-10.337-10.143-10.337-10.143l12.712-2.741L798.72,264.81L798.72,264.81z"/>
<path fill="#452C25" stroke="#000000" stroke-width="0.5481" d="M785.14,247.77l20.757,12.372c0,0,16.94,11.959,15.152,13.03
				c-1.792,1.072-15.144-3.104-24.607-8.266C786.978,259.745,776,248.629,776,248.629"/>
<path fill="#452C25" stroke="#000000" stroke-width="0.5481" d="M772.04,306.29c0,0,3.865,9.894,1.556,10.754
				c-2.311,0.861-8.034-0.902-12.632-9.873c-4.599-8.97,2.428-4.291,2.428-4.291L772.04,306.29L772.04,306.29z"/>
<path fill="#452C25" stroke="#000000" stroke-width="0.5481" d="M778.92,299.89c0,0,5.803,9.592,4.539,10.686
				c-1.266,1.094-8.919,4.406-17.258-7.964c-8.336-12.369,8.58-9.766,8.58-9.766L778.92,299.89L778.92,299.89z"/>
<path fill="#452C25" stroke="#000000" stroke-width="0.5481" d="M761.58,256.61c0,0,19.799,38.228,18.152,40.26
				c-1.65,2.033-9.469-0.007-13.85-10.113c-4.384-10.108-7.966-23.23-7.966-23.23L761.58,256.61L761.58,256.61z"/>
<path fill="#452C25" stroke="#000000" stroke-width="0.5481" d="M784.64,266.33c0,0,16.52,14.042,13.128,15.811
				c-3.394,1.771-9.965-0.791-19.628-10.351c-9.661-9.561,6.345-6.039,6.345-6.039"/>
<path fill="#452C25" stroke="#000000" stroke-width="0.5481" d="M776.64,266.57c0,0,11.809,21.682,10.334,23.722
				c-1.473,2.039-10.331-5.389-14.698-10.914c-4.367-5.524-7.672-13.555-7.672-13.555"/>
<path fill="#452C25" stroke="#000000" stroke-width="0.5481" d="M764.939,258.27c0,0,8.393,15.808,6.086,16.668
				c-2.309,0.86-5.854-3.105-9.371-7.831C758.135,262.381,764.939,258.27,764.939,258.27z"/>
<path fill="#452C25" stroke="#000000" stroke-width="0.5481" d="M765.13,290.6c0,0,3.045,13.297,0.372,14.524
				c-5.229,2.399-8.144-9.453-8.459-13.902C756.689,286.245,765.13,290.6,765.13,290.6L765.13,290.6z"/>
<path fill="#452C25" stroke="#000000" stroke-width="0.5481" d="M754.67,311.68c0,0,0.707,9.956-0.727,10.852
				c-1.434,0.895-4.948,1.132-8.865-7.238c-3.918-8.369-2.097-5.24-2.097-5.24l9.631-4.758l2.091,5.432"/>
<path fill="#452C25" stroke="#000000" stroke-width="0.5481" d="M764.03,309.58c0,0,1.394,10.366-0.722,10.661
				c-2.113,0.295-7.953-3.19-10.187-9.583c-2.232-6.391,9.821-5.132,9.821-5.132l1.624,3.694"/>
<path fill="#452C25" stroke="#000000" stroke-width="0.5481" d="M754.39,277.06c0,0,10.825,24.22,9.083,27.669
				c-3.409,6.752-13.243-14.753-16.213-23.145C743.938,272.195,754.39,277.059,754.39,277.06L754.39,277.06z"/>
<path fill="#452C25" stroke="#000000" stroke-width="0.5481" d="M749.37,281.11c0,0,14.756,26.657,8.531,27.278
				c-6.222,0.621-17.536-19.334-19.433-23.971C736.57,279.778,749.37,281.111,749.37,281.11L749.37,281.11z"/>
<path fill="#452C25" stroke="#000000" stroke-width="0.5481" d="M748.49,286.64c0,0,7.26,25.548,2.582,23.289
				c-4.677-2.259-10.309-21.501-11.076-25.654C739.228,280.121,748.49,286.641,748.49,286.64L748.49,286.64z"/>
<path fill="#452C25" stroke="#000000" stroke-width="0.5481" d="M773.99,250.32c0,0,11.191,17.097,7.563,17.604
				c-3.631,0.507-16.902-11.422-17.025-13.398C764.407,252.551,773.99,250.32,773.99,250.32L773.99,250.32z"/>
<path fill="#452C25" stroke="#000000" stroke-width="0.5481" d="M767,251.04c0,0,14.271,19.479,9.967,20.468
				s-4.627-2.057-4.627-2.057s-11.388-10.264-12.152-12.861c-0.765-2.598,6.393-5.802,6.393-5.802"/>
<path fill="#452C25" stroke="#000000" stroke-width="0.5481" d="M793.99,249.73c0,0,13.431,7.043,10.582,8.261
				c-2.847,1.221-15.43-5.024-17.16-5.668C785.682,251.679,793.99,249.73,793.99,249.73L793.99,249.73z"/>
<path fill="#452C25" stroke="#000000" stroke-width="0.5481" d="M781.14,251.34c0,0,9.814,10.124,7.238,13.549
				c-2.573,3.427-16.206-12.817-18.062-14.881c-1.856-2.065,11.889,0.935,11.889,0.935"/>
<path fill="#452C25" stroke="#000000" stroke-width="0.5481" d="M757.34,265.4c0,0,15.803,30.784,12.893,33.913
				c-2.908,3.13-20.473-23.08-21.084-26.881c-0.61-3.8,8.354-7.609,8.354-7.609"/>
<path fill="#452C25" stroke="#000000" stroke-width="0.6396" d="M748.26,268.19c0,0,6.321,9.632,5.963,14.822
				c-0.358,5.188-9.556-7.427-10.348-9.802C743.081,270.833,748.26,268.19,748.26,268.19L748.26,268.19z"/>
<path fill="#452C25" stroke="#000000" stroke-width="0.5481" d="M761.25,263.2c0,0,4.916,9.938,3.408,12.931
				c-1.505,2.991-8.202-6.037-10.534-9.569C751.791,263.029,761.25,263.2,761.25,263.2L761.25,263.2z"/>
<path fill="#452C25" stroke="#000000" stroke-width="0.6581" d="M738.45,272.97c0,0,7.713,8.557,7.343,13.118
				c-0.371,4.562-11.57-6.654-12.553-8.755C732.261,275.234,738.449,272.97,738.45,272.97L738.45,272.97z"/>
<path fill="#452C25" stroke="#000000" stroke-width="0.5481" d="M788.311,248.28c0,0,11.676,10.475,9.864,12.118
				s-17.606-9.668-19.985-11.866C775.812,246.335,788.31,248.28,788.311,248.28L788.311,248.28z"/>
<path fill="#452C25" stroke="#000000" stroke-width="0.5481" d="M778.439,247.52l9.133,7.691c0,0,8.482,5.67,7.03,7.137
				s-14.741-4.616-17.099-7.384c-2.359-2.77-2.086-5.622-2.086-5.622L778.439,247.52L778.439,247.52z"/>
<path fill="#452C25" stroke="#000000" stroke-width="0.5481" d="M808.53,249.94c0,0,34.577,14.02,33.231,17.401
				c-1.345,3.381-36.25-11.226-41.728-15.078c-5.477-3.853,7.978-2.537,7.978-2.537"/>
<path fill="#452C25" stroke="#000000" stroke-width="0.5481" d="M809.78,254.39c0,0,25.965,14.621,22.936,16.024
				c-3.028,1.403-21.614-3.562-31.206-10.064c-9.593-6.503-13.677-10.107-13.677-10.107l11.842-2.759L809.78,254.39L809.78,254.39z"
				/>
<path fill="#452C25" stroke="#000000" stroke-width="0.5481" d="M745.86,272.16c0,0,4.915,9.938,3.409,12.931
				c-1.507,2.993-6.398-2.554-8.729-6.085C738.206,275.472,745.86,272.16,745.86,272.16L745.86,272.16z"/>
<path fill="#452C25" stroke="#000000" stroke-width="0.5481" d="M747.03,294.57c0,0,4.056,14.484-0.42,17.163
				c-4.476,2.68-7.388-14.43-7.431-18.249C739.136,289.663,747.03,294.57,747.03,294.57L747.03,294.57z"/>
<path fill="#452C25" stroke="#000000" stroke-width="0.5481" d="M726.92,270.71c0,0,14.438-6.338,16.997-5.831
				c0,0,3.028-0.761,4.657-2.029c1.631-1.267,5.356-4.31,5.356-4.31s-2.562-17.495,15.834-15.719
				c18.396,1.774,42.61,4.057,47.501,4.817c4.889,0.76,22.818,5.832,27.01,7.86s31.501,14.39,37.09,16.419
				c3.31,1.201,10.611,5.766,16.016,9.291c3.722,2.427-0.115,0.689-0.115,0.689s-44.229-23.479-59.863-26.619
				c-3.912-0.786,0.269,4.479,0.269,4.479s-10.16-4.006-14.351-5.781c-4.192-1.774-7.685-2.536-11.643-2.283
				c-3.958,0.254-6.984-0.506-9.313-1.267c-2.33-0.76-15.602-1.267-17.93-1.521c-2.328-0.253-4.191-0.76-4.191-0.76l0.932,1.521
				l-6.52-1.015l-1.863,2.789c0,0-6.286,1.267-6.753-0.762c-0.464-2.027-3.726,9.128-5.355,12.424
				c-1.63,3.297-7.685,3.295-9.547,5.325c-1.862,2.028-3.026,3.295-3.956,3.803c-0.933,0.507-5.589,3.296-7.221,3.296
				c-1.63,0-11.64,0.761-11.64,0.761l-2.562-4.057l1.163-1.521L726.92,270.71z"/>
<path fill="#452C25" stroke="#000000" stroke-width="0.5481" d="M745.91,311.7c0,0,0.258,12.801-0.476,13.725
				c-0.735,0.925-7.211,0.66-7.231-8.887c-0.02-9.546,1.743-9.855,1.743-9.855l6.149,4.643"/>
<path fill="#452C25" stroke="#000000" stroke-width="0.5481" d="M742.561,296.15c0,0,4.056,14.485-0.42,17.163
				c-4.475,2.68-7.388-14.43-7.431-18.249C734.665,291.244,742.56,296.149,742.561,296.15L742.561,296.15z"/>
<path fill="#452C25" stroke="#000000" stroke-width="0.5481" d="M739.24,298.29c0,0,4.056,14.485-0.42,17.163
				c-4.476,2.68-7.389-14.43-7.432-18.249C731.345,293.384,739.24,298.289,739.24,298.29L739.24,298.29z"/>
</g>
<g>
<path fill="#D9C0B9" stroke="#000000" stroke-width="0.5481" d="M741.9,357.31c0,0,2.486,3.094,2.178,4.1
				c0,0,2.558-2.579-0.734-6.24L741.9,357.31L741.9,357.31z"/>
<path fill="#D9C0B9" stroke="#000000" stroke-width="0.5481" d="M721.32,351.43h1.492l0.567,1.392l-0.212,1.29l-1.289,0.593
				c0,0-2.123-0.541-1.601,1.986C720.278,356.691,719.281,352.048,721.32,351.43L721.32,351.43z"/>
<path fill="#D9C0B9" stroke="#000000" stroke-width="0.5481" d="M731.86,361.82l1.54-1.702l1.656,0.876
				c0,0-0.686,4.488-0.946,4.823s-0.309,0.386-0.309,0.515s-0.261-0.85-0.758-1.418C732.548,364.348,732.026,361.871,731.86,361.82
				L731.86,361.82z"/>
<path fill="#D9C0B9" stroke="#000000" stroke-width="0.5481" d="M715.75,356.23l-0.759-2.267l0.883-1.194l1.782-0.02l0.757,0.356
				c0,0,1.435,3.273,0.18,4.989c0,0-0.53-1.847-1.14-2.102C717.453,355.993,716.125,355.785,715.75,356.23z"/>
<path fill="#D9C0B9" stroke="#000000" stroke-width="0.5481" d="M699.07,360.14c0,0-2.512,4.195,0.746,6.295
				c0,0-0.202-3.914,2.353-4.755L699.07,360.14z"/>
<path fill="#D9C0B9" stroke="#000000" stroke-width="0.5481" d="M690.43,358.44l2.271-0.586l0.218,0.089
				c0,0-1.489,2.876-1.085,3.573C692.24,362.212,689.804,360.253,690.43,358.44L690.43,358.44z"/>
</g>
<path fill="#BD8759" stroke="#000000" stroke-width="0.5481" d="M730.39,333.74c0,0,0.081,7.797,0.081,9.183
			c0,1.387-0.16,3.466-0.956,4.678c-0.794,1.213-1.591,1.907-2.863,1.907c-1.273,0-4.614-0.173-5.251,1.039
			c-0.636,1.213-1.115,1.907-1.115,1.907s2.069-1.213,2.387,0c0.318,1.212-0.794,2.252-0.794,2.252s1.909,0.347,3.657-0.693
			c1.751-1.039,2.706-1.212,3.503-1.212c0.796,0,1.433,0.866,1.433,0.866s0.477,2.599,0.316,4.159
			c-0.159,1.559-0.477,4.679,1.273,4.679c0,0,0.636-1.56,1.272-1.733s2.387,1.559,2.069,2.079c0,0,0.318-3.292-0.318-5.197
			s-0.955-3.985-0.955-3.985s5.411,1.906,5.888,2.599c0.478,0.693,1.751,1.906,2.228,1.733c0.477-0.173,0-1.733,0.954-2.079
			c0.956-0.347,1.433,0.519,1.433,0.519s-1.591-3.638-3.978-4.851c-2.387-1.212-3.979-1.213-4.933-2.252
			c-0.955-1.04-1.116-2.252-1.273-3.466c-0.159-1.213,0.043-11.687,0.043-11.687L730.39,333.74L730.39,333.74z"/>
<path fill="#BD8759" stroke="#000000" stroke-width="0.5481" d="M703.37,353.57c0,0-3.962,3.066-4.409,4.511
			c-0.445,1.445-0.57,2.837-0.57,2.837s3.547-0.429,3.113,1.527c0,0,1.15,0.663,2.98-3.584c1.827-4.248,3.557-6.081,4.854-5.958
			c1.297,0.123,2.948,1.385,3.781,2.271c0.834,0.888,1.981,1.549,3.426,1.134c0,0-1.517-2.312-0.559-2.815
			c0.957-0.505,2.415-0.408,2.415-0.408s-1.21-2.878-3.809-3.294c-2.599-0.417-4.398-1.141-3.782-2.272
			c0.618-1.131,3.943-9.912,3.943-9.912l-4.406-6.469l-1.766,5.628c0,0,0.575,3.327,0.598,4.18c0.023,0.852-3.503,8.125-3.978,8.547
			c-0.474,0.423-9.92,4.074-11.044,4.434c-1.121,0.361-3.473,3.156-3.473,3.156l-0.269,2.099c0,0,1.583-1.294,2.09-0.525
			c0,0,1.095-1.383,2.079-0.864c0.983,0.519,0.828,0.716,0.828,0.716s1.747-1.151,2.057-1.716c0.309-0.567,0.393-0.496,0.393-0.496
			s1.501-0.269,2.79-0.486"/>
<g>
<path fill="none" stroke="#000000" stroke-width="0.5481" d="M708.49,345.51c-0.415,0.075-0.705,0.013-0.976-0.177"/>
<path fill="none" stroke="#000000" stroke-width="0.5481" d="M710.01,341.66c-0.492-0.07-0.937-0.229-1.308-0.464"/>
<path fill="none" stroke="#000000" stroke-width="0.5481" d="M708.439,343.64c0.294,0.166,0.633,0.232,0.977,0.178"/>
<path fill="none" stroke="#000000" stroke-width="0.5481" d="M705.2,349.67c0.188,0.131,0.41,0.213,0.653,0.232"/>
<path fill="none" stroke="#000000" stroke-width="0.5481" d="M732.38,346.04c0.649,0.113,1.241,0.459,1.91,0.52"/>
<path fill="none" stroke="#000000" stroke-width="0.5481" d="M733.5,344.13c-0.515,0.128-0.955,0.026-1.272-0.347"/>
<path fill="none" stroke="#000000" stroke-width="0.5481" d="M733.811,341.88c-0.594,0.074-1.231,0.04-1.751-0.173"/>
<path fill="none" stroke="#000000" stroke-width="0.5481" d="M731.59,349.5c0.605,0.082,1.166,0.379,1.751,0.52"/>
<path fill="none" stroke="#000000" stroke-width="0.5481" d="M731.75,351.93c0.291-0.068,0.567-0.014,0.796,0.173"/>
<path fill="none" stroke="#000000" stroke-width="0.5481" d="M732.22,358.51c0.397-0.07,0.783-0.013,1.113,0.174"/>
<path fill="none" stroke="#000000" stroke-width="0.5481" d="M712.33,350c-0.501,0.077-0.901,0.382-1.108,0.873"/>
<path fill="none" stroke="#000000" stroke-width="0.5481" d="M715.57,350.31c-0.698,0.403-1.318,0.968-1.409,1.779"/>
<path fill="none" stroke="#000000" stroke-width="0.5481" d="M695.45,353.88c0.543,0.491,1.341,0.781,1.812,1.234"/>
<path fill="none" stroke="#000000" stroke-width="0.5481" d="M738.11,351.24c-0.412,0.189-0.687,0.563-0.795,1.04"/>
<path fill="none" stroke="#000000" stroke-width="0.5481" d="M740.34,351.93c-0.282,0.113-0.454,0.36-0.477,0.693"/>
</g>
<path fill="#452C25" stroke="#000000" stroke-width="0.5492" d="M747.46,301.88c0,0-1.226-5.542-2.103-6.307
			c-0.876-0.765,0.352-1.528,0.352-1.528s-2.277-5.543-3.68-6.498c-1.401-0.956,0.175-1.72,0.175-1.72s-2.452-3.823-4.204-4.968
			c-1.751-1.148,0-1.339,0-1.339s-1.83-5.132-6.1-7.483c0,0-2.83-2.977-5.717-3.797c-2.89-0.821-10.049-1.583-18.704-1.424
			c-9.118,0.167-12.983,6.486-12.983,6.486l-0.583,7.333l1.313-0.895l-1.928,9.128c-0.305,2.088,1.635,5.717,1.742,10.08
			c0.033,1.381,0.119,2.826,0.275,4.307c0.415,3.915,1.331,8.073,3.109,11.903c0.141,0.302,0.27,1.19,0.439,0.902
			c0.446-0.766,1.445,2.585,2.346,3.786c0,0,0.54,4.556,0.971,2.867c0.168-0.656,1.631,2.58,2.534,4.61
			c0.327,0.739,2.053,5.754,1.987,3.47c-0.072-2.498,1.516,5.322,1.516,6.444l2.103-3.058l1.051,3.441l1.751-0.192l-0.525,3.249
			c0,0,4.905-4.012,5.082-5.542c0.173-1.528,0.35-2.675,0.35-2.675l1.576-1.529l2.453-3.823c0,0,6.133,4.778,6.832,6.499
			c0.701,1.719,1.403,3.249,1.403,3.249l1.576-1.53l1.401,3.44l0.877-1.719l0.851,2.388l0.074-0.146l0.561,1.575
			c0.423,0.397,1.404,0.597,3.243-2.479c2.627-4.396,2.454-7.835,2.627-8.6c0.176-0.765,1.228,1.338,1.228,1.338
			s2.277-4.205,1.927-6.88c-0.351-2.676,1.403-1.72,1.403-1.72s0.35-7.071,0-8.791c-0.353-1.721,1.224-1.338,1.224-1.338
			s-0.524-8.409-1.051-9.364C745.708,302.071,747.46,301.88,747.46,301.88L747.46,301.88z"/>
<g>
<path d="M735.18,282.43c1.236,0.37,1.84,1.765,2.37,2.847c-0.034-0.067,0.077-0.381,0.014-0.515
				c-0.53-1.082-1.146-2.494-2.384-2.866C735.188,281.899,735.098,282.405,735.18,282.43"/>
<path d="M736.3,287.71c2.285,1.933,2.481,4.569,2.354,7.455c-0.004,0.086,0.031,0.597,0.045,0.269
				c0.136-3.053,0.099-6.145-2.398-8.256C736.357,287.226,736.195,287.621,736.3,287.71"/>
<path d="M741.05,290.41c1.258,2.069,1.376,4.351,1.378,6.741c0,0.303,0.053,0.303,0.053,0c-0.001-2.539-0.065-5.029-1.418-7.255
				C741.098,289.951,740.975,290.288,741.05,290.41"/>
<path d="M742.71,300.4c-0.142,1.478-0.409,2.93-0.693,4.386c-0.021,0.104,0.019,0.507,0.026,0.459
				c0.29-1.481,0.56-2.963,0.703-4.469C742.754,300.709,742.729,300.191,742.71,300.4"/>
<path d="M741.18,308.06c0.119,0.968,0.243,1.929,0.141,2.909c-0.008,0.068,0.015,0.584,0.036,0.376
				c0.131-1.232,0.011-2.438-0.14-3.661C741.191,307.474,741.172,307.991,741.18,308.06"/>
<path d="M738.23,298.44c0,1.636,0.012,3.27,0.146,4.901c0.018,0.208,0.043-0.307,0.037-0.377
				c-0.123-1.506-0.131-3.014-0.131-4.524C738.283,298.138,738.23,298.138,738.23,298.44"/>
<path d="M736.98,309.06c0.127,1.553,0.131,3.109,0.131,4.667c0,0.303,0.053,0.303,0.053,0c0-1.683-0.009-3.366-0.147-5.043
				C736.998,308.475,736.975,308.991,736.98,309.06"/>
<path d="M743.99,307.71c0.676,0.714,1.091,1.553,1.244,2.534c0.017,0.104,0.034-0.079,0.036-0.096
				c0.011-0.12,0.011-0.245-0.01-0.364c-0.159-1.005-0.58-1.875-1.271-2.607C744.053,307.245,743.888,307.602,743.99,307.71"/>
<path d="M743.57,296.99c0.694,0.581,1.26,1.286,1.818,1.999c-0.065-0.083,0.096-0.41,0-0.532c-0.559-0.713-1.123-1.419-1.818-2
				C743.629,296.505,743.466,296.902,743.57,296.99"/>
<path d="M737.811,305.01c-0.01,1.46-0.139,2.906-0.406,4.341c-0.021,0.104,0.018,0.507,0.025,0.46
				c0.298-1.586,0.422-3.187,0.432-4.801C737.865,304.708,737.813,304.708,737.811,305.01"/>
<path d="M734.75,308.2c0.119,1.305,0.119,2.604,0,3.908c-0.005,0.069,0.02,0.584,0.037,0.376c0.141-1.556,0.141-3.106,0-4.66
				C734.769,307.616,734.744,308.131,734.75,308.2"/>
<path d="M724.71,273.96c0.802,0.134,1.479,0.496,2.197,0.866c0.022,0.01,0.329,0.201,0.385,0.123
				c0.056-0.078-0.216-0.319-0.233-0.336c-0.432-0.426-0.953-0.83-1.491-1.108c-0.916-0.472-1.81-0.964-2.836-1.135
				c-0.203-0.033,0.554,0.691,0.605,0.733C723.705,273.398,724.229,273.88,724.71,273.96"/>
<path d="M697.43,300.41c0.52,0.995,0.6,2.146,1.12,3.142c-0.033-0.064,0.08-0.384,0.014-0.514
				c-0.519-0.996-0.6-2.147-1.118-3.142C697.477,299.959,697.362,300.28,697.43,300.41"/>
<path d="M702.189,273.43c1.174-0.416,2.415-0.426,3.636-0.572c0.058-0.007,0.021-0.535,0-0.533
				c-1.22,0.145-2.461,0.156-3.636,0.571C702.104,272.928,702.206,273.424,702.189,273.43"/>
<path d="M709.18,272.86c1.111-0.526,2.291-0.57,3.496-0.57c0.039,0,0.039-0.534,0-0.534c-1.205,0.001-2.385,0.046-3.496,0.572
				C709.085,272.373,709.21,272.846,709.18,272.86"/>
<path d="M697.02,279.04c-0.145,0.026-0.154,0.144-0.162,0.275c-0.008,0.119-0.012,0.246,0.011,0.364
				c0.016,0.102,0.033-0.08,0.035-0.096c-0.008,0.1,0.053,0.001,0.117-0.011C697.087,279.561,697.031,279.039,697.02,279.04"/>
<path d="M696.29,297.87c0,0.985,0.005,1.969,0.152,2.943c0.018,0.103,0.036-0.08,0.037-0.095
				c0.007-0.121,0.008-0.245-0.011-0.366c-0.125-0.823-0.126-1.651-0.126-2.482C696.342,297.568,696.289,297.568,696.29,297.87"/>
<path d="M730.99,279.29c0.495,0.142,0.804,0.503,0.972,0.99c0.007,0.022,0.031-0.163,0.031-0.185
				c0.004-0.101,0.015-0.231-0.019-0.328c-0.168-0.493-0.481-0.864-0.984-1.01C730.997,278.759,730.911,279.267,730.99,279.29"/>
<path d="M731.55,287.85c0.776,0.814,1.351,1.759,1.672,2.847c-0.025-0.087,0.058-0.366,0.014-0.514
				c-0.323-1.095-0.906-2.048-1.686-2.866C731.613,287.384,731.447,287.745,731.55,287.85"/>
<path d="M729.73,281.57c0.758,0.656,1.399,1.423,2.096,2.142c-0.063-0.065,0.104-0.427,0-0.533
				c-0.696-0.718-1.339-1.486-2.096-2.142C729.787,281.089,729.626,281.48,729.73,281.57"/>
<path d="M731.82,295.82c0.22,1.283-0.075,2.377-0.552,3.512c-0.06,0.14,0.045,0.439,0.015,0.515
				c0.609-1.453,0.831-2.928,0.564-4.486C731.84,295.314,731.802,295.716,731.82,295.82"/>
<path d="M733.77,300.24c0.102,0.659,0.119,1.309,0,1.968c-0.021,0.117-0.016,0.245-0.009,0.364
				c0.001,0.017,0.018,0.197,0.036,0.095c0.17-0.954,0.145-1.934,0-2.887c-0.016-0.103-0.035,0.079-0.036,0.095
				C733.754,299.995,733.752,300.119,733.77,300.24"/>
<path d="M741.33,315.84c0.498,1.786,0.539,3.611,0.54,5.456c0.001,0.303,0.053,0.303,0.053,0
				c-0.001-2.015-0.033-4.019-0.579-5.969C741.369,315.415,741.289,315.69,741.33,315.84"/>
<path d="M740.07,319.47c-0.412,1.261-0.828,2.519-1.398,3.714c-0.064,0.134,0.047,0.445,0.014,0.513
				c0.571-1.195,0.985-2.454,1.396-3.712C740.132,319.838,740.042,319.553,740.07,319.47"/>
<path d="M697.86,307.42c1.17,1.525,1.803,3.35,2.79,4.989c-0.033-0.056,0.086-0.391,0.014-0.514
				c-0.99-1.644-1.628-3.477-2.803-5.008C697.926,306.973,697.765,307.296,697.86,307.42"/>
<path d="M705.27,307.6c-1.066,0.141-1.328-1.394-2.236-1.713c0.016,0.005-0.086,0.502,0,0.532
				c0.903,0.32,1.171,1.855,2.236,1.714C705.33,308.125,705.286,307.598,705.27,307.6"/>
<path d="M701.07,314.69c0.767,1.346,1.271,2.83,2.097,4.141c-0.034-0.053,0.089-0.394,0.015-0.514
				c-0.826-1.312-1.331-2.794-2.098-4.141C701.117,314.234,700.999,314.564,701.07,314.69"/>
<path d="M705.97,316.42c0.862,1.037,1.642,2.127,2.089,3.419c-0.026-0.082,0.065-0.369,0.015-0.515
				c-0.451-1.298-1.237-2.396-2.104-3.437C706.035,315.966,705.871,316.302,705.97,316.42"/>
<path d="M705.54,321.55c0.435,0.897,0.823,1.816,1.259,2.714c-0.032-0.067,0.078-0.381,0.014-0.514
				c-0.436-0.897-0.824-1.816-1.259-2.713C705.586,321.105,705.476,321.417,705.54,321.55"/>
<path d="M710.15,322.55c0.252,0.942,0.392,1.908,0.399,2.885c0.005,0.302,0.056,0.303,0.053,0
				c-0.011-1.15-0.141-2.287-0.438-3.398C710.187,322.127,710.109,322.4,710.15,322.55"/>
<path d="M708.189,326.81c0.303,1.356,0.7,2.684,1.404,3.883c-0.031-0.057,0.087-0.391,0.016-0.514
				c-0.695-1.183-1.094-2.491-1.392-3.829C708.204,326.302,708.167,326.707,708.189,326.81"/>
<path d="M709.32,308.71c1.104,0.423,2.211,0.84,3.355,1.143c-0.004-0.001,0.076-0.513,0-0.533
				c-1.145-0.304-2.251-0.721-3.355-1.143C709.34,308.185,709.231,308.676,709.32,308.71"/>
<path d="M710.16,313.42c1.318,0.734,2.707,1.32,4.054,1.999c-0.033-0.016,0.097-0.483,0-0.531c-1.347-0.68-2.735-1.266-4.054-2
				C710.2,312.909,710.061,313.364,710.16,313.42"/>
<path d="M711.42,318.7c0.682,0.828,1.425,1.588,2.236,2.285c-0.06-0.05,0.104-0.442,0-0.533
				c-0.812-0.697-1.555-1.456-2.236-2.285C711.485,318.246,711.322,318.582,711.42,318.7"/>
<path d="M712.811,325.26c0.566,0.907,0.834,1.913,0.973,2.973c0.014,0.103,0.034-0.081,0.035-0.096
				c0.008-0.121,0.008-0.244-0.01-0.364c-0.142-1.075-0.406-2.104-0.984-3.026C712.856,324.8,712.735,325.14,712.811,325.26"/>
<path d="M716.72,308.95c0.125,0.632,0.273,1.258,0.426,1.883c-0.023-0.092,0.052-0.362,0.015-0.513
				c-0.149-0.608-0.292-1.216-0.414-1.83c-0.02-0.102-0.033,0.078-0.034,0.095C716.704,308.705,716.697,308.834,716.72,308.95"/>
<path d="M726.51,305.04c-0.275,0.694-0.604,1.356-0.979,1.999c-0.072,0.124,0.047,0.457,0.014,0.514
				c0.375-0.644,0.703-1.305,0.978-1.999C726.581,305.412,726.479,305.116,726.51,305.04"/>
<path d="M730.54,304.87c0,1.123-0.019,2.24-0.266,3.342c-0.024,0.103,0.015,0.507,0.024,0.459
				c0.282-1.248,0.293-2.526,0.294-3.801C730.593,304.568,730.54,304.568,730.54,304.87"/>
<path d="M731.39,311.06c0.103,0.964-0.004,1.913-0.134,2.867c-0.015,0.105,0.021,0.504,0.026,0.459
				c0.169-1.232,0.275-2.461,0.145-3.702C731.405,310.475,731.383,310.991,731.39,311.06"/>
<path d="M734.47,316.92c-0.182,1.326-0.982,2.386-1.942,3.249c-0.104,0.092,0.059,0.479,0,0.533
				c0.983-0.884,1.782-1.966,1.969-3.323C734.513,317.273,734.476,316.875,734.47,316.92"/>
<path d="M724.55,311.18c-0.278,0.555-0.64,1.055-0.979,1.57c-0.048,0.071-0.021,0.25-0.019,0.329
				c0,0.018,0.015,0.212,0.029,0.185c0.341-0.516,0.701-1.017,0.979-1.57c0.042-0.083,0.021-0.239,0.019-0.328
				C724.581,311.348,724.563,311.155,724.55,311.18"/>
<path d="M725.68,319.03c-0.418,0.569-0.842,1.132-1.398,1.57c-0.105,0.083,0.057,0.489,0,0.533
				c0.555-0.438,0.979-1.001,1.398-1.57c0.044-0.06,0.025-0.198,0.025-0.267C725.705,319.266,725.67,319.043,725.68,319.03"/>
<path d="M722.18,323.17c-1.365-1.352-2.006-3.085-1.391-5.046c0.046-0.148-0.041-0.429-0.015-0.513
				c-0.686,2.183-0.232,4.473,1.405,6.093C722.117,323.641,722.283,323.272,722.18,323.17"/>
<path d="M717.561,318.81c0.105,0.808,0.1,1.591-0.134,2.369c-0.044,0.149,0.039,0.428,0.014,0.514
				c0.325-1.083,0.292-2.231,0.147-3.342c-0.016-0.103-0.035,0.08-0.036,0.095C717.544,318.566,717.545,318.689,717.561,318.81"/>
<path d="M728.189,324.04c-0.289,0.969-0.811,1.817-1.258,2.713c-0.065,0.132,0.047,0.448,0.015,0.514
				c0.447-0.896,0.97-1.746,1.258-2.713C728.248,324.405,728.165,324.126,728.189,324.04"/>
<path d="M735.04,326.89c-0.592,1.041-1.273,2.021-1.958,3c-0.078,0.112,0.047,0.467,0.015,0.513
				c0.686-0.978,1.365-1.957,1.956-2.998C735.125,327.278,735.006,326.949,735.04,326.89"/>
<path d="M738.38,330.49c-0.285,1.83-0.429,3.676-0.568,5.521c-0.007,0.088,0.021,0.598,0.046,0.27
				c0.134-1.784,0.273-3.564,0.549-5.332C738.425,330.845,738.387,330.445,738.38,330.49"/>
<path d="M742.71,324.08c0.011,0.622,0.13,1.235,0.14,1.856c0.005,0.374,0.053,0.028,0.05-0.142
				c-0.009-0.622-0.13-1.235-0.139-1.856C742.756,323.564,742.708,323.911,742.71,324.08"/>
<path d="M696.73,303.93c-0.261,1.837-0.035,3.592,0.564,5.343c-0.027-0.082,0.064-0.369,0.014-0.514
				c-0.493-1.435-0.774-2.797-0.553-4.37C696.771,304.285,696.734,303.884,696.73,303.93"/>
</g>
<path fill="#DCDDDE" d="M697.1,285.19c0,0-0.524-5.308,0.963-5.88c0,0,0.526-4.865,7.01-4.197c0,0,2.189-3.625,5.692-1.717
			c0,0,3.329-1.621,5.256-0.667c1.929,0.955,4.292,2.576,4.468,2.957c0,0,2.802-0.572,4.116,0.477
			c1.315,1.049,0.702,4.483,0.702,4.483s3.152,2.414,3.415,4.545s0.263,2.99-0.439,3.562c0,0,1.402,1.146,1.14,2.766
			c-0.264,1.622-1.577,3.974-1.84,3.974s0.176,4.229-1.226,5.66c-1.402,1.431-2.716,1.717-3.328,1.908
			c-0.613,0.191-2.19,2.479-3.68,2.766c-1.489,0.286-3.503-2.29-3.679-3.053c-0.176-0.762-2.189-1.621-2.189-1.621
			s-4.556,4.865-7.62,4.101c-3.066-0.762-4.556-3.339-4.816-3.815c-0.264-0.477-1.14-4.005-1.14-4.005s-3.416-2.004-3.154-3.911
			c0.263-1.908,1.665-4.197,1.665-4.197L697.1,285.19L697.1,285.19z"/>
<g>
<path fill="#FFFFFF" d="M712.57,281.17c2.951-2.709,6.851-5.562,11.037-4.564c0,0,0.073-0.515,0-0.533
				c-4.188-0.998-8.086,1.855-11.037,4.564C712.466,280.733,712.631,281.114,712.57,281.17"/>
<path fill="#FFFFFF" d="M726.76,284.4c-2.962-2.014-8.136-2.751-11.037-0.268c-0.105,0.089,0.059,0.482,0,0.533
				c2.902-2.483,8.075-1.746,11.037,0.268C726.711,284.899,726.863,284.469,726.76,284.4"/>
<path fill="#FFFFFF" d="M715.46,288.95c1.213,3.929,2.781,7.93,2.096,12.131c-0.018,0.105,0.02,0.506,0.026,0.46
				c0.741-4.552-0.785-8.817-2.109-13.104C715.5,288.523,715.414,288.803,715.46,288.95"/>
<path fill="#FFFFFF" d="M710.72,291.34c0.726,3.975,0.262,7.99-0.009,11.985c-0.006,0.087,0.024,0.597,0.045,0.269
				c0.286-4.237,0.76-8.5-0.009-12.713C710.738,290.834,710.701,291.236,710.72,291.34"/>
<path fill="#FFFFFF" d="M717.04,288.42c3.861,0.916,7.637,3.49,9.716,6.971c-0.033-0.056,0.087-0.391,0.015-0.514
				c-2.084-3.491-5.855-6.07-9.729-6.99C717.038,287.888,716.966,288.404,717.04,288.42"/>
<path fill="#FFFFFF" d="M713.6,293.79c0.014,2.443,0.204,4.888-0.506,7.26c-0.044,0.149,0.039,0.428,0.014,0.514
				c0.761-2.539,0.559-5.155,0.547-7.774C713.649,293.488,713.599,293.486,713.6,293.79"/>
<path fill="#FFFFFF" d="M719.67,293.25c2.426,2.005,4.347,5.036,4.712,8.244c0.024,0.21,0.044-0.307,0.035-0.376
				c-0.371-3.276-2.263-6.346-4.748-8.401C719.727,292.765,719.566,293.163,719.67,293.25"/>
<path fill="#FFFFFF" d="M701.8,299.95c0.804-1.147,1.8-2.455,3.147-2.943c0.087-0.033-0.018-0.527,0-0.534
				c-1.356,0.493-2.351,1.809-3.161,2.963C701.707,299.551,701.833,299.903,701.8,299.95"/>
<path fill="#FFFFFF" d="M707.58,279.07c-0.513-2.183-2.15-3.471-3.907-4.646c0.043,0.028-0.093,0.413,0,0.475
				c1.744,1.167,3.385,2.456,3.894,4.629C707.548,279.445,707.612,279.206,707.58,279.07"/>
<path fill="#FFFFFF" d="M704.16,279.03c-2.022-0.96-4.113-1.073-6.309-1.074c-0.038,0-0.038,0.533,0,0.533
				c2.195,0.002,4.286,0.114,6.309,1.074C704.129,279.548,704.254,279.076,704.16,279.03"/>
<path fill="#FFFFFF" d="M710.48,278.69c0.267-2.098-0.044-4.079-1.852-5.373c0.045,0.033-0.091,0.401,0,0.466
				c1.518,1.087,2.072,2.599,1.828,4.504C710.444,278.38,710.475,278.727,710.48,278.69"/>
<path fill="#FFFFFF" d="M718.09,281.17c1.9-1.009,3.971-0.821,6.044-0.806c0.038,0,0.041-0.532,0-0.532
				c-2.074-0.016-4.144-0.205-6.044,0.805C717.991,280.69,718.128,281.15,718.09,281.17"/>
<path fill="#FFFFFF" d="M721.51,286.27c2.933,0.31,5.168,1.816,7.095,4.028c-0.129-0.149,0.2-0.839,0-1.066
				c-1.928-2.21-4.163-3.717-7.095-4.028C721.467,285.199,721.398,286.258,721.51,286.27"/>
<path fill="#FFFFFF" d="M708.62,294.35c-0.693,2.804-0.163,6.349-3.403,7.498c-0.172,0.061,0.031,1.054,0,1.066
				c3.281-1.163,2.731-4.707,3.43-7.537C708.722,295.074,708.574,294.534,708.62,294.35"/>
<path fill="#FFFFFF" d="M715.45,292.16c1.124,2.948,2.694,5.957,2.089,9.229c-0.038,0.208,0.035,1.013,0.053,0.919
				c0.742-4.031-0.702-7.474-2.115-11.175C715.536,291.289,715.34,291.876,715.45,292.16"/>
<path fill="#FFFFFF" d="M719.67,291.64c2.859,0.364,5.375,2.909,5.755,5.833c0.027,0.206,0.071-0.161,0.072-0.191
				c0.013-0.243,0.012-0.488-0.021-0.729c-0.387-2.976-2.877-5.605-5.807-5.979C719.633,290.569,719.552,291.626,719.67,291.64"/>
<path fill="#FFFFFF" d="M719.64,295.86c0.448,2.449,1.142,4.9,0.274,7.349c-0.102,0.288,0.086,0.866,0.027,1.027
				c1.081-3.055,0.313-6.217-0.25-9.297C719.674,294.847,719.603,295.65,719.64,295.86"/>
<path fill="#FFFFFF" d="M718.09,285.2c3.146-0.532,6.475-1.006,9.197,1.074c-0.107-0.083,0.209-0.906,0-1.066
				c-2.723-2.079-6.051-1.605-9.197-1.074C717.962,284.156,718.068,285.203,718.09,285.2"/>
<path fill="#FFFFFF" d="M712.33,278.95c0.377-2.602,2.668-4.46,4.967-5.297c0.175-0.063-0.035-1.052,0-1.064
				c-2.373,0.863-4.632,2.775-5.02,5.441c-0.035,0.24-0.032,0.488-0.02,0.729C712.261,278.792,712.3,279.156,712.33,278.95"/>
<path fill="#FFFFFF" d="M709.46,280.51c-0.077-2.883-1.34-5.204-2.583-7.726c0.058,0.117-0.141,0.675-0.025,0.91
				c1.114,2.257,2.451,4.463,2.519,7.067C709.389,281.423,709.468,280.812,709.46,280.51"/>
<path fill="#FFFFFF" d="M706.82,282.06c-0.561-2.567-2.255-4.269-4.494-5.442c0.072,0.039-0.196,0.962,0,1.066
				c2.163,1.132,3.895,2.799,4.441,5.297C706.79,283.077,706.865,282.267,706.82,282.06"/>
<path fill="#FFFFFF" d="M702.58,281.03c-1.469-1.022-3.012-1.985-4.798-2.259c-0.023-0.004-0.097,0.816,0,0.83
				c1.786,0.274,3.328,1.236,4.798,2.259C702.502,281.805,702.743,281.142,702.58,281.03"/>
<path fill="#FFFFFF" d="M711.75,293.09c0.252,2.728,0.592,5.482-0.766,7.97c-0.139,0.254,0.095,0.905,0.027,1.027
				c1.625-2.982,1.112-6.506,0.812-9.75C711.785,291.919,711.737,292.952,711.75,293.09"/>
<path fill="#FFFFFF" d="M714.92,291.62c0.911,2.564,1.988,5.293,1.808,8.076c-0.011,0.176,0.049,1.195,0.091,0.539
				c0.219-3.391-0.748-6.488-1.871-9.643C715.005,290.753,714.818,291.33,714.92,291.62"/>
<path fill="#FFFFFF" d="M717.04,287.88c2.608,0.801,5.196,1.655,7.094,3.758c-0.129-0.143,0.202-0.843,0-1.064
				c-1.897-2.104-4.485-2.958-7.094-3.759C717.06,286.82,716.876,287.829,717.04,287.88"/>
<path fill="#FFFFFF" d="M709.98,282.09c0.275-2.27,0.519-4.531,0.541-6.819c0.005-0.607-0.099-0.605-0.104,0
				c-0.02,2.034-0.265,4.051-0.512,6.066C709.89,281.475,709.93,282.507,709.98,282.09"/>
<path fill="#FFFFFF" d="M705.21,280.64c-1.926-0.876-3.638-2.126-5.256-3.489c0.116,0.097-0.21,0.889,0,1.065
				c1.618,1.364,3.33,2.614,5.256,3.49C705.151,281.68,705.396,280.725,705.21,280.64"/>
<path fill="#FFFFFF" d="M704.42,294.33c-1.236,0.782-2.089,1.874-2.641,3.24c-0.075,0.186-0.043,0.463-0.037,0.656
				c0.001,0.041,0.046,0.418,0.065,0.371c0.546-1.352,1.393-2.43,2.612-3.202C704.627,295.266,704.328,294.387,704.42,294.33"/>
<path fill="#FFFFFF" d="M707.79,296.33c-0.048,1.869-1.077,3.417-2.315,4.709c-0.204,0.213,0.126,0.934,0,1.066
				c1.492-1.558,2.359-3.294,2.415-5.492C707.898,296.274,707.81,295.583,707.79,296.33"/>
<path fill="#FFFFFF" d="M716.61,281.63c1.551-2.45,5.3-2.654,7.803-3.338c0.157-0.042-0.009-1.062,0-1.064
				c-2.536,0.692-6.263,0.897-7.831,3.375C716.432,280.842,716.677,281.526,716.61,281.63"/>
<path fill="#FFFFFF" d="M699.38,281.59c-0.601-0.18-1.151-0.488-1.698-0.795c0.049,0.027-0.123,0.588,0,0.658
				c0.549,0.307,1.098,0.616,1.698,0.796C699.369,282.245,699.479,281.62,699.38,281.59"/>
<path fill="#FFFFFF" d="M699.72,294.13c-0.541,0.222-1.099,0.447-1.473,0.927c-0.089,0.112-0.052,0.4-0.052,0.533
				c0,0.125,0.003,0.251,0.015,0.376c-0.003-0.018,0.025,0.169,0.037,0.156c0.374-0.478,0.932-0.705,1.473-0.925
				c0.083-0.034,0.052-0.467,0.052-0.533C699.771,294.636,699.747,294.118,699.72,294.13"/>
<path fill="#FFFFFF" d="M701.98,294.71c-1.112,0.498-1.922,1.46-2.617,2.445c-0.123,0.177,0.073,0.734,0.022,0.807
				c0.688-0.975,1.496-1.924,2.596-2.415C702.127,295.48,701.937,294.73,701.98,294.71"/>
<path fill="#FFFFFF" d="M706.27,295.77c-0.971,2.366-3.616,4.98-1.697,7.625c-0.066-0.089,0.188-0.807,0.026-1.027
				c-1.327-1.833,1.011-3.893,1.698-5.571C706.412,296.517,706.208,295.92,706.27,295.77"/>
<path fill="#FFFFFF" d="M709.3,295.73c0.073,2.412-0.352,4.792-0.771,7.154c-0.035,0.209,0.036,1.012,0.055,0.92
				c0.49-2.771,0.901-5.534,0.816-8.357C709.377,294.701,709.289,295.391,709.3,295.73"/>
<path fill="#FFFFFF" d="M717.05,292.88c1.758,2.301,3.313,4.777,4.064,7.621c-0.048-0.181,0.107-0.727,0.027-1.027
				c-0.756-2.86-2.325-5.345-4.092-7.659C717.18,291.985,716.859,292.631,717.05,292.88"/>
<path fill="#FFFFFF" d="M717.96,291.03c2.89,2.202,6.108,4.272,8.144,7.389c-0.067-0.101,0.181-0.793,0.026-1.027
				c-2.046-3.133-5.267-5.214-8.171-7.427C718.068,290.047,717.753,290.872,717.96,291.03"/>
<path fill="#FFFFFF" d="M719.66,287.22c1.077-0.104,2.078-0.063,3.102,0.314c0.916,0.338,1.675,1.095,2.509,1.598
				c0.84,0.506,1.688,0.965,2.374,1.688c0.897,0.944,0.905,2.553,1.17,3.768c0.018,0.082,0.082-0.608,0.045-0.785
				c-0.216-0.997-0.329-2.005-0.67-2.969c-0.33-0.941-1.144-1.52-1.938-2.027c-0.951-0.608-1.884-1.224-2.826-1.843
				c-1.119-0.736-2.486-0.775-3.766-0.651C719.566,286.32,719.619,287.224,719.66,287.22"/>
<path fill="#FFFFFF" d="M726.73,293.14c0.317,0.933,0.691,1.846,1.012,2.778c-0.037-0.106,0.081-0.479,0.019-0.667
				c-0.319-0.934-0.692-1.846-1.013-2.778C726.785,292.58,726.666,292.953,726.73,293.14"/>
<path fill="#FFFFFF" d="M718.64,278.41c2.036-0.56,4.118-0.93,6.118-1.621c0.171-0.059-0.028-1.055,0-1.064
				c-2,0.689-4.082,1.06-6.118,1.62C718.484,277.388,718.65,278.408,718.64,278.41"/>
<path fill="#FFFFFF" d="M710.15,279.43c0.285-1.08,0.746-1.959,1.361-2.88c0.758-1.131,0.864-2.549,1.795-3.583
				c0.201-0.223-0.127-0.922,0-1.064c-0.767,0.85-1.032,1.944-1.474,2.983c-0.527,1.246-1.354,2.167-1.71,3.518
				C710.042,278.704,710.198,279.249,710.15,279.43"/>
<path fill="#FFFFFF" d="M703.2,298.49c-0.362,1.753-0.295,3.583,0.352,5.256c-0.06-0.154,0.138-0.742,0.027-1.027
				c-0.423-1.099-0.568-2.136-0.326-3.309c0.048-0.232,0.03-0.495,0.019-0.73C703.268,298.644,703.241,298.288,703.2,298.49"/>
<path fill="#FFFFFF" d="M707.42,301.8c-0.729,0.993-0.739,2.506-0.354,3.647c0.015,0.038,0.062-0.308,0.063-0.351
				c0.005-0.191,0.026-0.432-0.034-0.616c-0.216-0.637-0.057-1.159,0.326-1.678c0.081-0.111,0.049-0.374,0.049-0.501
				C707.469,302.245,707.399,301.826,707.42,301.8"/>
<path fill="#FFFFFF" d="M710.561,300.12c-0.033,1.01-0.572,1.969-0.994,2.856c-0.091,0.194,0.067,0.643,0.021,0.741
				c0.522-1.102,1.004-2.154,1.045-3.394C710.642,300.079,710.579,299.582,710.561,300.12"/>
<path fill="#FFFFFF" d="M710.65,294.2v1.273c0,0.038-0.008,0.533,0.051,0.533c0.063,0,0.053-0.495,0.053-0.533V294.2
				c0-0.037,0.01-0.533-0.053-0.533C710.643,293.667,710.65,294.165,710.65,294.2"/>
<path fill="#FFFFFF" d="M709.22,294.94c0.082,0.15,0.149,0.3,0.204,0.464c0.036,0.225,0.053,0.237,0.052,0.035
				c-0.011,0.089-0.024,0.177-0.041,0.263c-0.044,0.236-0.031,0.492-0.019,0.73c0.001,0.034,0.032,0.395,0.071,0.191
				c0.16-0.874,0.197-1.914-0.239-2.71c-0.027-0.052-0.063,0.335-0.064,0.372C709.179,294.456,709.133,294.782,709.22,294.94"/>
<path fill="#FFFFFF" d="M707.18,294.27c-0.211,0.662-0.352,1.335-0.465,2.021c-0.039,0.236-0.033,0.489-0.019,0.729
				c0.001,0.033,0.036,0.396,0.071,0.191c0.107-0.649,0.24-1.286,0.441-1.914c0.063-0.199,0.04-0.45,0.035-0.654
				C707.241,294.594,707.192,294.227,707.18,294.27"/>
<path fill="#FFFFFF" d="M705.61,294.36c-0.953,1.167-2.224,1.941-3.513,2.662c-0.199,0.112,0.079,1.021,0,1.066
				c1.289-0.722,2.56-1.496,3.513-2.662c0.087-0.109,0.052-0.404,0.052-0.533C705.662,294.839,705.593,294.38,705.61,294.36"/>
<path fill="#FFFFFF" d="M702.89,294.82c-0.581,0.463-1.23,0.798-1.927,1.042c-0.171,0.061,0.031,1.055,0,1.065
				c0.695-0.243,1.346-0.58,1.927-1.041c0.091-0.072,0.052-0.436,0.052-0.533C702.941,295.318,702.894,294.818,702.89,294.82"/>
<path fill="#FFFFFF" d="M699.04,293.88c-0.562,0.25-1.138,0.466-1.699,0.717c-0.149,0.065,0.044,0.835,0,0.855
				c0.562-0.25,1.138-0.466,1.699-0.717C699.19,294.668,698.995,293.9,699.04,293.88"/>
<path fill="#FFFFFF" d="M710.77,293.41c0.011,0.697,0.119,1.374,0.252,2.055c0.039,0.202,0.069-0.156,0.072-0.192
				c0.012-0.235,0.025-0.496-0.019-0.729c-0.092-0.467-0.197-0.94-0.204-1.418c-0.001-0.044-0.05-0.415-0.064-0.371
				C710.738,292.948,710.768,293.21,710.77,293.41"/>
<path fill="#FFFFFF" d="M712.58,292.58c0.009,0.815,0.088,1.6,0.378,2.366c0.017,0.044,0.063-0.33,0.064-0.373
				c0.006-0.197,0.034-0.466-0.036-0.654c-0.161-0.424-0.297-0.88-0.302-1.339c0-0.036,0.008-0.533-0.053-0.533
				C712.572,292.047,712.58,292.544,712.58,292.58"/>
<path fill="#FFFFFF" d="M713.98,292.4c0.242,0.343,0.519,0.812,0.53,1.249c0.001,0.044,0.048,0.416,0.063,0.373
				c0.07-0.193,0.041-0.456,0.036-0.656c-0.017-0.733-0.175-1.391-0.602-1.992c-0.037-0.053-0.064,0.335-0.065,0.372
				C713.939,291.895,713.886,292.267,713.98,292.4"/>
<path fill="#FFFFFF" d="M715.689,291.72c0.599,0.13,1.141,0.374,1.587,0.811c-0.007-0.007,0.052-0.491,0.052-0.533
				c0-0.112,0.039-0.444-0.052-0.533c-0.445-0.437-0.987-0.681-1.587-0.811C715.682,290.652,715.548,291.689,715.689,291.72"/>
<path fill="#FFFFFF" d="M716.6,290.33c0.701,0.584,1.475,1.021,2.378,1.157c0.028,0.005,0.125-1.046,0-1.066
				c-0.903-0.136-1.677-0.573-2.378-1.157c0-0.001-0.053,0.497-0.053,0.533C716.547,289.898,716.508,290.254,716.6,290.33"/>
<path fill="#FFFFFF" d="M718.52,285.7c0.615,0.007,1.212,0.109,1.813,0.231c0.013,0.002,0.141-1.037,0-1.065
				c-0.601-0.123-1.197-0.225-1.813-0.232C718.444,284.633,718.438,285.7,718.52,285.7"/>
<path fill="#FFFFFF" d="M717.63,283.49c0.368-0.604,0.923-1.047,1.458-1.486c0.091-0.074,0.053-0.432,0.053-0.532
				c0-0.037-0.051-0.534-0.053-0.533c-0.549,0.449-1.108,0.905-1.486,1.523c-0.091,0.147-0.041,0.492-0.037,0.655
				C717.565,283.154,717.598,283.541,717.63,283.49"/>
<path fill="#FFFFFF" d="M715.939,281.35c0.107-0.705,0.336-1.33,0.768-1.895c0.087-0.115,0.053-0.399,0.053-0.533
				c0-0.057-0.072-0.508-0.053-0.533c-0.465,0.61-0.705,1.28-0.82,2.041c-0.035,0.239-0.031,0.488-0.019,0.729
				C715.872,281.189,715.909,281.555,715.939,281.35"/>
<path fill="#FFFFFF" d="M714.57,280.36c0.697-0.982,1.166-2.108,1.813-3.125c0.092-0.144,0.041-0.497,0.036-0.656
				c-0.001-0.037-0.031-0.424-0.065-0.372c-0.646,1.017-1.114,2.142-1.813,3.125c-0.094,0.132-0.04,0.505-0.035,0.654
				C714.507,280.024,714.533,280.411,714.57,280.36"/>
<path fill="#FFFFFF" d="M711.45,276.86c0.026,1.196,0.11,2.39,0.363,3.559c0.045,0.201,0.069-0.152,0.072-0.19
				c0.015-0.233,0.031-0.499-0.019-0.729c-0.211-0.964-0.296-1.938-0.316-2.923C711.535,275.829,711.444,276.52,711.45,276.86"/>
<path fill="#FFFFFF" d="M706.39,277.7c0.184,0.433,0.423,0.839,0.639,1.256c0.136,0.263,0.257,0.53,0.363,0.805
				c0.039,0.104,0.072,0.209,0.103,0.317c-0.065-0.216,0.047-0.159-0.085,0.067c-0.145,0.248,0.095,0.912,0.028,1.027
				c0.308-0.53,0.26-1.388,0.121-1.967c-0.219-0.919-0.779-1.677-1.143-2.533C706.479,276.819,706.271,277.422,706.39,277.7"/>
<path fill="#FFFFFF" d="M705.38,279.78c-0.692-0.696-1.478-1.277-2.265-1.852c-0.008-0.005-0.053,0.5-0.053,0.533
				c0,0.091-0.038,0.466,0.053,0.532c0.787,0.576,1.571,1.157,2.265,1.853c-0.008-0.008,0.052-0.491,0.052-0.533
				C705.432,280.199,705.472,279.871,705.38,279.78"/>
<path fill="#FFFFFF" d="M708.689,280.89c0.47-2.338,0.38-4.678-0.578-6.877c0.063,0.145-0.148,0.752-0.029,1.027
				c0.698,1.602,0.908,3.173,0.555,4.929c-0.047,0.233-0.031,0.495-0.019,0.73C708.621,280.734,708.65,281.093,708.689,280.89"/>
<path fill="#FFFFFF" d="M713.65,277.83c0.078,0,0.078-1.066,0-1.066S713.572,277.83,713.65,277.83"/>
<path fill="#FFFFFF" d="M708.04,280.99c0.122-1.321,0.435-2.615,0.566-3.937c0.038-0.371,0.035-0.758,0-1.129
				c-0.025-0.271-0.083-0.27-0.111,0c-0.133,1.32-0.442,2.613-0.566,3.935c-0.034,0.374-0.035,0.758,0,1.13
				C707.955,281.258,708.015,281.261,708.04,280.99"/>
<path fill="#FFFFFF" d="M722.38,289.21c1.146,0.376,2.278,1.154,2.812,2.286c0.035,0.074,0.095-0.5,0.096-0.559
				c0.008-0.274,0.068-0.724-0.054-0.982c-0.547-1.157-1.681-1.958-2.854-2.344C722.418,287.624,722.129,289.128,722.38,289.21"/>
<path fill="#FFFFFF" d="M718.5,297.17c0.205,0.682,0.223,1.31,0.095,2.012c-0.063,0.353-0.048,0.737-0.028,1.093
				c0.004,0.051,0.053,0.592,0.109,0.287c0.288-1.593,0.337-3.372-0.133-4.933c-0.018-0.059-0.095,0.487-0.097,0.559
				C718.438,296.497,718.409,296.868,718.5,297.17"/>
<path fill="#FFFFFF" d="M715.27,295.01c0.006,1.322,0.078,2.637-0.188,3.94c-0.071,0.348-0.048,0.742-0.026,1.094
				c0.004,0.054,0.045,0.589,0.106,0.287c0.359-1.753,0.273-3.542,0.265-5.321c0-0.055,0.013-0.798-0.078-0.798
				C715.26,294.212,715.27,294.955,715.27,295.01"/>
<path fill="#FFFFFF" d="M713.63,296.44c-0.456,1.754-0.907,3.51-1.266,5.289c-0.068,0.349-0.048,0.741-0.027,1.094
				c0.004,0.054,0.047,0.589,0.108,0.287c0.346-1.725,0.783-3.427,1.226-5.128C713.789,297.529,713.559,296.712,713.63,296.44"/>
<path fill="#FFFFFF" d="M715.84,297.56c0.016,1.506,0.189,3.027,0.023,4.528c-0.041,0.37-0.036,0.76,0,1.13
				c0.026,0.272,0.08,0.267,0.109,0c0.213-1.891,0.043-3.763,0.024-5.658c0-0.055,0.013-0.799-0.078-0.799
				S715.84,297.505,715.84,297.56"/>
<path fill="#FFFFFF" d="M705.23,298.36c0.03-0.475,0.025-0.57-0.014-0.286c-0.021,0.104-0.051,0.207-0.084,0.307
				c-0.057,0.171-0.138,0.331-0.224,0.486c-0.132,0.236-0.063,0.726-0.056,0.982c0.003,0.055,0.055,0.636,0.097,0.559
				c0.556-1.003,0.515-2.321,0.358-3.428c-0.043-0.31-0.104,0.239-0.106,0.287C705.181,297.629,705.18,298,705.23,298.36"/>
<path fill="#FFFFFF" d="M709.89,295.2c0.31,0.598,0.287,1.119,0.283,1.776c-0.001,0.054-0.012,0.799,0.077,0.799
				c0.09,0,0.076-0.745,0.078-0.799c0.008-1.103,0.123-2.308-0.398-3.318c-0.039-0.075-0.094,0.502-0.096,0.559
				C709.829,294.482,709.763,294.954,709.89,295.2"/>
<path fill="#FFFFFF" d="M711.16,294.65c0.172,0.138,0.318,0.291,0.437,0.481c0.052,0.084,0.089,0.176,0.123,0.268
				c0.036,0.097,0.05,0.388,0.043,0.053c0.004,0.158,0.011,0.321,0.036,0.478c-0.001-0.008,0.025,0.177,0.061,0.081
				c0.104-0.29,0.062-0.682,0.056-0.983c-0.016-0.778-0.127-1.475-0.755-1.976c-0.025-0.02-0.058,0.259-0.056,0.234
				c-0.02,0.188-0.023,0.377-0.023,0.565c0,0.188,0.005,0.377,0.023,0.564C711.109,294.463,711.109,294.609,711.16,294.65"/>
<path fill="#FFFFFF" d="M712.73,293.23c0.252,0.508,0.541,0.997,0.793,1.505c0.04,0.082,0.059-0.068,0.061-0.081
				c0.024-0.157,0.029-0.319,0.035-0.478c0.006-0.205,0.004-0.41-0.009-0.616c-0.006-0.101,0.001-0.271-0.047-0.367
				c-0.252-0.508-0.541-0.997-0.792-1.505c-0.041-0.082-0.058,0.068-0.061,0.081c-0.025,0.157-0.031,0.318-0.036,0.478
				c-0.005,0.205-0.004,0.411,0.009,0.615C712.689,292.964,712.682,293.134,712.73,293.23"/>
<path fill="#FFFFFF" d="M716.24,291.96c0.619,0.882,1.26,1.749,1.946,2.575c-0.023-0.028,0.078-0.72,0.078-0.798
				c0-0.192,0.056-0.64-0.078-0.8c-0.673-0.809-1.3-1.655-1.905-2.518c-0.054-0.079-0.096,0.503-0.097,0.559
				C716.179,291.203,716.099,291.76,716.24,291.96"/>
<path fill="#FFFFFF" d="M718.05,288.95c0.47,0.827,1.011,1.605,1.606,2.343c-0.024-0.03,0.078-0.719,0.078-0.799
				c0-0.194,0.055-0.635-0.078-0.8c-0.581-0.719-1.107-1.479-1.566-2.286c-0.042-0.077-0.094,0.503-0.096,0.559
				C717.988,288.221,717.917,288.717,718.05,288.95"/>
<path fill="#FFFFFF" d="M700.4,280.9c-0.524-0.421-1.081-0.782-1.699-1.041c-0.041-0.019-0.078,0.759-0.078,0.799
				c0,0.1-0.047,0.747,0.078,0.798c0.618,0.26,1.175,0.62,1.699,1.042c0.004,0.002,0.078-0.747,0.078-0.8
				C700.479,281.551,700.536,281.01,700.4,280.9"/>
<path fill="#FFFFFF" d="M705.93,279c0.039,0.09,0.074,0.18,0.107,0.273c0.021,0.067,0.04,0.135,0.055,0.204
				c0.019,0.126,0.021,0.129,0.011,0.007c0.003,0.158,0.012,0.322,0.036,0.478c-0.003-0.009,0.025,0.177,0.061,0.08
				c0.104-0.291,0.061-0.681,0.055-0.982c-0.008-0.549-0.063-1.094-0.281-1.6c-0.038-0.087-0.061,0.076-0.061,0.081
				c-0.025,0.157-0.031,0.318-0.035,0.478C705.865,278.301,705.813,278.732,705.93,279"/>
<path fill="#FFFFFF" d="M710.29,274.85c0.026,1.05-0.086,2.152-0.625,3.068c-0.134,0.227-0.063,0.734-0.055,0.983
				c0.001,0.055,0.05,0.636,0.096,0.557c0.848-1.439,0.778-3.413,0.735-5.034c-0.003-0.065-0.074-0.623-0.097-0.558
				C710.242,274.157,710.281,274.55,710.29,274.85"/>
<path fill="#FFFFFF" d="M711.27,280.76c0.929-0.623,1.564-1.579,2.061-2.575c0.125-0.25,0.062-0.714,0.055-0.982
				c0-0.057-0.059-0.634-0.096-0.559c-0.487,0.979-1.107,1.906-2.02,2.518c-0.134,0.092-0.077,0.668-0.077,0.8
				C711.192,280.008,711.254,280.771,711.27,280.76"/>
<path fill="#FFFFFF" d="M713.99,280.65c0.318-0.333,0.589-0.708,0.906-1.041c0.049-0.052,0.049-0.173,0.057-0.234
				c0.018-0.188,0.022-0.377,0.022-0.565c0-0.189-0.005-0.377-0.022-0.565c0.003,0.026-0.035-0.256-0.057-0.234
				c-0.317,0.333-0.588,0.708-0.906,1.041c-0.05,0.052-0.05,0.173-0.056,0.234c-0.02,0.188-0.022,0.377-0.022,0.565
				c0,0.188,0.004,0.377,0.022,0.565C713.932,280.389,713.971,280.671,713.99,280.65"/>
<path fill="#FFFFFF" d="M718.07,281.36c-1.021-0.004-2.042-0.014-3.059-0.116c-0.07-0.007-0.166,1.582,0,1.599
				c1.017,0.101,2.037,0.112,3.059,0.116C718.185,282.959,718.188,281.36,718.07,281.36"/>
<path fill="#FFFFFF" d="M717.16,285.04c1.358,0.815,2.676,1.699,4.08,2.43c-0.108-0.056,0.293-1.444,0-1.598
				c-1.404-0.732-2.722-1.615-4.08-2.431C717.289,283.52,716.855,284.857,717.16,285.04"/>
<path fill="#FFFFFF" d="M717.28,287.82c1.21,0.771,2.533,1.363,3.626,2.315c-0.003-0.001,0.076-0.744,0.076-0.8
				c0-0.156,0.059-0.679-0.076-0.799c-1.093-0.952-2.416-1.544-3.626-2.315c-0.021-0.012-0.078,0.755-0.078,0.8
				C717.202,287.146,717.146,287.733,717.28,287.82"/>
<path fill="#FFFFFF" d="M709.48,282.01c0.174-0.583,0.17-1.208,0.17-1.812c0-0.055,0.012-0.799-0.078-0.799
				s-0.078,0.744-0.078,0.799c0,0.219,0.003,0.034,0.005,0.002c-0.007,0.091-0.034,0.181-0.06,0.268
				c-0.091,0.303-0.063,0.671-0.056,0.983c0.005,0.159,0.009,0.321,0.036,0.478C709.417,281.91,709.448,282.114,709.48,282.01"/>
<path fill="#FFFFFF" d="M699.939,277.75c1.064,1.302,2.412,2.245,3.723,3.265c0.971,0.755,1.688,2.042,2.737,2.638
				c-0.121-0.068,0.301-1.427,0-1.598c-0.944-0.538-1.575-1.676-2.414-2.378c-1.384-1.161-2.886-2.106-4.044-3.525
				C700.136,276.391,699.647,277.391,699.939,277.75"/>
<path fill="#FFFFFF" d="M702.21,282.06c-0.642-0.661-1.229-1.369-1.813-2.083c-0.019-0.021-0.06,0.26-0.058,0.234
				c-0.017,0.187-0.022,0.376-0.022,0.564c0,0.193-0.055,0.636,0.079,0.8c0.582,0.714,1.17,1.422,1.813,2.083
				c-0.014-0.014,0.076-0.733,0.076-0.8C702.286,282.685,702.345,282.201,702.21,282.06"/>
<path fill="#FFFFFF" d="M700.939,292.62c-0.427,0.775-0.788,1.59-1.338,2.286c-0.133,0.167-0.078,0.603-0.078,0.8
				c0,0.082,0.104,0.766,0.078,0.799c0.563-0.717,0.939-1.547,1.379-2.344c0.131-0.236,0.063-0.726,0.056-0.982
				C701.035,293.123,700.982,292.543,700.939,292.62"/>
<path fill="#FFFFFF" d="M702.13,294.22c-0.02,0.889-0.323,1.776-0.434,2.656c-0.046,0.369-0.035,0.763,0,1.131
				c0.028,0.274,0.078,0.264,0.111,0c0.14-1.135,0.448-2.211,0.474-3.362c0.007-0.301,0.049-0.693-0.055-0.984
				C702.205,293.597,702.131,294.154,702.13,294.22"/>
<path fill="#FFFFFF" d="M706.311,301.57c0.755-2.527,0.672-5.199,0.621-7.812c-0.022-1.122-0.161-0.084-0.151,0.424
				c0.039,1.978,0.06,3.935-0.512,5.847C706.137,300.474,706.388,301.31,706.311,301.57"/>
<path fill="#FFFFFF" d="M708.76,295.43c0.288,0.877,0.347,1.676,0.209,2.59c-0.055,0.358-0.05,0.732-0.027,1.094
				c0.003,0.047,0.06,0.594,0.106,0.286c0.274-1.81,0.332-3.756-0.245-5.512c-0.021-0.062-0.094,0.491-0.097,0.559
				C708.695,294.751,708.662,295.134,708.76,295.43"/>
<path fill="#FFFFFF" d="M711.16,294.54c0.883,1.08,1.149,2.513,1.064,3.891c-0.015,0.261,0.074,1.791,0.136,0.807
				c0.126-2.082,0.183-4.605-1.2-6.296c0.023,0.029-0.078,0.719-0.078,0.8C711.082,293.933,711.027,294.377,711.16,294.54"/>
<path fill="#FFFFFF" d="M711.82,293.47c0.551,2.298,0.978,4.616,1.213,6.971c0.062,0.625,0.129-0.923,0.111-1.13
				c-0.25-2.493-0.697-4.948-1.282-7.382C711.929,292.207,711.711,293.015,711.82,293.47"/>
<path fill="#FFFFFF" d="M714.09,292.89c1.007,1.388,1.886,2.851,2.379,4.515c0.019,0.058,0.094-0.487,0.095-0.559
				c0.011-0.312,0.036-0.679-0.055-0.983c-0.493-1.663-1.371-3.127-2.379-4.515C714.228,291.483,713.849,292.559,714.09,292.89"/>
<path fill="#FFFFFF" d="M718.77,289.03c-0.465-0.809-1.454-0.908-2.286-0.839c-0.157,0.013-0.076,1.604,0,1.599
				c0.787-0.065,1.8,0.008,2.244,0.781c0.045,0.077,0.095-0.504,0.098-0.559C718.83,289.761,718.903,289.261,718.77,289.03"/>
<path fill="#FFFFFF" d="M716.37,288.4c1.467-0.213,2.939-0.23,4.418-0.232c0.119,0,0.119-1.598,0-1.598
				c-1.478,0-2.949,0.018-4.418,0.231C716.186,286.828,716.324,288.408,716.37,288.4"/>
<path fill="#FFFFFF" d="M719.09,276.27c-1.174,1.404-1.796,3.311-2.191,5.086c-0.077,0.343-0.049,0.745-0.027,1.093
				c0.004,0.059,0.04,0.587,0.106,0.287c0.376-1.686,1.001-3.536,2.114-4.867c0.134-0.161,0.077-0.609,0.077-0.8
				C719.169,276.991,719.067,276.297,719.09,276.27"/>
<path fill="#FFFFFF" d="M712.71,277.64c0.219,1.35,0.774,2.595,1.152,3.9c0.017,0.058,0.094-0.486,0.095-0.559
				c0.009-0.313,0.035-0.678-0.054-0.982c-0.362-1.251-0.904-2.446-1.114-3.739c-0.049-0.308-0.104,0.238-0.106,0.287
				C712.662,276.906,712.652,277.283,712.71,277.64"/>
<path fill="#FFFFFF" d="M711.5,279.97c-0.529-0.657-0.979-1.351-1.225-2.17c-0.031-0.104-0.064,0.099-0.061,0.08
				c-0.025,0.157-0.031,0.32-0.035,0.478c-0.01,0.312-0.036,0.68,0.055,0.983c0.251,0.842,0.724,1.553,1.266,2.228
				c0.019,0.021,0.058-0.261,0.055-0.234c0.02-0.188,0.024-0.377,0.024-0.566C711.579,280.575,711.634,280.136,711.5,279.97"/>
<path fill="#FFFFFF" d="M709.35,281.02c-1.777-0.576-3.48-1.286-4.986-2.43c0.164,0.123-0.312,1.358,0,1.598
				c1.505,1.145,3.209,1.854,4.986,2.431C709.313,282.607,709.6,281.1,709.35,281.02"/>
</g>
<g>
<path fill="#D9C0B9" stroke="#000000" stroke-width="0.5481" d="M670.35,297.23c0,0-2.953-5.082,5.239-7.572
				c0,0,2.477,1.348,3.048,2.282c0,0-1.428,2.386-6.096,3.008C672.541,294.948,670.445,295.57,670.35,297.23L670.35,297.23z"/>
<path fill="#5E3F17" d="M675.77,290.98c-1.34,0.82-3.449,0.831-3.867,2.681c-0.006,0.026,0.004,0.126,0.007,0.115
				c0.417-1.843,2.532-1.849,3.861-2.662C675.796,291.096,675.759,290.987,675.77,290.98"/>
<path fill="#D9C0B9" stroke="#000000" stroke-width="0.5481" d="M671.21,296.4c0,0,3.297,0.696,5.523-0.933
				c1.825-1.335,2.478-0.727,2.953-0.622c0,0,0.096-1.66-1.048-2.904c0,0-2.314,1.911-4.029,2.43
				C672.896,294.889,671.736,294.717,671.21,296.4z"/>
<path fill="#DBA05F" stroke="#000000" stroke-width="0.5481" d="M711.3,280.57c0,0-7.049,1.207-8.908,1.633
				s-6.069,0.853-7.536,0.853c-1.469,0-3.72-1.172-5.286-1.492c-1.565-0.32-6.655-0.853-8.515,1.066s-3.035,2.558-3.622,3.197
				s-2.944,2.731-3.038,3.658c-0.092,0.925,0.592,2.311,1.766,2.311c1.176,0,3.644,2.5,3.64,3.021
				c-0.006,0.872,3.224,1.81,6.269,1.792c5.49-0.03,8.191-2.8,16.422-1.83c4.481,0.528,12.725-2.984,14.193-5.115
				c1.467-2.132,2.349-4.37,0.88-6.821C716.096,280.391,711.694,280.642,711.3,280.57z"/>
<path d="M681.79,288.47c0.001,0-0.019,0.156-0.051-0.085l-0.041-0.189l-0.049-0.13l-0.009-0.144
				c-0.033-0.05,0.147,0.035,0.716-0.524c0.003,0.01,0.172-0.269,0.48-0.731c-0.033,0.021,0.7-0.911,1.778-1.159
				c1.074-0.25,2.067-0.07,2.205-0.062c0.046-0.06-2.436-0.086-2.599,0.204c0.007-0.195,2.394-0.276,2.521-0.11
				c0.031-0.056-2.248-0.075-2.417,0.238c-0.003-0.142,2.067-0.241,2.292-0.05c0,0-0.385-0.043-0.489-0.033l0.181,0.031
				l-0.291-0.004l-0.167-0.016c0-0.005,0.454,0.055,0.483,0.096c0.004,0.007,0.204-0.057-0.605-0.014
				c0.002,0.002-0.497-0.091-1.304,0.166C683.364,286.108,683.397,287.548,681.79,288.47"/>
<path fill="none" stroke="#939598" stroke-width="0.0012" d="M681.62,287.87c0.094,0.008,0.785-0.272,1.448-1.499
				c-0.188-0.335,2.489-1.379,2.767-1.044c0.012-0.01,0.73,0,1.149,0.068"/>
<path fill="none" stroke="#000000" stroke-width="0.0012" d="M684.27,285.55c-0.272-0.037-1.632,1.108-1.508,1.172
				c-0.294,0.704-1.058,1.164-1.146,1.146"/>
<path fill="none" stroke="#000000" stroke-width="0.0012" d="M684.38,285.72c0-0.089,1.839-0.265,2.202-0.127"/>
<path fill="none" stroke="#939598" stroke-width="0.0012" d="M684.04,286.21c-0.051-0.192,1.914-0.459,2.097-0.326"/>
<path d="M686.09,287.46c0,0,0.083,0.05-0.029-0.061l-0.084-0.096l-0.05-0.082l-0.069-0.061c0,0-0.063,0.026-0.555,0.463
				c-0.003-0.004-0.216,0.16-0.471,0.399c-0.006-0.021-0.478,0.397-1.006,0.687c-0.563,0.083-1.378,0.449-1.378,0.594
				c-0.05-0.218,1.616-0.655,1.592-0.682c0.119,0.079-1.477,0.371-1.506,0.696c-0.058-0.196,1.464-0.578,1.526-0.582
				c0.078,0.089-1.341,0.323-1.383,0.63c0.002,0.008,0.194-0.193,0.272-0.197l-0.1,0.075c0.049-0.049,0.115-0.059,0.178-0.082
				l0.104-0.048c-0.004,0.002-0.283,0.125-0.274,0.184c0.014,0.032-0.161-0.018,0.367-0.161
				C683.232,289.186,684.567,288.865,686.09,287.46"/>
<path fill="none" stroke="#939598" stroke-width="0.0012" d="M685.84,287.12c-0.009-0.022-0.589,0.579-1.195,1.006
				c0.005,0.101-1.243,0.833-1.569,0.745c-0.021-0.039-0.533,0.215-0.747,0.477"/>
<path fill="none" stroke="#000000" stroke-width="0.0012" d="M683.99,288.6c0.095-0.094,0.881-0.63,0.881-0.636
				c0.28-0.297,0.974-0.85,0.975-0.851"/>
<path fill="none" stroke="#000000" stroke-width="0.0012" d="M684.02,288.74c0.065,0.064-1.17,0.234-1.367,0.531"/>
<path fill="none" stroke="#939598" stroke-width="0.0012" d="M684.37,288.71c0.079,0.159-1.322,0.533-1.379,0.575"/>
<path fill="#C6262C" stroke="#000000" stroke-width="0.5481" d="M688.04,281.76c0,0-0.099-2.238-2.252-3.09
				c-2.152-0.853-4.601-0.959-5.48-0.853c-0.882,0.106-1.027,0.5-2.128,0.677c-1.102,0.176-2.275,0.708-2.275,0.708
				s0-0.106-0.588,0.959c-0.588,1.066-1.564,1.599-1.075,2.558c0.488,0.959,0.164,1.126,0.767,1.309
				c0.604,0.183-0.299-0.327-0.299-0.327s-3.772,1.216-2.854,3.526c0.918,2.312,1.838,1.448,2.111,1.401
				c0.275-0.048,2.135-1.007,2.135-1.007l3.056-2.856c0,0,3.6-1.407,3.99-1.513c0.393-0.106,2.097,0.04,2.097,0.04L688.04,281.76z"
				/>
<path d="M685.311,287.01c0,0.558-0.566,1.278-1.266,1.608c-0.701,0.329-1.269,0.145-1.269-0.413c0-0.559,0.566-1.279,1.266-1.609
				C684.741,286.267,685.311,286.451,685.311,287.01"/>
<path fill="#5E3F17" d="M708.62,292.91c0.683-0.116,1.364-0.465,2.046-0.929"/>
<g>
<path fill="#842116" d="M674.86,285.06c0.576,0.01,1.253,0.314,1.164,1.021c-0.016,0.123-0.013,0.254,0,0.377
					c0.009,0.091,0.025,0.088,0.037,0c0.054-0.432,0.074-0.929-0.092-1.339c-0.185-0.453-0.673-0.584-1.109-0.592
					C674.823,284.527,674.817,285.06,674.86,285.06"/>
<path fill="#842116" d="M677.63,286.13c0.276-0.782,0.211-1.708-0.263-2.393c0.032,0.047-0.093,0.399-0.014,0.513
					c0.294,0.424,0.446,0.852,0.263,1.366C677.564,285.761,677.658,286.049,677.63,286.13"/>
<path fill="#842116" d="M679.87,283.76c-0.143-0.932-0.469-1.968-1.327-2.452c0.04,0.022-0.1,0.476,0,0.533
					c0.835,0.471,1.164,1.471,1.302,2.379c0.017,0.103,0.033-0.079,0.034-0.095C679.887,284.005,679.889,283.879,679.87,283.76"/>
<path fill="#842116" d="M681.84,283.28c0.121-0.868,0.046-1.794-0.67-2.375c0.057,0.046-0.105,0.448,0,0.533
					c0.397,0.322,0.72,0.841,0.644,1.383c-0.017,0.12-0.016,0.243-0.009,0.363C681.806,283.2,681.826,283.383,681.84,283.28"/>
<path fill="#842116" d="M678.54,280.37c1.926-0.977,5.849-1.41,7.358,0.536c-0.066-0.083,0.096-0.409,0-0.532
					c-1.51-1.947-5.433-1.514-7.358-0.538C678.442,279.886,678.575,280.353,678.54,280.37"/>
</g>
<g>
<path fill="#7A2E26" d="M680.38,294.73c0.614,0,1.237,0.007,1.84-0.135c0.072-0.016,0-0.533,0-0.532
					c-0.603,0.141-1.226,0.134-1.84,0.134C680.341,294.196,680.341,294.73,680.38,294.73"/>
<path fill="#7A2E26" d="M679.22,286.19c-0.507,0.002-0.354,0.61-0.657,0.866c-0.047,0.037-0.027,0.215-0.027,0.266
					c0,0.019,0.025,0.267,0.027,0.267c0.303-0.254,0.163-0.863,0.657-0.866C679.26,286.723,679.258,286.19,679.22,286.19"/>
<path fill="#7A2E26" d="M680.92,287.34c0.256-0.479,0.762-0.674,1.217-0.904c0.097-0.048-0.033-0.516,0-0.532
					c-0.464,0.233-0.969,0.433-1.229,0.921c-0.042,0.081-0.021,0.242-0.02,0.328C680.889,287.172,680.907,287.366,680.92,287.34"/>
<path fill="#7A2E26" d="M683.13,290.28c0.416,0.033,0.741-0.146,0.988-0.481c0.041-0.059,0.025-0.198,0.025-0.266
					c0-0.029-0.037-0.253-0.025-0.267c-0.249,0.336-0.572,0.514-0.988,0.481C683.104,289.745,683.078,290.275,683.13,290.28"/>
<path fill="#7A2E26" d="M684.87,289.66c0.673-0.284,1.188-0.712,1.558-1.355c0.045-0.078,0.022-0.244,0.02-0.328
					c0-0.018-0.019-0.212-0.032-0.186c-0.366,0.638-0.879,1.056-1.545,1.336C684.778,289.166,684.895,289.649,684.87,289.66"/>
<path fill="#7A2E26" d="M682.13,286.78c-0.385,0.648-1.114,0.979-1.552,1.585c-0.08,0.111,0.045,0.47,0.014,0.514
					c0.438-0.608,1.166-0.936,1.552-1.586c0.045-0.076,0.021-0.246,0.02-0.328C682.16,286.947,682.145,286.754,682.13,286.78"/>
<path fill="#7A2E26" d="M683.32,295.28c1.396,0.075,2.744-0.114,4.092-0.48c0.077-0.022-0.005-0.532,0-0.533
					c-1.349,0.367-2.697,0.555-4.092,0.48C683.289,294.746,683.271,295.278,683.32,295.28"/>
<path fill="#7A2E26" d="M689.76,295.04c1.824-1.323,3.362-2.456,3.959-4.768c0.039-0.151-0.037-0.423-0.014-0.513
					c-0.594,2.294-2.142,3.438-3.945,4.748C689.657,294.582,689.812,295.002,689.76,295.04"/>
<path fill="#7A2E26" d="M690.85,291.87c1.297-0.772,2.225-1.99,2.735-3.422c0.052-0.144-0.042-0.433-0.014-0.514
					c-0.508,1.427-1.433,2.636-2.722,3.403C690.747,291.396,690.893,291.844,690.85,291.87"/>
<path fill="#7A2E26" d="M690.23,283.8c0.993-0.119,2.078,0.707,2.775,1.346c-0.062-0.055,0.104-0.437,0-0.533
					c-0.696-0.639-1.782-1.465-2.775-1.346C690.173,283.274,690.211,283.802,690.23,283.8"/>
<path fill="#7A2E26" d="M716.07,287.82c1.131-1.828,0.514-4.115-0.658-5.752c0.032,0.045-0.094,0.403-0.014,0.514
					c0.99,1.385,1.647,3.13,0.659,4.725C715.982,287.426,716.104,287.766,716.07,287.82"/>
<path fill="#7A2E26" d="M696.35,285.24c1.143,0.828,4.287,2.936,3.428,4.667c-0.066,0.132,0.046,0.448,0.014,0.514
					c1.177-2.37-1.86-4.568-3.441-5.714C696.4,284.743,696.246,285.162,696.35,285.24"/>
<path fill="#7A2E26" d="M705.21,293.75c0.18-0.487,0.243-0.996,0.294-1.511c0.012-0.124,0.012-0.252,0-0.376
					c-0.011-0.09-0.028-0.09-0.037,0c-0.046,0.47-0.105,0.929-0.271,1.373c-0.036,0.095-0.021,0.229-0.019,0.328
					C705.179,293.585,705.201,293.772,705.21,293.75"/>
<path fill="#7A2E26" d="M673.95,288.41c0.437-0.648,0.297-1.516-0.131-2.125c0.032,0.045-0.093,0.4-0.015,0.514
					c0.114,0.159,0.209,0.321,0.285,0.502c0.093,0.222-0.033,0.416-0.153,0.594c-0.047,0.069-0.021,0.25-0.019,0.328
					C673.919,288.243,673.933,288.435,673.95,288.41"/>
<path fill="#7A2E26" d="M693.62,294.06c0.62-0.396,1.055-0.985,1.193-1.725c0.022-0.117,0.017-0.246,0.009-0.364
					c0-0.018-0.016-0.197-0.034-0.095c-0.133,0.707-0.577,1.274-1.168,1.651C693.518,293.593,693.666,294.031,693.62,294.06"/>
<path fill="#7A2E26" d="M696.57,293.82c0.266-0.294,0.364-0.647,0.379-1.04c0.004-0.099,0.017-0.232-0.018-0.327
					c-0.009-0.022-0.032,0.164-0.032,0.185c-0.009,0.227-0.188,0.492-0.329,0.649c-0.045,0.05-0.025,0.206-0.025,0.267
					C696.544,293.578,696.576,293.813,696.57,293.82"/>
<path fill="#7A2E26" d="M714.39,284.04c0.485,0.859,0.564,1.806,0.348,2.769c-0.022,0.104,0.017,0.508,0.026,0.46
					c0.275-1.219,0.264-2.636-0.361-3.743C714.438,283.585,714.318,283.914,714.39,284.04"/>
<path fill="#7A2E26" d="M712.61,285.85c0.351,0.868,0.324,1.771,0.225,2.69c-0.009,0.069,0.014,0.586,0.036,0.376
					c0.133-1.218,0.219-2.421-0.247-3.58C712.654,285.412,712.554,285.709,712.61,285.85"/>
<path fill="#7A2E26" d="M710.939,287.4c0,0.649,0.008,1.298-0.215,1.914c-0.054,0.145,0.042,0.435,0.014,0.514
					c0.279-0.771,0.254-1.618,0.256-2.428C710.993,287.098,710.939,287.098,710.939,287.4"/>
</g>
</g>
<path fill="#DCDDDE" stroke="#000000" stroke-width="0.2665" d="M694.561,275.41c-7.074,0.406-14.049-4.292-14.049-4.292
			c-8.762-1.717-9.271-9.639-9.271-9.639c-3.506-1.335-6.521-10.337-6.521-10.337c-5.431,3.242-12.226,0.035-12.226,0.035
			s0-1.335-6.133,0s-5.081-1.144-5.081-1.144s2.453-2.48-8.409,0c-10.861,2.479,0.877-3.243,0.877-3.243
			c-3.153,0.953-13.489,1.717-13.489,1.717c-3.794,0.171-7.644,2.042-11.835,3.237c-2.609,0.744-7.073,1.61-9.331,2.574
			c-6.021,2.574-18.091,8.105-28.058,12.017c-13.104,5.143-23.489,9.056-22.806,8.891c0.818-0.198,14.229-8.692,31.027-16.308
			c15.598-7.074,33.501-13.619,42.528-16.183c11.714-3.881,21.307-2.027,26.749-0.053c2.628,0.954,17.123-0.446,23.604,0.316
			c6.482,0.762,7.157,11.422,7.157,11.422c1.227,0.764,1.665,10.778,1.665,10.778s-3.592,0.095,0.613,0.667
			s11.912,6.677,11.912,6.677c2.628,0,2.926-0.094,2.926-0.094s1.527-1.924,3.631-2.729c2.102-0.806,4.029-1.611,6.394-1.789
			c2.364-0.181,5.704-0.202,8.067,0.066c2.365,0.27,5.158,0.291,8.486,0.917c3.33,0.627,3.68,0.806,4.73,1.163
			c1.051,0.358,1.992,0.126,1.992,0.126c4.329-1.809,12.357-5.007,14.205-4.64c0,0,3.029-0.761,4.658-2.028
			c1.629-1.268,5.354-4.312,5.354-4.312s-2.571-18.106,15.823-16.332c18.395,1.776,42.783,4.137,47.674,4.898
			c4.888,0.76,22.401,5.763,26.593,7.792c4.19,2.028,16.235,7.424,21.594,9.794c2.176,0.961,10.463,4.633,16.597,7.055
			c9.202,3.634,16.079,9.688,16.079,9.688c-5.767-2.44-10.43-5.229-14.997-7.213c-3.695-1.604-7.56-2.351-10.565-3.686
			c-6.377-2.833-11.289-5.413-15.154-7.213c-14.246-6.635-14.114-6.9-19.886-7.353c-3.979-0.313,2.857,4.852,2.857,4.852
			s-13.039-5.071-17.229-6.847c-4.19-1.774-7.683-2.534-11.642-2.281c-3.958,0.254-6.985-0.506-9.313-1.267
			c-2.328-0.761-15.602-1.268-17.93-1.521c-2.327-0.253-4.19-0.76-4.19-0.76l0.931,1.521l-6.52-1.013l-1.862,2.789
			c0,0-6.287,1.267-6.753-0.761c-0.466-2.027-3.727,9.127-5.356,12.424c-1.63,3.296-9.067,2.203-10.931,4.231
			c-1.863,2.029-5.836,3.386-6.766,3.893c-0.933,0.507-3.757,0.268-5.387,0.268c-2.426,0-0.359,0.037-4.338,0.793
			c0,0-3.438-0.033-4.751-0.569c-1.313-0.537-4.205-1.369-5.661-1.785c-1.987-0.569-13.047-0.821-14.623-0.731
			c-1.577,0.089-4.243,0.906-5.995,1.621c-1.751,0.716-4.818,2.595-4.818,3.043"/>
<path fill="#452C25" d="M695.29,273.29c0,0-0.741,0.569-0.929,1.992c-0.186,1.424-0.093,0.855-0.093,0.855"/>
<path fill="#574F4C" d="M731.03,271.21c0.938,0.699,1.903,1.41,2.736,2.243c0.027,0.029,0.296,0.274,0.204,0.078
			c-0.103-0.216-0.276-0.416-0.441-0.582c-0.923-0.924-1.98-1.724-3.023-2.5c-0.172-0.129,0.018,0.185,0.039,0.219
			C730.68,270.861,730.839,271.068,731.03,271.21"/>
</g>
</g>
</svg>
