<svg xmlns="http://www.w3.org/2000/svg" viewBox="0 0 60 30">
<rect width="60" height="30" fill="#012169"/><path d="M0,0 L0,3.354 L53.292,30 L60,30 L60,26.646 L6.708,0Z" fill="#fff"/><path d="M60,0 L60,3.354 L6.708,30 L0,30 L0,26.646 L53.292,0Z" fill="#fff"/><path d="M0,0 L0,2.236 L25.528,15 L30,15Z" fill="#C8102E"/><path d="M30,15 L34.472,15 L60,27.764 L60,30Z" fill="#C8102E"/><path d="M60,0 L55.528,0 L30,12.764 L30,15Z" fill="#C8102E"/><path d="M0,30 L4.472,30 L30,17.236 L30,15Z" fill="#C8102E"/><rect x="25" y="0" width="10" height="30" fill="#fff"/><rect x="0" y="10" width="60" height="10" fill="#fff"/><rect x="27" y="0" width="6" height="30" fill="#C8102E"/><rect x="0" y="12" width="60" height="6" fill="#C8102E"/>
</svg>
